<?xml version="1.0" encoding="utf-8"?>
<!-- Generator: Adobe Illustrator 25.2.0, SVG Export Plug-In . SVG Version: 6.00 Build 0)  -->
<svg version="1.1" id="Layer_1" xmlns="http://www.w3.org/2000/svg" xmlns:xlink="http://www.w3.org/1999/xlink" x="0px" y="0px"
	 viewBox="0 0 982 639.8" style="enable-background:new 0 0 982 639.8;" xml:space="preserve">
<style type="text/css">
	.st0{fill:#C82A39;}
	.st1{fill:#DB212B;}
	.st2{fill:#FEFEFE;}
</style>
<path class="st0" d="M71.9,550.9c-3.1,0.7-3.3-1.8-3.6-3.7c-4.1-22.7-8.1-45.4-12.1-68.1c-3.2-18.3-6.5-36.6-9.6-54.9
	c-0.4-2.3-2.4-5.9,2.9-5.4c0.7,0.1,1.8-0.5,1.6-1.5c-0.2-1-1.3-1.9-2.2-1.7c-4.1,1-4.1-1.9-4.6-4.5c-3.6-20.6-7.3-41.2-10.9-61.8
	c-0.4-2.5-1.6-5.5,3.5-5.7c-5-1.4-5.3-5-5.9-8.7c-4.7-27-9.7-54-14.5-80.9c-1.2-6.8-2.1-13.7-3.5-20.5c-0.5-2.6-0.6-4.2,2.2-5.6
	c1.4-0.6,3.5-2,2.8-4.2c-0.7-2.1-2.7-2.2-4.6-1.9c-3,0.5-2.7-1.8-3-3.4c-2.1-11.7-4.1-23.5-6.1-35.2c-1.4-7.9-2.8-15.7-4-23.6
	c-0.7-4.4,0.6-5.6,4.8-3.9c3,1.2,3.8-1.6,5.9-2.1c6.8-1.8,13.7-2.5,20.6-3.8c21.9-4,43.8-7.7,65.8-11.5c35.3-6.2,70.6-12.3,106-18.5
	c42-7.3,84.1-14.6,126.1-21.9c48.5-8.4,97.1-16.8,145.6-25.2c41.1-7.1,82.2-14.1,123.3-21.2c25.4-4.4,50.7-8.8,76.1-13.2
	c28-4.9,56-9.8,84-14.6c33.9-5.9,67.8-11.8,101.6-17.7C871,4,882.2,2.3,893.2,0.2c3.1-0.6,3.9,0.2,4.3,3.2
	c1.2,9.1,2.4,18.4,4.3,27.2c3.3,15.4,5.8,30.9,8.5,46.3c5.9,33,11,66.2,17.3,99.1c5.5,28.9,10.4,57.8,15.4,86.8
	c3.5,20.2,7.2,40.4,10.5,60.7c4.1,25.2,9.1,50.2,13.6,75.4c4.9,27.2,9.5,54.4,14.5,81.6c0.6,3.4-0.4,4.4-3.3,4.9
	c-28.5,5-56.9,10.1-85.4,15c-34.3,5.9-68.7,11.8-103,17.6c-26.3,4.5-52.6,8.6-78.8,13.5c-46.1,8.6-92.3,16.1-138.4,24.1
	c-8.7,1.5-17.3,3.2-26,4.5c-1.3,0.2-4.7,2.9-4.3-2.1c0.1-1.1-2.3-1.6-3.9-1.1c-0.9,0.3-2.2,0.5-2.1,1.7c0.2,2.8,3.3,0.7,4.4,2.5
	c-15.4,2.7-30.8,5.3-46.1,8c-22.4,3.9-44.8,7.9-67.2,11.8c-13.2,2.3-26.6,4.2-39.7,6.9c-3.6,0.7-2.4-4.3-5.3-2.8
	c1.3-0.4,2.7-0.7,4.1-1.1c-5.2-4.4-10.8-4.4-15.4-0.3c-1.2,1.1-2.7,1.9-4.2,2.7c-2.6,1.4-2.3,2.9,0.1,4.9
	c-13.6,2.4-26.8,4.8-39.9,7.1c-18.2,3.1-36.4,6.2-54.6,9.3c-7.7,1.3-15.3,2.8-23,4.1c-0.8,0.1-2.3,1.8-2.4-1.2c0-1.4-3.6-0.9-3.5,0
	c0.8,4.2-2.5,2.6-3.9,2.9c-37.8,6.7-75.6,13.3-113.4,19.8c-12.6,2.2-25.2,4.1-37.8,6.4c-3.2,0.6-4.2-0.2-4.7-3.5
	c-4-24.8-9.1-49.5-12.6-74.4c-0.5-3.5-3.5-7.2,1.3-9.9c0.2-0.4,0.8-0.9,0.7-1.1C72.8,549.9,72.3,550.5,71.9,550.9z M64.3,265.5
	c0.1-0.1,0.2-0.3,0.2-0.4C64.4,265.2,64.4,265.4,64.3,265.5c-0.1,0.1-0.1,0.3-0.2,0.4C64.1,265.8,64.2,265.6,64.3,265.5z
	 M502.6,548.8c-1.8,0.5-3.5,1.1-2.6-2c0.8-2.6,5.7-3.9,8.6-1.8c1.7,1.2,2.6,3.9,5,0.8c1.4-1.8,4.9-1.9,5-4.3
	c0.2-3.4,2.6-3.6,4.5-4.4c5.2-2.2,6.7-8.3,11.6-10.8c0.3-0.2,0.4-0.9,0.4-1.4c0.2-3.6,1.6-5.7,5.7-4.6c0.7,0.2,1.7,0.2,2-0.9
	c0.2-0.9-4.6-6.7-5.4-6.5c-3.5,1-5.7,5.2-10.1,3.9c-0.4,4-2.6,1.6-4.2,1.1c-2-0.7-4-0.8-6.2-0.8c-5.1,0.1-9.7,3-14.4,3.1
	c-13.7,0.2-26.6,5.2-40,6.4c-10.8,1-20.6,5.9-31.5,5.9c-1.1,0-2.6-0.1-2.5,1.6c0.1,1.3,1.3,1.3,2.3,1.4c0.8,0,1.7,0.1,2.5,0
	c2.1-0.2,3.4,0.7,4.3,2.7c0.8,1.9,0.4,3.3-0.5,5.1c-2,3.9-4.1,0.9-6.4,0.8c-3.9-0.1-5.5-1.9-5.2-5c0.3-4.5-1.9-4.8-5.4-4.7
	c-13.2,0.2-25.8,3.8-38.7,5.7c-8.3,1.3-16.6,3.1-24.9,4.4c-9.7,1.5-19.5,2.5-28.6,6.5c-1.6,0.7-4,1.6-5.2,0.9
	c-3.6-2.1-6.6,0-9.9,0.2c-5.9,0.4-11.4,3-17.2,4c-5,0.9-11.3-0.9-14.7,5.2c-0.2,0.4-2.1,0.4-2.8,0c-6.8-4.1-13.6-0.9-20.2,0.1
	c-9.6,1.4-18.8,4.9-28.5,6c-7.5,0.9-15.2-0.3-22.2,3.8c-1.5,0.9-3.6,1.2-5.3,1.1c-8.5-0.7-16.2,3.1-24.5,3.5
	c-5.7,0.3-10.7,2.8-16.1,3.5c-3.3,0.4-6.6,0.5-9.8,1.3c-10.2,2.5-20.4,4.3-31,3.8c1.8-5.5,0.8-11.1,0.6-16.7
	c-0.2-5.6-4.2-10.2-3.7-15.9c0.2-2.5-0.5-5-0.6-7.4c-0.2-4.6-3.4-8.6-3.1-12.8c0.9-11.2-3.6-21.1-5.5-31.7c-2.2,0.3-2.1,2.1-3.1,2.9
	c-0.7,0.6-1.5,0.6-2.3,0.2c-0.7-0.5-1.5-1.4-0.9-2c1.7-1.7,0.2-5.5,4.1-5.7c1.5-0.1,1.4-1.5,1.3-2.7c-0.9-13.5-5.1-26.5-6.5-40
	c-0.9-8.7-3-17.2-4.3-25.8c-0.5-3.3-2.7-4.3-5.3-5.1c-1.5-0.4-3.5,0.3-3.8-2.2c1.6,0,3.2,0,4.8,0c-0.4-3.6-2.9-2.6-4.7-2.8
	c0.4-1,1.1-2.1,2.1-1.9c7.4,1.9,4.3-2.2,3.1-5.2c-0.7-1.7-1.3-3.4-2-5.1c-1-2-1-2,0.3-3.6c0.2-0.2,0.3-0.7,0.2-0.9
	c-2.6-7.1-1.7-14.7-3.5-22c-2.4-9.2-3.6-18.7-5.1-28c-0.9-5.5-2.1-11-2.4-16.6c-0.1-2.2-1.1-4.8-3.5-6.3c-0.9-0.6-2-2.4-1.2-2.9
	c3.6-2.1,1-4.8,0.8-7c-0.7-7.3-3.2-14.4-3.5-21.8c-0.1-2.9,0.4-6.1-3.8-7.1c-1.5-0.3-0.1-1.4,0.2-2.3c3.4-10.2,1.2-14.9-8.6-18.7
	c-0.2-0.1-0.3-0.5-0.6-1.3c7.2-2.2,8.4-8.1,6.2-13.9c-3.4-8.9-2.8-18.2-4.7-27.2c-1.3-6.4-1.9-13.2-7-18.5c-1.2-1.2-4.2-4.1-0.7-6.7
	c0.1,0.5,0.1,1.4,0.2,1.4c5.3,0.6,5.1,5.1,5.7,8.7c2.6,13.7,5.1,27.4,7.6,41.1c2.5,13.9,4.9,27.9,7.3,41.8c2.5,14.6,5,29.1,7.6,43.7
	c7.5,42.8,15.1,85.7,22.7,128.5c6.7,37.8,13.3,75.5,19.8,113.3c0.6,3.4,1.6,4.5,5.1,3.9c24.2-4.3,48.4-8.6,72.6-12.7
	c30.1-5.1,60.2-10.4,90.4-15.3c17.9-2.9,35.9-6.2,53.8-9.5c33.1-6.2,66.4-11.5,99.7-17.3c37.3-6.5,74.6-13.1,111.9-19.6
	c43.6-7.6,87.1-15,130.7-22.6c51.4-8.9,102.8-17.8,154.2-26.7c25.9-4.5,51.7-9.2,77.5-13.6c3.8-0.6,4-2,3.4-5.1
	c-7-39.7-13.8-79.5-20.8-119.3c-8.2-46.3-16.5-92.6-24.7-138.9c-7.1-40.1-14.1-80.2-20.9-120.3c-0.6-3.3-1.9-3.9-4.6-3.3
	c-14.6,3.4-29.6,4.3-44.2,7.7c-11.2,2.6-22.5,4.2-33.8,6.1c-34.2,5.9-68.4,11.7-102.7,17.6c-33.4,5.8-66.8,11.6-100.2,17.3
	c-2.7,0.5-5.5,1.8-8.6,0.7c0.8-1,1.4-1.6,1.9-2.2c0.7-0.1,1.4-0.5,1.9-0.3c4.5,1.4,6-5.3,8-4.5c3.2,1.4,6.1,3.3,9.6,2
	c4.3-1.5,8.7-2.7,13.2-3.4c1.2-0.2,3.2,0.2,3.1-1.7c-0.1-2.2-2.2-1.6-3.5-1.6c-4.2,0-4-1.7-2.8-5c0.8-2.4,4-3,3.9-5.2
	c-0.2-3.6,2.1-5.4,4.1-7.5c2.1-2.3,4.6-4.3,6.3-6.9c3.1-4.6,7.3-6.5,12.9-5.4c2.2,0.4,5.5,1.9,4-3.4c-1.2-4.2-2.4-8.9,0.8-12.7
	c-4.4-2.7-6.8,1.9-10.2,2.1c-9.4,0.7-18.7,2.2-28,3.9c-10.3,1.9-20.7,3.3-30.9,6.1c-1.1,0.3-2.5,0.3-1.8,2.1
	c0.6,1.5,1.4,2.3,2.8,0.7c0.6-0.6,1.5-0.8,2.1,0.1c0.2,0.3,0.3,1,0.1,1.4c-0.8,1.7-6.2,2.2-6.4,0.6c-1.1-5.8-5.2-3.3-8-2.8
	c-6.4,1-13,0.4-19.3,1.7c-6,1.3-11.1,4.6-18,3.9c-3.8-0.4-8.6,1.7-13,1.9c-5.3,0.2-9.1,4.6-14.4,4.6c-4.1,0-8,1.1-12,2.4
	c-3.8,1.2-8.2,3.8-12,2c-8.4-4.1-16.1,0.6-23.5,1.9c-12.7,2.3-25.1,6.5-38.2,6.7c-2.9,0-5.7,0.3-6.8,3.7c-0.3,1-1.9,1.8-2,0.5
	c-0.3-3.6-2.3-1.4-3.5-1.2c-5.2,1-10.4,1.6-15.7,2.2c-4.1,0.5-10.1-0.6-11.4,6.1c-0.2,1.3-1.4,1.8-2.7,1.5c-1.3-0.2-1.6-1.3-1.4-2.3
	c0.7-2.6-1-2.3-2.7-2.7c-6-1.3-10.4,3.9-16.1,3.5c-3.1-0.2-6.2,0.5-9.3,1.1c-7.6,1.4-15.1,3.6-22.9,3.5c-1,0-2.3-0.2-2.9,0.3
	c-5.5,4.3-12.6,1.9-18.5,4.7c-0.9,0.5-2.6-0.5-3.1,0.9c-0.5,1.5,0.9,1.8,2,2.3c0.9,0.3,1.4,0.9,1.1,1.9c-0.2,1.1-1,1.8-2.1,1.8
	c-2.1,0.1-4.3-0.3-4.5-2.8c-0.2-3.3-2.1-3.3-4.5-2.8c-8.3,1.6-16.9,2.4-24.8,5.2c-3.6,1.3-6.1,3.7-9.7,0.7c-0.4-0.3-1.6,0.3-2.4,0.4
	c-6.7,1.1-13.3,2.5-20.1,3.3c-2.8,0.4-4.9,0.6-4.8,4.1c0,1.9-1.5,2.5-3,2.8c-1.4,0.3-3-0.3-3.4-1.6c-1.7-5.3-5.4-3.5-8.4-2.2
	c-6.9,3-14.6,3.6-21.7,4.7c-8.1,1.2-15.8,1.3-22.5,6.6c-1.6,1.3-4,1.2-5.7,0.1c-3-2-6-1.5-9.1-0.9c-11.9,2.5-23.7,5.6-35.8,7.3
	c-11.7,1.6-23.5,2.1-34.9,5.4c-6.2,1.8-12.1,4.3-19.8,2.7c1.8,2.9,4.5,3.7,4.3,6.1c-0.1,1.3,2.3,4-0.7,3.8
	c-6.6-0.4-13.1,2.5-19.8,0.6c-2.3-0.7-3.9-1-2.2-3.8c0.6-1.1,0.9-2.8-0.9-2.4c-4.4,1.2-9.4,0.7-13.1,4c-0.9,0.8-1.3,1.3-2.7,1.2
	c-5.4-0.5-7.4,2.8-4.7,7.8c1.2,2.2,2.6,4.4,2.1,7c-0.5,2.2,0.3,4.1,0.5,6.2c0.6,6.3,3.2,12,3.7,18.3c0.4,3.9-0.1,8.7,6.1,9.5
	c2.1,0.3,1.8,2.4,0.2,3.6c-5.5,4.1-5.4,5,1.1,8.4c3.7,2,4.3,5.2,1.7,8.4c-1.3,1.6-3.7,3.4-2.8,5.5c1.6,3.9,0.6,8.1,1.8,11.9
	c1.3,4.1-1.1,10,5.6,11.8c1.5,0.4,2.9,3.9,1.2,5c-5.2,3.4-2.6,8-2.4,12.1c0.4,10.5,5,20.2,6.2,30.7c0.9,7.8,3.7,15.9,3.5,23.4
	c-0.2,7.8,9.1,12.6,4.8,20.6c-0.1,0.1,0.6,0.6,0.5,0.8c-1,4.7,1.9,8.9,2.3,13.2c1.3,13.5,4.3,26.7,6.9,39.9c0.5,2.6,0.9,5.2,1.6,7.8
	c0.7,2.2,1.8,4.4,4.8,3.5c0.4-2.2-3-4.9-0.5-6.1c2.5-1.2,6-1.9,8.7,0.9c3.5,3.7,3.2,4.9-1.6,6.6c-3.7,1.3-6.3,3.3-7.9,7.3
	c-3.8,9.2,0.4,17,3.5,25c1.1,2.8,2.1,4.6,0.8,7.7c-1,2.5-1.3,6.1,1.6,7.9c2.7,1.7,4.5-0.8,6.2-2.7c0.4-0.5,0.8-1.1,1.6-0.8
	c2,2.6-1.2,5-0.4,7.4c1.4,3.9-0.5,4.5-3.5,3.7c-3.3-0.9-3.3-0.1-2.9,3c0.7,5.6,1.4,11,2.6,16.6c0.9,3.9,0.7,8.2,2.6,11.8
	c1.8,3.6,2.4,7.2,2.2,11.1c-0.2,7,0.1,14,3.3,20.3c1.2,2.5,1.9,4.8,1.7,7.5c-0.2,3.1-0.3,6,4,6.4c2,0.2,2.6,2.1,2.2,3.8
	c-0.3,1.3-2.1,1.8-2.8,3.3c-2.9,6.6,0.4,12.9,1,19.2c0.7,6.6,4.6,12.6,3.8,19.8c-0.5,4.3,2.2,8.7,2.4,13.3c0.4,7.9,3.7,15.3,5,23
	c0.9,5.4,3,4.9,6.8,4.6c9.2-0.6,18.3-1.9,27.3-3.9c4.9-1.1,9.9-0.4,14.8-1.6c2.5-0.6,3-2.6,3.2-4.5c0.3-2.4-1.9-1.8-3.2-2
	c-2.9-0.4-4.9-1.9-5.4-4.9c-0.2-1-0.2-2.7-1-2.6c-5.4,0.8-4.7-4.5-6.6-6.9c-1.9-2.4-3.3-4.9-6.5-5.6c-0.9-0.2-1.7-0.4-1.8-1.4
	c-0.4-2.9-2.4-3.1-4.4-2.2c-2.5,1.1-3.1,4.2-3.2,6.3c-0.1,2,2.7,2.4,4.7,1.8c1.7-0.5,2.5,0.1,2.6,1.8c0.1,1.9-1,3.3-2.6,2.6
	c-3-1.4-8.4,2-9-4.3c0-0.2-1.2-0.4-1.8-0.5c-1.2-0.1-2.9-0.3-2.2-1.8c1-1.8-1.4-5.1,1.7-5.5c3.8-0.5,5.1-3.2,7.4-5.4
	c2.6-2.5,0.2-3.9-0.8-3.8c-6.2,0.7-6.6-4.4-8.6-8c-0.9-1.7-1.9-3.2-4.1-1.4c-1,0.8-2.2,1.4-4,0.8c1.9-2.4,1.5-5.3,2.5-7.8
	c2.1,2.6,5.3,1.5,7.9-2.7c-3.3,0-6.5,0-9.8,0c-1.5-0.8-3.2-1.5-0.7-3.2c1.2-0.8,2.4-1.6,3.5-2.4c3.9,3.3,8,4.9,12.5,1
	c0.2-0.2,0.5-0.3,0.8-0.3c2.7-0.7,3.5-2.5,1.5-4.1c-2.2-1.6-2-2.2,0.5-2.6c1.4,0.9,3.2,1.2,3.3,3.3c0.2,5.2,0.3,10.9-3.1,14.6
	c-3.2,3.4-1.1,6.4-2.2,10c2.1-0.8,3.5-3.9,4.9-2c3.4,4.7,5.7,0.9,8.5-0.5c-3.8,4.6-0.6,9.6-0.5,14.3c0,1.2,1.7,2.2,2.7,1.3
	c2-1.9,2.8,0.7,4.1,0.8c3.6,0.3,2.4,5.9,6.2,5.6c2.5-0.2,2.7,0.6,2.7,3.1c-0.1,1.8-1,5.7,1.9,5.7c5.7,0.1,8.2,2.9,9.1,8
	c0.3,1.7,1.8,2.8,3.3,1.8c4-2.6,8.9-1.9,12.7-2c12.2-0.2,23.5-4.7,35.5-5.5c9.7-0.6,19-4.7,28.9-4.2c2.6,0.1,3.4-1.4,3.5-3.8
	c0.1-2.2,1.8-2.9,2.9-1.3c2.6,3.7,5.7,1.7,8,0.7c2.8-1.3,2.4-4.3,1.4-7.1c-0.6-1.6,0-3.5,1.9-3c1.7,0.4,5.4-1.5,5.1,1.9
	c-0.6,6.7,2.4,6.9,7.3,5c0.6-0.2,1.6,0.4,2.4,0.5c3.7,0.6,7.3-0.4,10.7-1.5c2.9-0.9,5.6-2.6,3.7-6.5c-0.8-1.6-0.3-3.1,1.5-3.6
	c1.8-0.5,3.8-0.6,4.7,1.6c0.7,1.8,1.6,3.6,0.7,6.2c5.3-1.6,9.9-3.8,15.2-2.1c1.3,0.4,4.7,0.6,3.4-3.4c-0.3-0.8,1.9-2.1,3.3-2.4
	c1.2-0.2,3-0.6,3.4,1.1c0.8,3.9,3.5,2.5,5.8,2.4c6.1-0.4,11.8-2.6,17.7-4.1c2.2-0.6,4.2-3.1,6.8-1.5c2.4,1.4,5,1.2,7.2-0.1
	c3.2-1.9,6.6-1.6,10-2.1c2.9-0.4,7.4,0.6,8.6-2.4c1.5-3.7,4.3-4.8,6.9-7c4.1-3.5,8.5-3.2,13.4-3.1c5.5,0.1,9.5,7.9,15.7,2.9
	c4.1,3,8.6,0.1,12.9,0.7c1.8,0.2,5.1,0.9,3.8-3.3c-0.3-1.1,1.5-1.8,2.1-1.2c2.7,3,5.7,1.1,8.4,0.6c6.9-1.4,14.2-0.2,20.9-2.9
	c2.2-0.9,4.1-1.6,1.9-4c-4-4.3,3.9-2.6,2.6-5.4c3.1-1,2.1,1.6,2.4,2.9c0.4,1.5,1.1,2.5,2.7,2.3c1.3-0.2,1.4-1.4,1.2-2.3
	c-0.5-2.4-0.5-4.8,2.3-5.1c2.6-0.3,4.2,1.9,4.7,4.3c0.4,2.1,1.2,3.5,3.5,3.3c3.3-0.3,6.7-0.4,9.8-1.3c2-0.6,4.4-1.7,5-4.4
	c1.1-5.5,3-10.9,1.6-16.5c-0.8-3.1,0.5-5.9,0.7-8.8c0.1-1.5,1.3-3.2,3.6-3.5c2.7-0.3,2.9,1.7,3.7,3.2c2.9,5.9,3.1,12.4,3.3,18.8
	c0.1,1.4-0.9,3.7,2.3,2.9c6.4-1.5,9.3-5.1,9.4-12c0.8-0.7,2.3-0.7,2.7-2.2C506.3,546.6,504.3,546.5,502.6,548.8z M941.2,328.1
	c1.3-1.8,0.5-4.5,2.7-5.9c0.9-0.6,2.7-1.3,0.8-2.3c-2-1-1.2-5.8-4.5-4c-3.6,2-3.2-0.5-4.1-2.3c-1.2-2.6-2.9-4.9-6.5-3.9
	c-0.5-1.8,2.5-4.1,0.7-4.9c-3.3-1.3-4-6.5-9.1-5.1c-3.4,0.9-4.9-1.9-3.2-5.1c0.2-0.4,0.7-1,0.5-1.2c-0.6-1.1-1.9-2.3,0.4-3
	c1.9-0.6,2.5,1.3,2.6,2.3c0.2,4.6,7.4,2.8,6.8,7.8c3.5,0.1,7.1,1.1,10.3-0.5c2.3-1.2,4.2-3.6,0.2-5.4c-3.7-1.7-2.9-5.3-2-7.5
	c2-5,5.1-2.6,7.5,0.4c0.4-0.7,0.8-1,0.8-1.2c-0.1-7.5-4.6-14.2-4.2-21.8c0-0.5-1-1.2-1.7-1.6c-0.8-0.4-1.6-0.7-1-1.8
	c2-4,1.3-7.8,0.3-12.1c-1.8-7.8-1.6-16.1-4.2-23.9c-0.8-2.3-1.2-4.7-5-3.8c-2.1,0.5-5.5,0-5.7-3.3c-0.2-3.2,3.3-4.3,5.3-3.9
	c4.8,0.8,3.8-1.9,3-4.2c-3.5-10.2-2.1-21.3-6-31.7c-1.8-4.9-1.5-11.4-2.8-17c-1-4.3,1-11.6-7.5-11.7c-1.6,0-2.1-2-2-3.5
	c0.1-1.5,1.2-1.3,2.5-1.6c4.2-0.7,5.6-3.3,3.4-7.2c-1.8-3.1-1.9-6.2-2.1-9.5c-0.2-3.3-0.3-6.8-1.5-9.8c-4.6-11.7-3.6-24.3-6.4-36.2
	c-1.8-7.5-1.2-15.9-4.3-22.8c-4.3-10-3.5-20.4-5.6-30.5c-1.8-8.3-1.3-17.2-5.3-25.8c-1.1,3.5-2.4,5.6-5.8,2.6
	c-1-0.9-3.3-0.7-4.8-0.3c-9.4,2.5-19.2,1.8-28.6,4.5c-10.6,3.1-21.7,4.4-32.5,5.7c-13.2,1.7-26.2,4.5-39.3,6.5
	c-9.7,1.5-19.4,3.7-29.1,5.8c-8.9,1.9-18.2,3.2-27.4,4.1c-8.2,0.8-15.8,3.6-23.9,4.7c-5.3,0.7-11.5,0.2-16,4.2
	c-4.5,3.9-8.1,8.8-13.5,11.7c-1.4,0.7-2.7,2.3-0.6,3.9c1.5,1.2,3,4.2,5.1,1.3c3.8-5.1,8.3-4.1,13.2-2.6c1.9,0.6,4.3,0.5,4.2,3.2
	c-0.1,2.6-2.4,3.9-4.6,4.7c-1.3,0.5-3,0.2-4.5,0.2c-3,0-5.6,0.6-5.7,4.3c-0.1,2.2-1.3,2.9-3.3,2.3c-1.2-2.5,2-4.3,0.9-6.9
	c-0.7-1.9-1.6-2.8-3.5-2.5c-1.9,0.3-2.7,2.2-1.7,3.2c1.6,1.6,0.9,3.8,0.9,5c0.2,4.4,1.9,2,3.4,1.2c0.4,1.8-0.4,3.1-2.2,3.1
	c-1.8-0.1-3.5-1-4.3-2.9c-0.9-2.3-1.3-4.8-1.2-7.3c0.1-1.5-0.5-3.1-2.2-1.8c-2.6,1.9-6.6,3.4-7.8,5.1c-2.4,3.6-6,4.9-8.7,7.4
	c-4.6,4.4-6.3,1.7-8.6-1.8c-1-1.4-2-3.4-4.1-3c-2.6,0.4-5.2,5.5-4.6,8.5c-2.2,0-3.5-1.5-4.8-3.1c-1-1.3-2.1-2.6-3.9-2.8
	c-6.5-0.6-13.1-1.7-17.3,5.4c-0.8,1.4-2.3,2.4-3.5,3.6c-2.7,2.7-3.3,12.4-1.2,15.4c0.8,1,1.8,1.4,2.9,1.7c3.4,1,6.6,0.9,9.8-1.1
	c1.1-0.7,2-1,1.9-2.4c-0.1-1.3-1.1-1.5-2.1-1.7c-2-0.4-3.8-1.1-4.9-3.1c-1.9-3.4-0.5-8.7,3-10.4c3.2-1.5,7.7,0.5,9.5,4.1
	c0.7,1.4-0.1,4,2.1,4.1c3.5,0.2,7.2,1.3,10.2-2c3-3.3-1-4.5-1.6-6.7c-0.1-0.3-0.1-0.7-0.1-1c2.9,0.3,4.1,2.5,5.3,4.7
	c2.1,4-2,6.5-2.9,10c3.8,0.2,7.2,0.3,10.7-0.3c4.1-0.6,8.4-3.1,11.7-2.8c7.4,0.9,14.4-1.2,21.1-2.5c5.6-1.1,11.5-2.2,17.2-3.3
	c6.6-1.3,13.2-3,20.1-3c3.4,0,8.5,0.6,10-1.3c4.3-5.4,11.9,0.4,15.5-5.5c3.7,2.2,7.5,0.4,11.2-0.1c10.9-1.7,21.9-3.6,32.8-5.4
	c4.7-0.8,9.2-4.4,13.9-3.1c7.3,2,13.1-7.1,20.3-2.1c5.4-2.8,11.9-1.9,17.3-4c5.5-2.2,10.9-2.4,16.5-2.4c4.1,0,10.8,6.7,9.5,9.7
	c-1.7,3.8-1.4,7.5-1.4,11.3c0,9.3,0.5,10,9.2,11.6c-0.7,2-1.8,3.5-4.2,3.4c-2.4-0.1-3.4,0.7-2.2,3.3c2.2,4.8,3.3,10.3,3.7,15
	c0.7,8,3.8,15.5,4,23.4c0.2,11.8,4,23.1,5.9,34.6c0.6,3.6,1.4,8.6,7.2,8.7c1.7,0,2,1.8,0.8,2.4c-5.4,2.4-4.9,6.6-4.3,11.2
	c0.5,3.5-0.5,7.1,2.6,10.1c1.2,1.2,1.6,4.2,1.1,6.2c-1.1,4.4-0.1,8.7,0.9,12.7c2.8,10.6,3.2,21.6,5.5,32.2c0.8,3.9,1.7,8,3.6,11.3
	c1.2,2,4.7,0.5,7.1,0.8c0.9,0.1,1.7,0.2,1.9,1.2c0.1,0.4-0.3,0.8-0.5,1.2c-2-1.4-2.9,2-4.5,1.1c-0.6-0.3-0.3-2.1-1.8-1.3
	c-1.3,0.7-1,2-0.6,3.1c0.7,2,1.8,3.6,4.2,3.7c1.2,0.1,1.6,1.1,1.4,2.2c-0.3,1.8-1.5,0.6-2.3,0.6c-0.8,0-1.5-0.8-2.5,0
	c0.7,4.3-0.3,8.7,1.1,13.4c1.6,5.5,3.8,11.2,3,17.3c-0.3,2.3,0.7,5,3.8,6.2c1.4,0.5,4.1,2.5,0.4,4.6c-1.8,1-1.7,3.4-1.4,5.5
	c1,7,4.9,13.4,4.3,20.8c-0.6,7.6,3.7,14.4,3.5,21.9c-0.1,2.9,1.6,3.3,3.8,3.2c1.7-0.1,3.5,0,4,2.1c0.4,1.7,0.4,3.4-1.1,4.6
	c-4.6,3.5-3.1,8.2-2.8,12.9c0.5,6.1,3.2,11.7,3.3,17.9c0.1,5.9,0.7,12.1,2.6,17.5c2,5.8,2.5,11.6,3.1,17.5c0.5,4.7-1.7,6.5-6.4,6.5
	c-4.8,0-10.1-0.3-14.1,1.7c-4.4,2.3-8.9,2.8-13.3,3c-9.8,0.4-19.1,4.1-28.9,4.3c-3.8,6-9.6,2.4-14.5,3c-3.2,0.4-6.3,2.4-9.5,2.7
	c-11.1,1.2-22.1,2.5-33.2,4.9c-14.3,3-28.8,5.1-43.3,7.1c-8.7,1.2-17,4.5-25.8,4.2c-2.4-0.1-3.4,0.9-2,3.6c1.7,3.1,4.9,4.2,7.3,6.3
	c0.6,0.5,2.3-0.4,1.9,1.4c-0.2,0.8-0.7,1.6-1.3,2c-1.2,0.8-1.7-0.4-2.3-1.1c-2.5-3.6-8.2-4.1-9-9.4c-0.2-1-1.7-0.8-2.7-0.8
	c-3,0.1-5.9,0-8.9,0.7c-10.1,2.3-19.9,6.3-30.5,6.3c-6.4,0-12.8,0.4-18.9,3.2c-1.9,0.9-4.2,1.9-6.2,1.6c-9-1.3-17.1,3.2-25.9,3.6
	c-13.1,0.5-25.2,7.1-38.6,7.1c-9.5-0.1-18.1,4.3-27.5,5.2c-2.3,0.2-4.8-0.3-7.3,1c1.7,2,3.5,1,5,1.3c1.6,0.4,3.2,0.9,2,2.9
	c-1.2,1.9-3.2,3.2-5.5,2.8c-1.9-0.3-4.6-0.2-4.7-3.3c0-1.9-0.8-3.7-2.8-3.3c-2.2,0.4-5.5-0.4-6.3,2.8c-1.2,4.6-4.2,7-8.3,8.4
	c-3.4,1.1-3.1,5-5.4,7c-0.3,0.3,1.1,2.4,1.5,3.6c0.4,1.1,0.6,2.2,0.9,3.5c-3.5-0.5-6.6,0.9-9.9,0c-1.4-0.4-4.5,0.4-3.7,3.3
	c1,3.8-0.2,5-3.9,4.2c-1-0.2-2.1,0.2-2.1,1.5c0,1.1,0.8,1.1,1.8,1c2-0.3,4.1-0.2,4.9,2.1c0.4,1.2,0.6,2.9-0.6,3.7
	c-1.7,1.1-3.4-0.1-5.2-0.4c-3.5-0.6-7.8-0.7-10.2,1.3c-2.4,1.9-4.1,4.9-6.9,6.8c-1.6,1.1-1.1,2.6-0.8,4c0.3,1.5,1.2,1.9,2.5,1.7
	c8.1-1.3,16.1-2.6,24.2-4.1c0.7-0.1,1.5-0.8,1.9-1.4c3.7-5.5,5.6-6.1,10.7-2c2.2,1.8,5.2,2.3,6.3,1.2c2.8-2.8,5.8-1.2,8.7-1.8
	c19.9-4.2,40.2-6,59.9-10.9c2.3-0.6,4.6-0.7,6.9-1.1c2.7-0.4,5.9,0.3,7.3-3.7c0.9-2.5,7.1-2.9,8.1-0.6c1.2,2.6,2.5,2,4.3,1.4
	c6.9-2.3,14.2-3.2,21.2-4.5c9.3-1.7,18.8-2.6,28.2-4.2c11.5-1.9,22.9-5.2,34.6-6c7.2-0.4,13.7-3.8,20.8-4.3c9.5-0.6,18.7-3.3,28-5
	c6.1-1.1,12.2-2.5,18.4-2.9c10.3-0.8,20.5-2.3,30.4-4.7c9-2.2,18.1-3.7,27.1-5c13.8-2,27.3-5.1,41-7.3c10.4-1.7,20.9-2.9,31.2-5.3
	c7.5-1.8,15-2.6,21.6-7.5c-2.1,4.5,1,4.1,3.3,3.6c7.7-1.8,15.6-2.9,23.5-3.9c4.5-0.5,5.1-2.5,4.1-6.9c-1.4-5.6-5.6-8.8-9.2-12.6
	c-1.8-1.9-3.6-3.5-3.2-6.8c0.2-2.3-1.7-5.5-4.6-4.4c-2.9,1.2-5.7,0.5-8.4,1.1c-2.9,0.7-4.5,0.5-4.7-2.9c-0.2-3.1,0.6-5.3,4.1-5.4
	c2.3-0.1,4.6,0.2,6.9,0.7c5.8,1.3,10.7-3.1,11.1-9c0.3-4.6-2-8.7-2-13.4c0-6.8-2.1-13.4-3.6-20.1c-1.5-6.9-2-14.1-3.4-21.2
	c-3.1-16.2-5.5-32.6-8.2-48.9c-0.2-1.4-0.9-3.4-2.1-2.7c-5,3-9.1-1.6-13.7-1.1c3.7-1.8,8-0.2,11.8-1.5
	C946.9,331.2,944.3,327.3,941.2,328.1z M491.1,557.3c0.5-4.7-0.4-9.2-1.7-13.7c-0.4-1.5-0.7-3.8-2.7-3.6c-1.8,0.2-1.3,2.4-1.5,3.8
	c-0.4,2.5-0.4,4.9-0.1,7.4c0.4,4.7,1.2,9.3,0.3,14c-0.3,1.4-2.1,3.3,0.5,4.1c2.1,0.7,3.4-0.2,4.6-2.5
	C492.2,563.5,490.9,560.4,491.1,557.3z M977.8,465.1c-2.8-2.9-1.1-7-1.9-10.6c-0.4-1.8-1.2-3.4-1.9-5.1c-0.5-1.1-1.3-2-2.7-1.7
	c-1.4,0.2-2.4,1.2-2.8,2.5c-1.5,4.3,2.4,14,6.5,16.5c0.7,0.5,1.5,0.9,2.3,0.4C977.9,466.7,978,466.1,977.8,465.1z M943.6,299.5
	c-2.6-0.1-2.5,1.7-2.5,3.4c0.1,4.3-0.8,8.7,3.9,11.7c0.9,0.6,1.4,2.2,2.9,1.6c1.9-0.7,0.8-2.1,0.5-3.3c-0.8-3.2-3.2-6-1.3-9.8
	C947.9,301.5,946,299.5,943.6,299.5z M693.4,57.9c-3.8-2.7-7.4-3.4-11.4-2.1c-1.2,0.4-2.2,1.3-2.2,2.4c0,1.4,1.5,1.8,2.5,2
	C686,60.8,689.8,60.8,693.4,57.9z M954.9,452.5c1.9-0.4,4.9,0.5,5.3-2.1c0.3-1.8-2.3-1.8-3.9-1.8c-2,0-4.4,0.1-4.5,2.6
	C951.6,453.1,953.7,452.1,954.9,452.5z M430.8,540.7c2,0,4.4,0.1,4.3-1.7c-0.1-2.1-2.6-1.4-4.2-1.4c-1.1,0-2.9-1.1-2.9,1.3
	C428,541.3,429.9,540.5,430.8,540.7z M549.8,515c-2.1-1.8-4-2.6-6.1-1.8c-0.7,0.3-1,1.2-0.1,2C545.5,516.9,547.3,516.6,549.8,515z
	 M57.7,413.7c1-0.2,2.2-0.1,2.3-1.4c0.1-1.4-1.1-1.4-2.1-1.3c-1,0.1-2.2,0.3-2.3,1.5C55.5,414,56.9,413.5,57.7,413.7z M102.5,575.8
	c1.6-0.4,1.1,3.8,3.5,1.5c0.5-0.5,1.6-1.3,0.9-2C105.6,574.2,104.1,574.6,102.5,575.8z M924.9,218.6c2.7,1.1,4.3,0.3,6.3-1.6
	C928.7,216.6,926.9,216.5,924.9,218.6z M517.6,546.4c-0.4,0.4-0.9,0.7-0.9,1c0,0.3,0.5,0.8,0.9,0.8c0.6,0.1,1.4-0.2,1.1-1
	C518.6,546.9,518,546.7,517.6,546.4z M67.9,266.2c-0.3-0.1-0.6-0.2-0.8-0.4c-0.1,0.3-0.4,0.6-0.3,0.8c0.1,0.2,0.5,0.3,0.8,0.4
	C67.6,266.8,67.8,266.5,67.9,266.2z M20.3,259.9c-0.2,0.2-0.8,0.4-0.8,0.7c-0.1,0.8,0.6,1,1.3,0.8c0.4-0.1,1.1-0.4,1.1-0.7
	C21.8,260.1,21.2,259.9,20.3,259.9z"/>
<path class="st1" d="M676.9,69.3c2,0.6,3.2-0.1,3.3-2.3c0.1-3.8,2.7-4.3,5.7-4.3c1.5,0,3.1,0.3,4.5-0.2c2.2-0.8,4.4-2,4.6-4.7
	c0.1-2.7-2.3-2.7-4.2-3.2c-4.9-1.5-9.4-2.5-13.2,2.6c-2.1,2.9-3.5-0.1-5.1-1.3c-2.1-1.7-0.7-3.2,0.6-3.9c5.4-2.9,9-7.8,13.5-11.7
	c4.5-3.9,10.7-3.5,16-4.2c8.1-1,15.7-3.9,23.9-4.7c9.2-0.9,18.5-2.1,27.4-4.1c9.7-2.1,19.4-4.3,29.1-5.8c13.1-2,26.1-4.9,39.3-6.5
	c10.8-1.3,21.9-2.7,32.5-5.7c9.4-2.7,19.2-2,28.6-4.5c1.5-0.4,3.9-0.6,4.8,0.3c3.4,3,4.7,0.9,5.8-2.6c4,8.7,3.5,17.5,5.3,25.8
	c2.2,10.1,1.3,20.6,5.6,30.5c3,6.9,2.5,15.3,4.3,22.8c2.8,12,1.8,24.5,6.4,36.2c1.2,3,1.3,6.5,1.5,9.8c0.2,3.3,0.3,6.4,2.1,9.5
	c2.3,3.9,0.8,6.5-3.4,7.2c-1.3,0.2-2.4,0.1-2.5,1.6c-0.1,1.5,0.4,3.5,2,3.5c8.5,0.1,6.5,7.4,7.5,11.7c1.3,5.6,0.9,12.1,2.8,17
	c3.9,10.4,2.5,21.4,6,31.7c0.8,2.3,1.9,5-3,4.2c-2-0.3-5.5,0.7-5.3,3.9c0.2,3.3,3.6,3.8,5.7,3.3c3.8-0.9,4.2,1.5,5,3.8
	c2.6,7.8,2.4,16,4.2,23.9c1,4.3,1.7,8.1-0.3,12.1c-0.5,1.1,0.2,1.4,1,1.8c0.7,0.4,1.7,1.1,1.7,1.6c-0.4,7.6,4.1,14.3,4.2,21.8
	c0,0.3-0.3,0.5-0.8,1.2c-2.4-2.9-5.5-5.4-7.5-0.4c-0.9,2.1-1.6,5.7,2,7.5c4,1.9,2.1,4.3-0.2,5.4c-3.2,1.6-6.8,0.6-10.3,0.5
	c0.6-5.1-6.6-3.3-6.8-7.8c0-1-0.7-2.9-2.6-2.3c-2.3,0.7-0.9,1.9-0.4,3c0.1,0.3-0.3,0.8-0.5,1.2c-1.6,3.3-0.2,6,3.2,5.1
	c5.1-1.3,5.9,3.8,9.1,5.1c1.8,0.7-1.2,3.1-0.7,4.9c3.5-0.9,5.2,1.3,6.5,3.9c0.9,1.8,0.5,4.3,4.1,2.3c3.3-1.9,2.5,2.9,4.5,4
	c1.9,1,0.1,1.7-0.8,2.3c-2.2,1.4-1.3,4.1-2.7,5.9c-1,0.9-3.5,0.2-2.9,2.8c4.6-0.5,8.7,4.1,13.7,1.1c1.2-0.7,1.8,1.3,2.1,2.7
	c2.7,16.3,5.1,32.7,8.2,48.9c1.4,7.1,1.9,14.4,3.4,21.2c1.5,6.7,3.6,13.3,3.6,20.1c0,4.7,2.2,8.8,2,13.4c-0.3,5.9-5.3,10.2-11.1,9
	c-2.3-0.5-4.6-0.8-6.9-0.7c-3.5,0.1-4.4,2.3-4.1,5.4c0.3,3.3,1.8,3.5,4.7,2.9c2.7-0.6,5.5,0.1,8.4-1.1c2.8-1.1,4.8,2.1,4.6,4.4
	c-0.3,3.3,1.4,4.9,3.2,6.8c3.6,3.8,7.9,7,9.2,12.6c1.1,4.4,0.4,6.4-4.1,6.9c-7.9,1-15.7,2.1-23.5,3.9c-2.3,0.5-5.4,1-3.3-3.6
	c-6.6,4.8-14.1,5.7-21.6,7.5c-10.3,2.5-20.8,3.7-31.2,5.3c-13.7,2.2-27.2,5.3-41,7.3c-9,1.3-18.1,2.8-27.1,5
	c-9.9,2.4-20.1,4-30.4,4.7c-6.2,0.5-12.3,1.8-18.4,2.9c-9.3,1.7-18.5,4.4-28,5c-7.1,0.4-13.7,3.8-20.8,4.3c-11.7,0.7-23,4.1-34.6,6
	c-9.4,1.5-18.9,2.5-28.2,4.2c-7,1.3-14.3,2.2-21.2,4.5c-1.7,0.6-3.1,1.3-4.3-1.4c-1-2.2-7.2-1.9-8.1,0.6c-1.4,3.9-4.6,3.3-7.3,3.7
	c-2.3,0.4-4.6,0.5-6.9,1.1c-19.7,4.9-40.1,6.7-59.9,10.9c-2.8,0.6-5.9-1-8.7,1.8c-1.1,1.2-4.1,0.6-6.3-1.2c-5.1-4.1-7-3.6-10.7,2
	c-0.4,0.6-1.2,1.3-1.9,1.4c-8.1,1.4-16.1,2.7-24.2,4.1c-1.3,0.2-2.3-0.2-2.5-1.7c-0.2-1.5-0.8-3,0.8-4c2.8-1.8,4.6-4.8,6.9-6.8
	c2.4-2,6.7-1.9,10.2-1.3c1.8,0.3,3.5,1.5,5.2,0.4c1.2-0.8,1-2.5,0.6-3.7c-0.8-2.3-2.8-2.4-4.9-2.1c-1,0.1-1.7,0.1-1.8-1
	c0-1.4,1.1-1.7,2.1-1.5c3.7,0.7,4.9-0.5,3.9-4.2c-0.8-3,2.2-3.7,3.7-3.3c3.4,0.9,6.5-0.5,9.9,0c-0.3-1.4-0.5-2.5-0.9-3.5
	c-0.5-1.3-1.9-3.4-1.5-3.6c2.2-2,1.9-5.8,5.4-7c4.1-1.4,7.2-3.8,8.3-8.4c0.8-3.1,4.1-2.4,6.3-2.8c2-0.4,2.7,1.4,2.8,3.3
	c0.1,3.1,2.8,3,4.7,3.3c2.3,0.3,4.3-0.9,5.5-2.8c1.2-2-0.4-2.5-2-2.9c-1.5-0.3-3.3,0.6-5-1.3c2.4-1.3,5-0.8,7.3-1
	c9.3-0.9,18-5.3,27.5-5.2c13.3,0.1,25.4-6.5,38.6-7.1c8.8-0.4,16.9-4.9,25.9-3.6c1.9,0.3,4.2-0.8,6.2-1.6c6-2.8,12.5-3.1,18.9-3.2
	c10.6,0,20.4-4,30.5-6.3c3-0.7,5.9-0.6,8.9-0.7c1,0,2.5-0.2,2.7,0.8c0.8,5.4,6.6,5.8,9,9.4c0.5,0.8,1.1,2,2.3,1.1
	c0.6-0.4,1.1-1.3,1.3-2c0.3-1.7-1.3-0.9-1.9-1.4c-2.4-2.1-5.6-3.2-7.3-6.3c-1.5-2.7-0.4-3.6,2-3.6c8.9,0.2,17.2-3,25.8-4.2
	c14.5-2.1,29-4.1,43.3-7.1c11-2.4,22.1-3.6,33.2-4.9c3.2-0.4,6.3-2.3,9.5-2.7c4.9-0.7,10.7,2.9,14.5-3c9.8-0.2,19.1-3.9,28.9-4.3
	c4.4-0.2,8.9-0.7,13.3-3c4-2,9.4-1.7,14.1-1.7c4.7,0,6.9-1.8,6.4-6.5c-0.6-5.9-1.1-11.7-3.1-17.5c-1.9-5.5-2.5-11.7-2.6-17.5
	c-0.1-6.3-2.9-11.8-3.3-17.9c-0.4-4.6-1.8-9.3,2.8-12.9c1.5-1.1,1.6-2.9,1.1-4.6c-0.5-2.1-2.3-2.1-4-2.1c-2.3,0.1-3.9-0.3-3.8-3.2
	c0.2-7.5-4-14.4-3.5-21.9c0.6-7.4-3.3-13.8-4.3-20.8c-0.3-2.1-0.4-4.5,1.4-5.5c3.7-2.2,1-4.1-0.4-4.6c-3.1-1.2-4.1-3.9-3.8-6.2
	c0.7-6.2-1.4-11.9-3-17.3c-1.4-4.7-0.4-9-1.1-13.4c0.9-0.8,1.7,0,2.5,0c0.8,0,2,1.2,2.3-0.6c0.2-1.1-0.2-2.1-1.4-2.2
	c-2.4-0.2-3.5-1.8-4.2-3.7c-0.4-1.1-0.7-2.4,0.6-3.1c1.5-0.8,1.3,1,1.8,1.3c1.6,0.9,2.5-2.5,4.5-1.1c0.2-0.4,0.6-0.9,0.5-1.2
	c-0.2-1-1-1.1-1.9-1.2c-2.4-0.3-5.9,1.2-7.1-0.8c-1.9-3.3-2.8-7.4-3.6-11.3c-2.3-10.6-2.7-21.6-5.5-32.2c-1-4-2-8.3-0.9-12.7
	c0.5-1.9,0.1-4.9-1.1-6.2c-3.1-3.1-2.1-6.6-2.6-10.1c-0.6-4.6-1.1-8.8,4.3-11.2c1.2-0.5,0.9-2.3-0.8-2.4c-5.8-0.2-6.6-5.1-7.2-8.7
	c-1.9-11.5-5.6-22.8-5.9-34.6c-0.2-8-3.3-15.4-4-23.4c-0.4-4.7-1.5-10.3-3.7-15c-1.2-2.6-0.3-3.4,2.2-3.3c2.5,0.1,3.5-1.3,4.2-3.4
	c-8.7-1.7-9.2-2.3-9.2-11.6c0-3.8-0.3-7.5,1.4-11.3c1.3-3-5.4-9.7-9.5-9.7c-5.6-0.1-11,0.2-16.5,2.4c-5.4,2.1-11.8,1.2-17.3,4
	c-7.3-5-13.1,4.1-20.3,2.1c-4.7-1.3-9.2,2.3-13.9,3.1c-10.9,1.8-21.8,3.7-32.8,5.4c-3.7,0.6-7.5,2.3-11.2,0.1
	c-3.5,5.9-11.1,0.1-15.5,5.5c-1.5,1.9-6.6,1.4-10,1.3c-6.9,0-13.5,1.7-20.1,3c-5.7,1.1-11.6,2.3-17.2,3.3
	c-6.7,1.3-13.7,3.3-21.1,2.5c-3.3-0.4-7.6,2.1-11.7,2.8c-3.5,0.6-6.9,0.4-10.7,0.3c0.9-3.6,5-6,2.9-10c-1.2-2.2-2.4-4.4-5.3-4.7
	l-0.1-0.1c-0.6-3,2-8.1,4.6-8.5c2.2-0.4,3.2,1.6,4.1,3c2.3,3.5,4,6.2,8.6,1.8c2.7-2.6,6.3-3.8,8.7-7.4c1.1-1.7,5.2-3.2,7.8-5.1
	c1.8-1.3,2.3,0.3,2.2,1.8c-0.1,2.5,0.2,5,1.2,7.3c0.8,1.9,2.5,2.8,4.3,2.9C676.5,72.4,677.3,71.1,676.9,69.3L676.9,69.3z
	 M740.9,64.1c7.8-0.9,14.5-3.4,21.1-6.1C754.2,56.3,746.5,54.8,740.9,64.1z M894.6,454.2c-2,0.9-4.5,0.5-4.8,2.5
	c-0.2,1.2,0.1,4.5,1.5,4.1c4.6-1.2,8.4,0.8,12.5,1.6c1.6,0.3,2.9-0.5,3.2-2.3c0.3-1.9-0.9-3-2.4-3.2
	C901.1,456.3,897.1,457.8,894.6,454.2z M566.1,524.2c-0.4-2-1.5-3.8-3.9-3.5c-1.7,0.2-4.6,1.4-3.6,3.1c0.9,1.7-0.1,5.1,1.7,4.6
	C562.3,527.9,566,528.2,566.1,524.2z M554,532.3c2.3,0.2,4.2,3,6.6,0.8c0.3-0.3,0.4-1.5,0.1-1.8C558.4,529.1,556.3,532.1,554,532.3z
	 M854.8,51.4c-0.2-0.9-0.7-1.5-1.6-1.5c-1.2,0-1.8,0.9-1.6,2c0.1,0.8,0.9,1.5,1.8,1.3C854.2,53,854.8,52.4,854.8,51.4z M535.1,552.4
	c-1.8-1.2-3-1.2-4.8,0C532.1,553.6,533.3,553.6,535.1,552.4z M694.2,40.9c-1.2,0.5-2.1-2-3.7,0.1C691.9,41.5,693,41.8,694.2,40.9z"
	/>
<path class="st1" d="M53.4,199.6c-3.5,2.6-0.5,5.5,0.7,6.7c5.1,5.3,5.6,12.1,7,18.5c1.9,9,1.3,18.3,4.7,27.2
	c2.2,5.8,1,11.7-6.2,13.9c0.4,0.8,0.4,1.2,0.6,1.3c9.8,3.8,12,8.5,8.6,18.7c-0.3,0.8-1.7,2-0.2,2.3c4.3,0.9,3.7,4.2,3.8,7.1
	c0.3,7.4,2.8,14.5,3.5,21.8c0.2,2.2,2.8,4.9-0.8,7c-0.7,0.4,0.3,2.2,1.2,2.9c2.3,1.5,3.4,4.2,3.5,6.3c0.3,5.7,1.5,11.1,2.4,16.6
	c1.5,9.4,2.8,18.8,5.1,28c1.9,7.2,0.9,14.9,3.5,22c0.1,0.2,0,0.7-0.2,0.9c-1.4,1.6-1.3,1.6-0.3,3.6c0.8,1.6,1.4,3.4,2,5.1
	c1.2,3.1,4.3,7.1-3.1,5.2c-0.9-0.2-1.7,0.9-2.1,1.9c-0.8,0.9-1.4,1.8,0,2.8c0.2,2.5,2.3,1.7,3.8,2.2c2.6,0.8,4.8,1.9,5.3,5.1
	c1.3,8.6,3.5,17.1,4.3,25.8c1.4,13.5,5.6,26.5,6.5,40c0.1,1.2,0.2,2.7-1.3,2.7c-3.9,0.1-2.4,4-4.1,5.7c-0.6,0.6,0.1,1.6,0.9,2
	c0.8,0.5,1.6,0.5,2.3-0.2c0.9-0.8,0.9-2.6,3.1-2.9c2,10.5,6.4,20.5,5.5,31.7c-0.3,4.3,2.9,8.2,3.1,12.8c0.1,2.4,0.9,4.9,0.6,7.4
	c-0.5,5.7,3.5,10.3,3.7,15.9c0.2,5.6,1.2,11.2-0.6,16.7l-0.1,0.1c-0.3,0.3-0.6,0.6-0.9,0.9c0,0-0.1,0.1-0.1,0.1
	c-2.7,1.4-5,5.2-8.5,0.5c-1.4-1.9-2.8,1.2-4.9,2c1.1-3.6-0.9-6.6,2.2-10c3.5-3.7,3.4-9.4,3.1-14.6c-0.1-2.1-2-2.4-3.3-3.3
	c-1.2-0.5-2.4-1-3.6-1.5c-0.2-2.8-1.2-5.4-4.5-4.5c-2.4,0.7-5.3,1.6-6,4.7l-0.1,0.1c-2.1-0.5-4-0.2-5.2,1.8c0.4,2.6,4.9,1.9,4.2,5.3
	c-1.2,0.8-2.3,1.6-3.5,2.4c-2.5,1.7-0.8,2.4,0.7,3.2c0.2,1.2,0.9,2.1,1.9,2.7c-1,2.5-0.6,5.4-2.5,7.8c1.8,0.6,2.9,0.1,4-0.8
	c2.2-1.8,3.2-0.3,4.1,1.4c1.9,3.6,2.4,8.7,8.6,8c1-0.1,3.4,1.3,0.8,3.8c-2.3,2.2-3.6,5-7.4,5.4c-3.1,0.4-0.7,3.6-1.7,5.5
	c-0.8,1.4,1,1.6,2.2,1.8c0.6,0.1,1.8,0.3,1.8,0.5c0.6,6.3,6,3,9,4.3c1.6,0.7,2.7-0.7,2.6-2.6c-0.1-1.8-0.9-2.3-2.6-1.8
	c-2.1,0.6-4.8,0.2-4.7-1.8c0.1-2.1,0.7-5.2,3.2-6.3c2-0.9,4-0.7,4.4,2.2c0.1,1,1,1.2,1.8,1.4c3.2,0.7,4.6,3.2,6.5,5.6
	c1.9,2.4,1.2,7.6,6.6,6.9c0.8-0.1,0.9,1.6,1,2.6c0.5,3.1,2.4,4.5,5.4,4.9c1.3,0.2,3.5-0.4,3.2,2c-0.2,1.9-0.7,3.8-3.2,4.5
	c-4.9,1.2-9.9,0.5-14.8,1.6c-9,2-18.1,3.3-27.3,3.9c-3.8,0.2-6,0.8-6.8-4.6c-1.2-7.7-4.5-15.1-5-23c-0.3-4.6-2.9-9-2.4-13.3
	c0.9-7.3-3.1-13.2-3.8-19.8c-0.7-6.3-4-12.6-1-19.2c0.7-1.5,2.4-2,2.8-3.3c0.4-1.7-0.3-3.6-2.2-3.8c-4.3-0.5-4.2-3.3-4-6.4
	c0.2-2.7-0.5-5-1.7-7.5c-3.1-6.3-3.5-13.3-3.3-20.3c0.1-3.9-0.4-7.5-2.2-11.1c-1.8-3.6-1.7-7.9-2.6-11.8c-1.2-5.5-1.9-11-2.6-16.6
	c-0.4-3.1-0.5-3.9,2.9-3c3,0.8,4.9,0.2,3.5-3.7c-0.9-2.4,2.4-4.8,0.4-7.4c-0.8-0.4-1.1,0.3-1.6,0.8c-1.7,1.9-3.5,4.3-6.2,2.7
	c-2.9-1.8-2.6-5.4-1.6-7.9c1.3-3.1,0.3-4.9-0.8-7.7c-3.1-7.9-7.2-15.8-3.5-25c1.6-4,4.2-6,7.9-7.3c4.9-1.7,5.1-2.9,1.6-6.6
	c-2.7-2.9-6.2-2.2-8.7-0.9c-2.5,1.3,0.9,3.9,0.5,6.1c-3,0.9-4.1-1.3-4.8-3.5c-0.7-2.5-1.1-5.2-1.6-7.8c-2.6-13.3-5.6-26.4-6.9-39.9
	c-0.4-4.4-3.3-8.5-2.3-13.2c0-0.2-0.6-0.7-0.5-0.8c4.3-8-5-12.8-4.8-20.6c0.2-7.5-2.7-15.6-3.5-23.4c-1.2-10.5-5.7-20.2-6.2-30.7
	c-0.2-4.1-2.8-8.7,2.4-12.1c1.7-1.1,0.3-4.6-1.2-5c-6.7-1.8-4.3-7.7-5.6-11.8c-1.2-3.8-0.2-8-1.8-11.9c-0.9-2.1,1.5-3.9,2.8-5.5
	c2.6-3.2,2-6.4-1.7-8.4c-6.5-3.4-6.6-4.3-1.1-8.4c1.6-1.2,2-3.3-0.2-3.6c-6.1-0.8-5.7-5.6-6.1-9.5c-0.6-6.3-3.1-12.1-3.7-18.3
	c-0.2-2-1-4-0.5-6.2c0.6-2.6-0.8-4.7-2.1-7c-2.8-5.1-0.8-8.3,4.7-7.8c1.4,0.1,1.8-0.3,2.7-1.2c3.7-3.2,8.7-2.8,13.1-4
	c1.8-0.5,1.6,1.3,0.9,2.4c-1.7,2.7-0.1,3.1,2.2,3.8c6.7,1.9,13.2-1,19.8-0.6c3,0.2,0.6-2.5,0.7-3.8c0.2-2.4-2.5-3.2-4.3-6.1
	c7.6,1.6,13.6-1,19.8-2.7c11.4-3.3,23.2-3.7,34.9-5.4c12-1.7,23.9-4.8,35.8-7.3c3.1-0.6,6.1-1.1,9.1,0.9c1.7,1.1,4.1,1.2,5.7-0.1
	c6.7-5.3,14.4-5.5,22.5-6.6c7.1-1,14.8-1.6,21.7-4.7c3-1.3,6.7-3.2,8.4,2.2c0.4,1.2,2,1.9,3.4,1.6c1.5-0.3,3.1-0.9,3-2.8
	c-0.1-3.5,2-3.8,4.8-4.1c6.7-0.9,13.4-2.2,20.1-3.3c0.8-0.1,2-0.8,2.4-0.4c3.6,3,6.1,0.5,9.7-0.7c7.9-2.8,16.5-3.6,24.8-5.2
	c2.3-0.5,4.2-0.5,4.5,2.8c0.2,2.5,2.4,2.9,4.5,2.8c1.1-0.1,1.8-0.7,2.1-1.8c0.2-1-0.3-1.6-1.1-1.9c-1.1-0.4-2.6-0.7-2-2.3
	c0.5-1.4,2.1-0.5,3.1-0.9c5.8-2.8,13-0.4,18.5-4.7c0.7-0.5,1.9-0.3,2.9-0.3c7.8,0.1,15.3-2.1,22.9-3.5c3.1-0.6,6.2-1.2,9.3-1.1
	c5.8,0.3,10.1-4.9,16.1-3.5c1.7,0.4,3.4,0,2.7,2.7c-0.2,1,0.1,2,1.4,2.3c1.3,0.3,2.5-0.3,2.7-1.5c1.3-6.7,7.3-5.6,11.4-6.1
	c5.3-0.6,10.5-1.2,15.7-2.2c1.1-0.2,3.2-2.3,3.5,1.2c0.1,1.3,1.7,0.5,2-0.5c1.1-3.4,3.9-3.7,6.8-3.7c13.1-0.2,25.5-4.4,38.2-6.7
	c7.4-1.3,15.1-6,23.5-1.9c3.7,1.8,8.2-0.8,12-2c4-1.3,7.9-2.4,12-2.4c5.3,0,9.1-4.3,14.4-4.6c4.4-0.2,9.2-2.4,13-1.9
	c6.9,0.8,12-2.6,18-3.9c6.3-1.3,12.9-0.7,19.3-1.7c2.7-0.4,6.9-3,8,2.8c0.3,1.6,5.6,1.1,6.4-0.6c0.2-0.4,0.2-1-0.1-1.4
	c-0.6-0.9-1.5-0.7-2.1-0.1c-1.5,1.6-2.3,0.8-2.8-0.7c-0.7-1.8,0.7-1.7,1.8-2.1c10.1-2.8,20.5-4.2,30.9-6.1c9.3-1.7,18.5-3.3,28-3.9
	c3.4-0.2,5.8-4.8,10.2-2.1c-3.2,3.8-2,8.5-0.8,12.7c1.5,5.3-1.8,3.9-4,3.4c-5.5-1.1-9.8,0.8-12.9,5.4c-1.7,2.6-4.2,4.6-6.3,6.9
	c-2,2.2-4.3,3.9-4.1,7.5c0.1,2.3-3,2.8-3.9,5.2c-1.2,3.4-1.4,5.1,2.8,5c1.3,0,3.5-0.7,3.5,1.6c0.1,1.9-2,1.5-3.1,1.7
	c-4.5,0.7-8.9,1.9-13.2,3.4c-3.5,1.2-6.3-0.6-9.6-2c-1.9-0.9-3.4,5.8-8,4.5c-0.6-0.2-1.3,0.2-1.9,0.3c0,0,0-0.1,0-0.1
	c-4.4-2.4-9.8-1.9-12.8,1.4c-0.8,0.8-1.4,1.2-2.5,1.3c-5.4,0.3-10.5,1.7-15.7,2.9c-9.3,2.2-18.8,3.8-28.4,5.1
	c-8.2,1.1-16.2,3.8-24.5,4.8c-9.4,1.2-18.7,2.2-27.9,4.4c-2.6,0.6-5.1,1.8-7.9,1.8c-6.2-0.2-12.2,1.5-18.2,2.4
	c-12.9,1.8-25.4,5.5-38.4,6.9c-1.2,0.1-2.5,0.8-3.1-0.5c-2.5-5.2-9.2-5.3-11.9-10.3c-1.4,5.3,4.5,5.9,5.8,9.5
	c0.2,0.5,2.1,0.6,2.1,1.7c0,1.7-1.7,1.2-2.7,1.5c-7.2,2.4-15,1.4-22.3,3.8c-8.1,2.6-16.9,2.4-25.3,4.8c-4.7,1.3-9.9,0.9-14.8,1.2
	c-1.5,0.1-2.8,0.1-3.6-1.8c-0.8-2-6.4-2.2-7.6-0.5c-3.1,4.6-7.5,6.4-12.9,6.3c-1.5,0-3.3-0.3-4.4,0.4c-8.6,5-18.8,2.9-27.8,6.5
	c-7.4,2.9-15.5,0.6-23.5,3.5c-7.5,2.7-16.1,2.5-24.1,4.4c-7.1,1.7-14.6,2.7-22.1,1.3c-0.8-0.1-1.7,0-2.2,0.8
	c-3.4,5.3-8.7,4.5-13,2.7c-3.8-1.6-6-1.4-8.5,1.5c-0.8,0.9-1.7,2.5-3.2,1.3c-1.3-0.9-1.6-2.5-1.6-4c-0.1-1.7,1.1-2,2.2-2.8
	c1.4-0.9,3.1,0.6,4-0.2c-2.3-4.1-5.1-7.3-8.2-10.4c-1.2,2.6-3.4,5.3-3.4,8c0,4.8-4.9,6.8-5.1,11.1c-4-1.5-6.6,2.4-10.2,2.8
	c-6.4,0.8-13.2,1-19.1,3.3c-7.7,3-15.7,3.2-23.4,5.3c-2.8,0.8-5.9,0.9-8.8,1.2c-0.9,0.1-2.1,0.2-2.5-1c-0.4-1.4,0.7-1.6,1.6-2
	c1.2-0.5,2.3-1.3,1.5-2.6c-2-3.2-5.2-1.1-7.8-1.3c-1.8-0.1-2.4,0.7-1.7,2.9c0.6,1.9-0.6,4.3-2.1,5.6c-1.2,1.1-3.2,0.7-4.2-1.2
	c0.3-0.3,0.7-0.7,1-1c0.6-0.4,1.1-1,0.4-1.5c-1.5-1.1-2.3,0.2-3.2,1.1c-1.5,1.2-3,2.5-4.5,3.7c-3.1,3.3-8.3,1.2-11.5,4.5
	c0,0,0.1,0,0.1,0C54.9,195.8,53,196.5,53.4,199.6L53.4,199.6z M57.4,182.4c-3.1-1.8-5.3-0.5-7.3,1.9c-1.3,1.8-1.3,3.6,1,4.4
	c2.2,0.8,4.8,2.2,6.4-1.1C60.3,185.9,60.4,184.1,57.4,182.4z M58.2,360.4c2.4-0.6,5.7,1.9,7-2.2c0-0.2-0.1-0.4-0.1-0.6
	c1.6-1.2,0.6-2.6,0.3-4c-1.4-6.6-1.3-6.7-8-5.1c-3.3,0.8-6.2,2.8-9.8,2.8c-2.9,0.1-2.4,2.6-2.4,4.6c0,2.5,1.3,2.7,3.3,2
	c1.3-0.5,1.8,1.4,3.1,1.2l0,0.1c-0.7,4.2,2.9,3.2,4.8,3.8C58.7,363.6,58.1,361.5,58.2,360.4L58.2,360.4z M581.7,79.9
	c-1.4-0.1-2.9-0.1-4.3-0.2c-1.5,0.2-4.4-0.8-3,2.2c0.7,1.6,3.2,2.8,5.1,3.4c2.4,0.7,4-1.5,4.7-3.4C585.2,79.7,583.4,79.6,581.7,79.9
	z M80.7,542.9c0,0.8-0.3,1.5,0.4,2.1c0.5,1.3,3.2,2.2,0.7,4c-0.9,0.6-1.7,1.3-0.8,2.4c0.8,1,2.2,1.3,3.2,0.7c1.7-1,3.2-2.3,4.7-3.5
	c2.4-2,2.8-4.1,0.2-6.2C85.8,539.6,82.7,539.8,80.7,542.9z M189.6,137.6c-0.3-3.7-3,1.1-4.6-1c-1.4-1.9-2.5,1.1-2.3,1.6
	c1.1,3-1.5,4.1-2.8,5.7c-2.1,2.5-4.6,4.7-6.9,7.1c-0.8,0.8-2.1,1.9-0.6,2.8c3,1.8,6,4,10,2.4c3.4-1.4,4.3-3.1,1-5.5
	c-1.6-1.2-1.7-1.4-0.3-3.5C185.2,144,190.2,142.8,189.6,137.6z M533.9,90.5c-0.5-2.2-2.6-2.8-4.8-2.8c-3.1-0.1-7,5.2-6.5,8.8
	c0.3,2.1,1.9,3,4,3C528.9,99.5,533.9,93.7,533.9,90.5z M55.3,432.4c4.5,0.1,5.1-3.6,5.7-6c0.8-3.3-3.4-4.6-5.2-5
	c-3.4-0.8-1.4,3-2.2,4.6c-0.3,0.6-0.2,1.4-0.6,1.9C50.1,431.7,53.1,431.9,55.3,432.4z M85.4,423.2c-2.6-2.3-4.9-4.6-8-5.2
	c-1.3-0.2-3.1-2.8-4.1,0.7c-0.8,3,0.8,4.1,3,4.3C79.3,423.5,82.3,423.2,85.4,423.2z M109.9,622.5c-0.9-2.6-3.7-2.2-5.7-2.5
	c-2.7-0.4-2.9,2.7-3.4,4.3c-0.4,1.6,1.4,3.1,3.2,2.8C106.6,626.7,109.3,626.1,109.9,622.5z M89.3,595.5c0,1.9,0.4,4,2.8,3.6
	c1.6-0.3,4.9-0.6,4.4-1.7c-1-2-1.9-5.2-4.6-5.6C89.5,591.3,89.4,593.6,89.3,595.5z M61.9,320.9c-1.7-1.5-3.7-1.7-5.8-1.4
	c-1.6,0.2-2.4,1.1-2.1,2.6c0.3,1.5,1.7,1.4,2.8,1C58.4,322.3,60.5,322.5,61.9,320.9z M63.6,491.6c0.2,0.3,0.4,0.9,0.8,1
	c1.1,0.3,0.9-0.7,0.9-1.2c0-0.4-0.3-1.2-0.5-1.2C63.9,490.1,63.7,490.7,63.6,491.6z M51.2,162.2c0.3-0.1,0.7-0.2,0.7-0.3
	c0.1-0.2-0.1-0.6-0.3-0.8c-0.4-0.3-0.9-0.1-0.9,0.4C50.7,161.7,51,162,51.2,162.2z M88,537.8c-0.1,0.3-0.2,0.6-0.4,0.8
	c0.3,0.1,0.6,0.4,0.8,0.3c0.2-0.1,0.3-0.5,0.4-0.8C88.6,538.1,88.3,537.9,88,537.8z"/>
<path class="st1" d="M120.3,584.4c10.5,0.4,20.8-1.3,31-3.8c3.2-0.8,6.6-0.9,9.8-1.3c5.4-0.7,10.4-3.2,16.1-3.5
	c8.2-0.4,16-4.2,24.5-3.5c1.7,0.1,3.8-0.2,5.3-1.1c7-4.1,14.7-3,22.2-3.8c9.7-1.1,18.9-4.6,28.5-6c6.6-1,13.4-4.2,20.2-0.1
	c0.7,0.4,2.6,0.4,2.8,0c3.4-6.1,9.7-4.3,14.7-5.2c5.8-1,11.2-3.6,17.2-4c3.3-0.2,6.4-2.3,9.9-0.2c1.2,0.7,3.6-0.2,5.2-0.9
	c9.1-4,18.9-5,28.6-6.5c8.3-1.3,16.6-3.1,24.9-4.4c12.9-2,25.6-5.5,38.7-5.7c3.5-0.1,5.7,0.3,5.4,4.7c-0.2,3,1.4,4.9,5.2,5
	c2.3,0.1,4.4,3.1,6.4-0.8c0.9-1.8,1.4-3.2,0.5-5.1c-0.9-1.9-2.2-2.8-4.3-2.7c-0.8,0.1-1.7,0-2.5,0c-1,0-2.2-0.1-2.3-1.4
	c-0.1-1.7,1.4-1.6,2.5-1.6c10.8,0,20.7-4.9,31.5-5.9c13.4-1.2,26.3-6.1,40-6.4c4.7-0.1,9.3-3,14.4-3.1c2.2,0,4.2,0.1,6.2,0.8
	c1.6,0.5,3.7,2.9,4.2-1.1c4.4,1.2,6.6-3,10.1-3.9c0.8-0.2,5.6,5.7,5.4,6.5c-0.2,1.1-1.2,1.2-2,0.9c-4.1-1.1-5.4,1-5.7,4.6
	c0,0.5-0.1,1.2-0.4,1.4c-4.9,2.5-6.4,8.5-11.6,10.8c-1.9,0.8-4.4,1.1-4.5,4.4c-0.1,2.4-3.7,2.5-5,4.3c-2.3,3.1-3.3,0.4-5-0.8
	c-3-2.1-7.9-0.8-8.6,1.8c-0.9,3.1,0.9,2.5,2.6,2c0,0-0.1,0.1-0.1,0.1c0,0.9,0.5,1.2,1.4,1c0.7-0.1,1.4-0.2,2.1-0.2
	c-0.1,6.9-3.1,10.5-9.4,12c-3.2,0.8-2.3-1.6-2.3-2.9c-0.2-6.4-0.4-12.9-3.3-18.8c-0.7-1.5-1-3.5-3.7-3.2c-2.3,0.3-3.5,2-3.6,3.5
	c-0.3,2.9-1.5,5.7-0.7,8.8c1.4,5.6-0.5,11.1-1.6,16.5c-0.5,2.7-2.9,3.8-5,4.4c-3.1,0.9-6.5,1-9.8,1.3c-2.3,0.2-3.1-1.2-3.5-3.3
	c-0.5-2.4-2.1-4.6-4.7-4.3c-2.7,0.3-2.8,2.7-2.3,5.1c0.2,1,0.1,2.1-1.2,2.3c-1.6,0.2-2.3-0.8-2.7-2.3c-0.3-1.3,0.7-3.9-2.4-2.9
	c1.3,2.8-6.6,1.1-2.6,5.4c2.2,2.4,0.3,3.2-1.9,4c-6.8,2.7-14,1.5-20.9,2.9c-2.7,0.5-5.7,2.4-8.4-0.6c-0.5-0.6-2.4,0.1-2.1,1.2
	c1.3,4.2-2.1,3.6-3.8,3.3c-4.3-0.5-8.8,2.4-12.9-0.7c-6.2,5-10.2-2.8-15.7-2.9c-5-0.1-9.3-0.4-13.4,3.1c-2.5,2.2-5.4,3.3-6.9,7
	c-1.2,3-5.6,1.9-8.6,2.4c-3.4,0.5-6.8,0.2-10,2.1c-2.2,1.3-4.7,1.5-7.2,0.1c-2.7-1.6-4.6,0.9-6.8,1.5c-5.9,1.5-11.6,3.7-17.7,4.1
	c-2.4,0.2-5,1.5-5.8-2.4c-0.4-1.7-2.1-1.4-3.4-1.1c-1.5,0.3-3.6,1.5-3.3,2.4c1.3,3.9-2.1,3.8-3.4,3.4c-5.3-1.7-9.9,0.6-15.2,2.1
	c0.8-2.5,0-4.4-0.7-6.2c-0.9-2.2-2.9-2.1-4.7-1.6c-1.8,0.5-2.3,1.9-1.5,3.6c1.9,4-0.8,5.6-3.7,6.5c-3.4,1.1-7,2.1-10.7,1.5
	c-0.8-0.1-1.7-0.7-2.4-0.5c-4.9,1.9-7.9,1.7-7.3-5c0.3-3.4-3.4-1.5-5.1-1.9c-1.9-0.5-2.5,1.4-1.9,3c1,2.7,1.4,5.8-1.4,7.1
	c-2.3,1.1-5.4,3-8-0.7c-1.1-1.6-2.8-0.9-2.9,1.3c-0.1,2.4-1,3.9-3.5,3.8c-9.9-0.5-19.2,3.6-28.9,4.2c-12,0.8-23.3,5.3-35.5,5.5
	c-3.8,0.1-8.7-0.6-12.7,2c-1.5,1-3-0.1-3.3-1.8c-0.9-5.1-3.4-7.9-9.1-8c-2.9-0.1-2-3.9-1.9-5.7c0.1-2.5-0.1-3.3-2.7-3.1
	c-3.8,0.3-2.6-5.2-6.2-5.6c-1.3-0.1-2-2.7-4.1-0.8c-1,0.9-2.6-0.1-2.7-1.3c-0.1-4.8-3.3-9.7,0.5-14.3c0,0,0.1-0.1,0.1-0.1
	c0.3-0.3,0.6-0.6,0.9-0.9L120.3,584.4z"/>
<path class="st1" d="M633.2,76.6c0,0.3,0,0.7,0.1,1c0.6,2.2,4.6,3.5,1.6,6.7c-3,3.3-6.7,2.2-10.2,2c-2.2-0.1-1.4-2.7-2.1-4.1
	c-1.9-3.6-6.3-5.7-9.5-4.1c-3.4,1.6-4.9,6.9-3,10.4c1.1,1.9,2.9,2.7,4.9,3.1c1,0.2,2,0.4,2.1,1.7c0.1,1.4-0.8,1.7-1.9,2.4
	c-3.2,2-6.4,2.1-9.8,1.1c-1.1-0.3-2.2-0.7-2.9-1.7c-2.2-3-1.5-12.7,1.2-15.4c1.2-1.2,2.7-2.2,3.5-3.6c4.2-7.1,10.8-6,17.3-5.4
	c1.9,0.2,3,1.5,3.9,2.8C629.6,75.1,630.9,76.5,633.2,76.6C633.2,76.5,633.2,76.6,633.2,76.6z"/>
<path class="st1" d="M977.8,465.1c0.2,1,0.1,1.7-0.6,2c-0.8,0.4-1.5,0-2.3-0.4c-4.1-2.5-8-12.2-6.5-16.5c0.4-1.3,1.4-2.3,2.8-2.5
	c1.4-0.2,2.2,0.6,2.7,1.7c0.7,1.7,1.5,3.4,1.9,5.1C976.7,458,975,462.1,977.8,465.1z"/>
<path class="st1" d="M943.6,299.5c2.4,0,4.3,2,3.6,3.6c-1.9,3.8,0.5,6.7,1.3,9.8c0.3,1.2,1.4,2.6-0.5,3.3c-1.5,0.6-2-1-2.9-1.6
	c-4.7-3-3.8-7.4-3.9-11.7C941.1,301.2,941,299.4,943.6,299.5z"/>
<path class="st1" d="M517.6,546.4c0.5,0.3,1.1,0.5,1.2,0.8c0.2,0.9-0.5,1.1-1.1,1c-0.3,0-0.8-0.5-0.9-0.8
	C516.7,547.1,517.2,546.8,517.6,546.4z"/>
<path class="st1" d="M67.9,266.2c-0.1,0.3-0.2,0.6-0.4,0.8c-0.3-0.1-0.7-0.2-0.8-0.4c-0.1-0.2,0.2-0.5,0.3-0.8
	C67.3,266,67.6,266.1,67.9,266.2z"/>
<path class="st1" d="M64.3,265.5c0.1-0.1,0.1-0.3,0.2-0.4C64.4,265.2,64.4,265.4,64.3,265.5C64.3,265.5,64.3,265.5,64.3,265.5z"/>
<path class="st1" d="M64.3,265.5c-0.1,0.1-0.1,0.3-0.2,0.4C64.1,265.8,64.2,265.6,64.3,265.5C64.3,265.5,64.3,265.5,64.3,265.5z"/>
<path class="st1" d="M680.4,233.5c0.3,0.5,0.4,1-0.1,1.4c0,2.5-0.2,5-0.1,7.5c0.5,11.7,0.5,23.5-1,35.1c-0.7,5.1-0.8,10.1-1.3,15.2
	c-0.4,3.9-2.8,7.5-0.8,11.7c0.6,1.1,0.7,3.3-0.8,4.1c-1.6,0.8-2.8-1.1-4.3-1.5c1-2.4-1-1.4-1.8-1.5c-1-0.1-2.2,0.3-2.4,1.3
	c-0.4,2.1,1.2,3.4,2.6,4.4c5.5,4,6.5,9.6,5.8,15.9c-0.2,1.4-1.1,3.9-2.3,2.4c-2.9-3.5-4-2.2-5.5,0.8c-0.6,1.2-2,1.2-3.2,0.9
	c-4.6-1-9.2,0.4-13.8,0.2c-4-0.2-8.4,5.2-6.6,8.4c3.1,5.5-1.1,5.9-4,6.2c-8.4,0.8-16.1,4.6-24.5,5c-6.9,0.3-13.8,1.8-20.7,0.3
	c-1.5-0.3-2.5-0.8-2.9-2.3c-1.9-8.1-4.7-15.9-8.8-23.2c-2.4-4.3-2.4-9.5-5.7-13.5c-1.3-1.6-2.8-4.9,1.9-5.2c2.1-0.1,1.2-1.5,0.9-2.5
	c-0.5-1.5-1.6-1.7-2.6-0.6c-1.4,1.5-3.3,1.5-3.3-0.3c-0.2-5.1-4.6-7.8-6.4-11.9c-2.2-4.8-2.8-10.2-6.2-14.5c-1.5-2-3.2-5.7,2.2-6.4
	c2.8-0.3-0.4-4.4,2.6-5c-1.4-0.7-2.7-1.6-4.2-2.1c-0.7-0.2-1.6,0.4-2.4,0.5c-2.3,0.3-3.9,0.3-3.9-3.1c0-1.6,1.2-4.6-0.2-5
	c-4.3-1.2-3.2-5.3-5-7.8c-1.5-1.9-1.4-3.4,0.2-5.2c1.9-2.2,2.6-0.2,3.8,0.6c1.6,1,3.2,0.3,4.7-0.6c0.6-0.4,0.8-1.1,0.3-1.7
	c-1-1.1-2.5-2.3-3.9-1.6c-2.3,1.1-4.3-1.2-6.3-0.3c-3.8,1.7-4.4-0.4-5.3-3.4c-1.5-5.2-1.6-10.8-6.2-15.1c-2.8-2.6-2.5-7.3-2.5-11.2
	c0-1.5,0-4.5,3.5-2.8c0.7,0.4,3.9-0.7,3.3-1.6c-2.1-3,0.7-4,1.6-5.8c0.8-1.6,1.1-3.7-1.5-4.4c-2.9-3.8-4-3.8-7.2,0
	c-1.4,0.3-2.5,0.9-2.8,2.5c-0.2,1.1-0.1,2.5-1.8,2.5c-1.4,0-1.7-1.2-2.4-2.2c-2.6-3.9-3.5-7.8-0.8-12.1c0.8-1.3,0.7-2.8,0.4-4.3
	c-1.1-5.1,0.9-7.5,6.4-7.2c1,0,1.7-0.1,1.8-0.8c0.8-3.8,6.5-5.6,4.3-10.6c-0.3-0.6,0.4-1,1.2-1.2c3.6-0.9,5.4-5.4,9.8-4.8
	c0.2,0,0.6-1.1,0.8-1.7c1.4-4.2,5.9-5.6,9.5-3c1.7,1.2,2.8,3.5,5.5,2.8c2.8-0.8,1.8-3.9,3.3-5.7c0.8,0.5,1.5,1.4,2.1,1.4
	c3.6-0.1,4.2,1.3,4.3,4.9c0.1,3.9,1.9,8.1,3.8,11.6c4,7.4,8.3,14.5,4.5,23.2c3.4-0.8,5.3,1.4,6.2,4.5c2.7,9.5,6.4,18.6,9.9,27.8
	c3.1,8.3,7.8,16.5,7.2,25.9c6,0.5,6.3,5.5,7.6,9.6c2.5,8.4,4.9,16.9,7.4,25.3c0.5,1.6,0.2,4.2,3.4,3.7c3-0.5,2-2.6,2-4.2
	c-0.6-48.5,4-96.7,6.2-145c0.1-3,1.2-4,3.9-4.5c18.7-3.2,37.3-6.4,55.9-9.8c2.3-0.4,3.2,0.3,4,2.3c12.8,29.9,25.6,59.8,38.4,89.7
	c1.7,4,0.1,6.1-3.4,7.8c-1.3,0.6-3.5,1.2-3.2,3.3c0.3,1.7,2.2,1.7,3.5,2.4c2.3,1.2,4.3,2.4,7.2,2.1c2.8-0.3,3.9,2.7,4.7,5.1
	c3,8.3,6.1,16.5,8.8,24.8c1,3,2.4,3.6,5.1,2.9c2.1-1.2,1.1-3.3,1.3-5c0.8-10.2-1.8-20.1-2-30.2c-0.5-27.4,1.3-54.8,1-82.3
	c0-3.9,1.1-5.3,4.9-3.7c1.3,0.5,2.7,0.4,3.5-1c0.8-1.2-0.2-2.3-0.8-3.2c-1.1-1.6-2.4-3.3-4.6-3.5c-2.1-0.2-2.8-1.8-3-3.5
	c-0.5-3.9-0.8-7.9-1.1-11.9c-0.1-1.5-0.2-3.1,1.5-3.9c3.5-1.7,6.9-3.6,11.1-3.9c6-0.4,12.2-0.8,17.9-2.5c4-1.2,7.8-2.3,12-2.4
	c2.8-0.1,5.5-0.1,8.3-1.2c3.6-1.5,8.1-4.3,9.5,4.3c0.5-2.3,0.7-2.9,0.7-3.6c0.2-1.2,0.2-2.6,1.9-2.1c1.3,0.3,1.1,1.5,1.1,2.5
	c-0.1,1.1-0.3,2.3-0.5,3.4c-1.5,7.5-2.9,14.9-2.5,22.6c0.3,4.7,1.1,9.7-1.8,14.1c-0.5,0.7-0.6,1.5,0.3,2.2c2.5,1.9,1.1,4.4,1.3,6.9
	c0.4,7.9-3.3,15.4-1.7,23.3c0.5,2.6,0.1,5.4-3.9,4.2c-1.3-0.4-1.8,0.3-2.3,1.3c-0.7,1.3-0.3,2.3,0.9,2.9c2.8,1.4,3.2,3.7,3.8,6.5
	c0.8,4.2,0.4,8.5,0.4,12.6c0,10.2-1,20.5-1.8,30.7c-0.2,2.7-2.7,5.8-4.3,5.8c-3.8,0-2.3,1.7-1.8,3.3c1.3,4.3-0.8,7.3-4.3,8.8
	c-1.9,0.8-2.9,1.8-4.3,3.1c-4.7,4.3-9.2,8.7-13.7,13.3c-3.1,3.1-4.4,8.5-10.1,8.7c-0.1,0-0.3,0.6-0.3,0.9c0.5,2.6-1.7,4.2-2.3,6.4
	c-3.7,0.4-7.3,0.8-11,1.1c-0.2,1.3,3.2,2.9-1.1,4c-1.9,0.5-9.8,1-5.2,7.8c0.7,1-0.9,1.9-2.1,2.2c-1,0.3-2.4,0.9-2.1,1.7
	c1.8,5.1-2.9,5.1-5.3,6.6c-2.5,1.6-5.6,7.3-5.1,10c3-4.3,8.2-3.8,10.6,1c1.1,2.2,2.9,0.1,4.4,0.4c1.4,0.2,3.2-0.9,2.4-2.2
	c-3.1-4.9,0.5-9.6,0.1-14.2c-0.3-3.3,1.5-5.1,3.1-5.9c5.5-2.8,8.7-7.2,11.4-12.4c5.9-6.5,13.5-11.3,19.2-18.2
	c4.4-5.4,10-9.8,15.4-14.3c1.7-1.4,4-0.9,3.9,2.1c-0.1,3.7-0.7,7.5-0.5,11.2c0.5,13.7-1.1,27.2-1.1,40.9c0,0.7,0,1.3-0.1,2
	c-0.5,2.3-1.7,3.4-4.2,3.3c-2.3-0.1-2.7-1.4-2.7-3.3c0.1-2.5-1-4.2-3.9-5.5c0,3.2,0,5.9,0,8.5c0,1.6-0.1,3-2.2,3.2
	c-2.9,0.4-5.9,0.9-8.8,1.5c-1.4,0.3-2.3,0-2.8-1.3c-0.2-0.4-0.2-1.1,0.1-1.4c0.9-1.2,1.7-0.2,2.5,0.3c0.8,0.5,1.5,0.8,2.2,0
	c0.9-1,0.1-1.9-0.5-2.6c-0.9-1.3-3.8-1-3.3-3.7c1.5-0.5,2.9,2.4,4.4,0.2c0.3-0.4,0.2-1.8,0.1-1.8c-2.3-0.4-4.6-3.8-6.9-0.8
	c-1.8,2.4-5.1,4-4.5,8c0.4,2.4-1.5,3.6-3.5,4.8c-5.8,3.5-12.6,2.1-18.9,4.1c-6.1,1.9-13.2,2.7-20,3.5c-2.8,0.3-5.3-0.6-7.8-1.3
	c-2-0.5-0.6-3-1.3-4.4c-2.1-4.2-4.1-8.5-6.5-12.5c-1.7-2.9-2.8-6-3.9-9.1c-0.8-2.3,0.7-4.1,2.7-3.4c3.9,1.4,8.1-1.1,12.1,1.5
	c1.5,0.9,5.4,1.6,6-1.2c0.5-2.3,1.1-6.2-2.1-7.6c-2.7-1.2-6.1-3.6-8.8,0.4l0,0c-3.1-0.3-6.9-2-9.2-0.8c-4.8,2.5-6.1-0.6-7.4-3.5
	c-2.8-5.8-6-11.6-7.9-17.6c-1.4-4.5-5-8.6-3.7-13.9c0.6-2.5,1-5.1,1.7-8.4c-5.2,2.5-6.5-1.1-7.3-4.6c-0.8-3.3-1.7-6.8-2.7-9.9
	c-2.9-8.4-4.7-16.9-7.1-25.4c-0.2-0.8-0.6-1.6-1.2-2.2c-1.2-1.3-2.2-3.4-4.3-2.8c-2.2,0.6-2.7,2.8-2.9,4.8c-0.2,1.3-0.1,2.7,0,4
	c0.4,6.4,1.9,12.8,0.4,19.3C677.2,233,678.8,233.3,680.4,233.5z M621.1,315.4c0-2.6-5.5-1.5-2.9-4.9c1.3-1.6,3.4-1,5,0.3
	c1,0.8,1.8,0.2,2.6-0.5c2-1.8,4.1-3.7,3.3-6.7c-1-3.8-4.9-2.6-7.4-3.7c-2.5-1.1-3.8,0.5-5,2.6c-2.1,3.7-1.7,9.1-7,10.8
	c-0.5,0.2-0.4,1.9,0.7,1.7C613.9,314.3,617.3,316.9,621.1,315.4z M584.5,236.6c-4.6-2.2-3.7,2.7-4.5,4.7c-0.7,1.6,1.8,2.6,3.4,2.6
	c4,0.1,3.3-3.1,3.7-5.5C587.4,236.7,586.9,235.7,584.5,236.6z M768.5,311.6c-2.2,0-3.2,1.2-3.3,3.4c0,1.9,1,2.6,2.8,2.5
	c2.3-0.2,2.9-1.9,3-3.7C771.2,311.9,770,311.5,768.5,311.6z M802.3,176c-2.5-0.5-4.6-0.7-6.6,0.1c-0.5,0.2-0.9,0.9-1.2,1.4
	c-0.1,0.2,0.5,0.9,0.8,0.9C797.9,179,800.5,179.5,802.3,176z M809.6,208.3c0.2,5.1,4.2,1.7,6.3,2.7c0.8,0.4,1.3-0.8,1-1.7
	c-1.1-2.8-3.2-1.2-5-1.1C811.1,208.3,810.4,207.5,809.6,208.3z M594.4,238c0.1-1.9,3.2-3.9,0-5.8c-0.8-0.5-2-1-2.6,0
	C590.2,234.9,592.7,236.2,594.4,238z M706.1,217.8c-0.4,0.3-1,0.7-1.5,1.1c1.1,0.6,2.1,1.4,3.2,1.8c0.6,0.2,1.1-0.6,1-1.3
	C708.8,217.8,707.5,217.9,706.1,217.8z M638.7,180.6c1.1-0.1,2.6-0.1,2.3-1.8c-0.2-1.6-1.6-1.4-2.8-1.3c-1.1,0.1-2.6,0.2-2.4,1.7
	C636,180.6,637.5,180.6,638.7,180.6z M811,183.6c-0.4-0.9-0.5-2-1.6-2.2c-0.7-0.1-1.1,0.7-1.1,1.4c-0.1,1.2,0.7,1.8,1.7,2.1
	C811,185,811,184.2,811,183.6z M807.7,263.1c0.5-0.6,0.9-0.9,1.1-1.3c0.1-0.2-0.2-0.5-0.3-0.8c-0.4,0.2-0.9,0.3-1,0.6
	C807.3,261.9,807.6,262.4,807.7,263.1z M776.9,293.7c-0.3-0.3-0.4-0.5-0.6-0.8c-0.3,0.3-0.8,0.5-0.9,0.9c-0.2,0.4,0,1,0.7,0.9
	C776.4,294.5,776.6,294,776.9,293.7z M778.5,314.3c0.3-0.1,0.6-0.1,0.9-0.2c-0.4-0.5-0.7-1-1.2-1.4c-0.5-0.5-0.8-0.2-0.8,0.3
	C777.3,313.7,777.7,314.2,778.5,314.3z M792.9,277.7c-0.3-0.3-0.4-0.5-0.6-0.8c-0.3,0.3-0.8,0.5-0.9,0.9c-0.2,0.4,0,1,0.7,0.9
	C792.4,278.5,792.6,278,792.9,277.7z"/>
<path class="st1" d="M158.1,372.3c-0.1-0.2-0.1-0.3,0-0.5c0.1-1.5-0.4-2.4-2.1-2.3c0,0,0,0,0,0c0-2.8-1.9-3.1-4-3.1
	c-5.3-0.1-10.6,0-15.9,1.1c-0.7,0.2-2,1.5-2.2-0.3c-0.7-5.3-3-10.4-3.5-15.5c-1.3-13.7-5.1-26.9-6.5-40.6c-0.5-5.2-2.2-10.4-2.8-16
	c2.5,0.6,5.5,3.2,6.1-0.2c0.4-2.1-2.1-6.4-4-6.8c-5.9-1.2-4.8-5.6-5-9.2c-0.3-5.2-1-10.3-2.6-15.1c-3.1-9.5-3.1-19.5-5.4-29.2
	c-1-4.5,1.9-6.2,6.4-4.1c1.4,0.7,2.7,1.3,4.1,0.2c6.6-5.3,14.4-6.9,22.6-7.3c3.2-0.2,7,0.5,9.5-0.9c3.4-1.9,5.7-0.2,6.9,1.6
	c2.7,3.8,6.6,5.9,9.7,8.9c13,12.8,28.2,23.1,41.7,35.4c10.4,9.4,20.2,19.7,32.4,27.2c3.4,2.1,6,5.3,5.5,10c-0.2,1.9,1,2.2,2.5,2.9
	c4.7,2.2,9.9,3.7,13.5,7.7c2.3,2.5,4.9,3.2,7.9,3.2c0.4,0.7,0.6,1.5,1.2,2c0.6,0.6,1.1,1.8,2.3,1.1c0.2-0.1,0.3-0.6,0.3-0.9
	c0.1-1.1-0.2-1.9-1.4-2.1c-0.8-0.1-1.6-0.1-2.4-0.2c1.2-3.9,1.4-7.8,0-11.7c-1.6-4.8-1.5-9.7-0.3-14.6c0.5-2,1.4-4.8-1-6.4
	c-2.6-1.7-1.9-3.6-1-5.6c1.1-2.4,3.5-2,5.2-1.4c3.1,1.1,5.9,0.9,8.5-1c0.9-0.6,0.2-1.9-0.5-2.6c-2.7-2.9-5.4-1.2-8.2-0.1
	c-1.1,0.4-3.4,2.4-3.7-0.7c-0.3-2.6-1.7-3.4-3.8-3.7c-1.4-0.2-1.6-0.7-1.8-2.2c-1.2-8.1-1.3-16.4-4-24.2c-0.6-1.8-1.2-4.6-0.3-5.8
	c3.5-4.6-0.8-7.5-1.7-11.2c-0.3-1.1-2.2-1.5-2.3-3.1c-0.4-6.1-0.8-12.2-1.1-18.3c-0.1-1.9,1-3,3-3.3c8.2-1.4,16.4-3,24.7-4.3
	c5.6-0.9,11.5,0,16.9-2.5c1.2-0.5,3.2-0.7,4,0.9c0.5,1.1,0.5,2.7,0,3.8c-0.7,1.7-2.5,1.1-4,0.9c-0.8-0.1-1.6-0.5-2.4-0.6
	c-1.5-0.1-2.7,0.4-3,1.9c-0.3,1.6,0.6,2.6,2.1,2.8c2.4,0.4,4.9,1.1,7.3,0.9c2.1-0.1,2.9,0.2,3.4,2.3c1.2,5.1,0.4,10.3,2.4,15.6
	c1.6,4.3,0.9,10.1,1.7,15.2c1.2,8.2,4.9,16.1,4.3,24.7c-0.1,0.8,1,1.6,1.5,2.5c1.7,2.7,1.7,11-0.4,12.1c-6.1,3.1-6.4,7.6-4,13.1
	c0.9,2.1,0.3,3.8-2.4,3.3c-2.3-0.4-3.6,0.8-2.7,2.6c2.5,4.9,3.5,8.6-3.8,9.3c-0.9,0.1-2.6,1.2-1.5,2.4c1.2,1.2,0.2,3.7,2.4,3.9
	c1.3,0.2,2.1-0.9,2.5-2c2.1-5.2,5.6-4,9.2-2c2.5,1.4,4,1.2,4.1-1.9c0-1,0.1-1.7,1.1-1.7c0.6,0,1.2,0.3,1.8,0.4
	c-1.4,3.5,2.9,5.2,2.6,8.3c-0.5,5.2,0.7,10.3,1.3,15.3c0.3,2.8-0.3,6.6,3.1,8.5c0,0,0,0.1,0,0.1c-0.8,5.3-2.1,6.4-7.2,4.6
	c-3.8-1.4-5.2-0.2-5.1,3.2c0.1,2.7-2,1.2-2.9,1.8c0,1.3,0.9,1.5,1.7,1.8c2.6,1,3.3,3,3.2,5.6c-0.1,3-2,3.2-4.4,3.5
	c-2,0.3-4.1,1.4-4.5,3.4c-0.6,3.4-3.2,5.1-5.4,6.9c-3.3,2.5-8.1,3.6-7,9.4c0.1,0.3-1.1,1.1-1.9,1.4c-5.6,2.6-10.8,5.8-14.9,10.6
	c-2.6,3-5.5,2.5-8.4-0.4c-5.1-4.9-10.5-9.4-15.7-14.1c-3.4-3.1-7.8-5.1-10.5-8.9c-4.1-5.8-10.1-8.7-16.4-11.3c0,0,0,0,0,0
	c-1-4.3-5.2-6.2-7.5-9.5c-1.9-2.8-4.3-4-7.6-3.5c0,0,0,0,0,0c-1.8-4-3.5-8.1-9-8c0,0,0,0,0,0c0.2-1.4,0.2-2.7-1.1-3.6
	c-8.7-6.3-15.9-14.4-23.9-21.6c-1.9-1.7-3.9-2.5-6.2-0.7c-2.2,1.6-1.7,3.7-1.1,5.8c3.1,10.1,5.3,20.3,5.4,30.9
	c-0.9,1.4-3.2,2-2.5,4.4c2.2-0.9,2.6-2.6,2.6-4.4c2.8,0.5,2.1,2.8,1.9,4.4c-1.2,12.4,2.9,24.1,5.2,35.9c2,10.6,3.1,21.4,6.2,31.8
	c1.8,5.8,1.1,6-4.7,5.3c-0.6-0.1-1.3,0-1.9,0.3c-8.6,3.6-17.6,5.3-26.6,7.4c-3.8,0.9-7.7,0.2-11.3,1.3c-5.3,1.5-6.8,0.8-6.7-4.7
	c0.1-5.6-1.9-10.7-2.4-16.2c-0.6-5.4,0.2-11.4-3.3-16.3c-0.7-1-0.5-3.3,0.9-3.4c3.8-0.3,4.7-3.3,6.3-5.7c0.6-0.9,1-1.9,2.3-1.1
	c2.6,1.6,5.6,0.6,8.3,1.3c1.9,0.5,4,0.9,4.6-1.3c0.6-2.1,0.2-4.4-2.7-4.9c0,0,0,0,0,0c-0.1-2-2.1-4.1,1.3-5.7
	C161.1,374,159.6,372.7,158.1,372.3z M184.4,288.7c-1.7-0.1-3.7-0.8-3.7,2.1c0.5,0.9,1,1.8,1.5,2.7c1.1,0.9,2.1,2.2,3.3,2.7
	c2.7,1.1,5.4,1.7,5.9-2.6c0.7-1.1,2.4-1,2.7-2.6c-0.6-2.8,1.9-7.2-3.8-7.5C186.6,283.3,186.7,287.4,184.4,288.7L184.4,288.7z
	 M312.7,338.7c-0.6-3.4-6.1-1.6-5.7-6c0.1-1.5,0.6-3.6-1.5-4.1c-2.3-0.6-3.7,0.7-4.7,2.7c-1.4,2.6-2.8,3.8-6,1.2
	c-4.4-3.6-11.2-1.2-14.4,3.4c-2.8,3.9-2,5.8,2.2,7.2c1.2,0.4,2.4,1.2,3.3,2.1c3.4,3.4,9.1,4.9,12.3,1.7
	C302.4,342.8,308.3,342.4,312.7,338.7z M158.6,329.2c2.3-0.5,4.8-0.6,6.7-2.5c0.6-0.6,0.2-1.2-0.2-1.7c-2-2.6-4.2,0.3-6.3-0.2
	c-0.3-0.1-0.7,0-0.9,0.2c-1.1,0.7-3.5,0.2-3,2.4C155.2,328.9,156.9,329.2,158.6,329.2z M285.9,203.2c-1,0.8-2.8,1.5-2.8,2.2
	c0.1,2.1,2,2.8,3.8,3c1.4,0.2,2.9-0.2,2.9-1.9C289.8,204.2,286.8,205,285.9,203.2z M321,323.6c-2.7-1.1-4.7-0.8-7.6,0.5
	C316.3,325.8,318.4,325.7,321,323.6z M201.3,320.2c-0.6,0-0.9,0.4-0.8,0.9c0.1,1,0.8,1.4,1.6,1.7c0.9,0.3,1.1-0.4,1-1.1
	C202.9,320.6,202.1,320.4,201.3,320.2z M252,310.8c-0.7-0.4-1.1-0.8-1.4-0.8c-0.4,0.1-0.8,0.5-1,0.9c-0.2,0.5,0,1,0.6,0.8
	C250.7,311.7,251.2,311.3,252,310.8z"/>
<path class="st1" d="M807.9,430.1c-8.1,1.4-16.4,2.8-24.6,4.4c-2.7,0.5-4.3-0.6-5.9-2.6c-4.4-5.9-9.2-11.4-13.2-17.5
	c-3.1-4.7-6.7-2-10.2-1.9c-3.1,0.1-3.4,1.9-2.9,4.4c0.3,1.4-1,1.6-1.9,1.9c-3.4,1.2-5.7,3.7-7.9,6.7c2.1,1.5,3.5-0.3,5.1-0.8
	c4.4-1.4,6.1-0.3,6.8,4.1c1.7,11,1.7,11-9.3,12.7c-3.3,0.5-6.6,0.9-9.8,1.7c-3.8,1-5.4-0.1-6-4c-2.2-13.1-4.6-26.2-6.9-39.3
	c-2.2-12.6-4.2-25.2-6.5-37.8c-0.4-2-0.3-3.2,1.9-3.7c18.2-4.5,36.3-9.7,55.5-7.2c10.6,1.4,17.8,7.3,21.2,17.2
	c3.8,11,3.5,21.9-5.9,30.3c-3.7,3.3-3.1,5,0,8.1c6.6,6.6,12.8,13.6,19.1,20.4C807.2,427.9,808.1,428.5,807.9,430.1z M768.8,382
	c-0.2-8.9-4-12.3-12.6-11.3c-3.3,0.4-6.5,1.2-9.8,1.7c-2.2,0.3-3.2,1.3-2.7,3.7c1,4.9,1.8,9.8,2.6,14.7c0.3,1.5,0.9,2.7,2.5,2.4
	c5.9-0.8,11.9-1.3,17-4.8C768.3,386.8,768.4,384.3,768.8,382z"/>
<path class="st1" d="M210.2,476.7c-0.6-7.8-2.3-15.6-4-23.4c-0.8-3.8-0.1-5.7,4.2-6.1c4.9-0.4,9.8-1.8,14.7-2.5
	c2-0.3,4.8-1.7,5.9,0.4c1.1,2.1,1.7,5,0.5,7.6c-0.3,0.5-1.5,0.9-0.9,1.5c6.3,6.6,4.5,15.4,6.3,23.1c3.2,13.9,5.1,28.1,7.9,42.2
	c0.6,3.2,0.1,6.1-0.2,9.1c-0.1,1.2-1.3,0.7-2,0.8c-5.5,1.1-11.2,1.7-16.6,3.3c-5.1,1.5-6.2-0.5-6.8-4.9c-1.1-7.9-2.9-15.7-3.9-23.6
	c-0.5-3.8-2.1-4.2-5.3-3.6c-7.7,1.4-15.3,2.8-23,3.9c-3.5,0.5-4.3,2-3.6,5.3c1.7,8.3,2.9,16.7,4.6,24.9c0.7,3.5-0.4,4.8-3.6,5.4
	c-5.9,1-11.8,2-17.7,3.1c-3.1,0.6-4.3-0.5-4.8-3.5c-3.2-18.6-6.5-37.3-9.8-55.9c-1.2-6.9-2.4-13.7-3.8-20.6
	c-0.7-3.3-0.2-5.2,3.6-5.8c6.1-0.9,12.1-2.1,18.2-3.2c2.6-0.5,3.8,0.2,4.3,3.2c1.2,8,2.8,16,4.1,24.1c0.5,2.7,1.2,3.9,4.6,3.2
	c7.9-1.8,16-3,24-4.3C209.6,480.1,211.3,479.7,210.2,476.7z M180.2,516.3c1-0.4,2.7,0.1,2.6-1.1c-0.2-2.4-2.8-1.7-4.3-2.4
	c-0.8-0.4-2,0.5-1.9,1.1C177,515.8,178.7,516.1,180.2,516.3z"/>
<path class="st0" d="M416.7,173.3c9.6-2.3,19.4-3.5,29.2-5.3c17.2-3.1,34.4-5.8,51.6-9c2.8-0.5,3.5,0.2,3.9,2.7
	c1,6.6,2.2,13.1,3.4,19.6c0.3,1.6,1.2,3.3-0.8,4.5c-0.7,0.4-0.8,1.2-0.3,1.7c5.2,4.5,3.1,11.1,5,16.5c1,2.8-0.6,3.3-2.9,3.7
	c-30.6,5.3-61.1,10.7-91.7,15.9c-4.1,0.7-5.1,2.3-4.2,6.3c1.5,7,2.8,14,3.7,21.1c0.5,4.2,2.4,5,6.2,4.3c23.2-4.2,46.4-8.2,69.7-12.3
	c3.2-0.6,6.6-0.7,9.7-1.8c4.7-1.6,5.5,0.6,6.1,4.5c2.2,13.2,4.5,26.5,6.9,39.7c0.5,2.7-0.1,3.8-3,4.3c-26.7,4.6-53.3,9.4-80,14
	c-4.3,0.7-6.4,1.7-5,6.8c1.9,7,3.1,14.3,3.9,21.5c0.4,3.5,2,3.6,4.6,3.2c19.5-3.4,38.9-6.9,58.4-10.3c12.3-2.2,24.5-4.3,36.8-6.5
	c3.1-0.6,4.3,0.4,4.8,3.7c2.1,13.6,4.4,27.2,7,40.7c0.6,3.2-0.1,4.1-2.9,4.6c-15.7,2.7-31.4,5.4-47.1,8.1
	c-32.9,5.8-65.7,11.7-98.6,17.6c-3.8,0.7-7.5,1.2-11.3,1.9c-6.3,1.1-6.3,1.1-7.3-4.9c-1.5-9.2-3.7-18.3-4.5-27.5
	c-0.6-6.4-2.8-12.4-3.6-18.7c-0.9-6.8-2.1-13.5-3.3-20.2c-1.2-6.7-3-13.4-3.5-20.1c-0.7-10.3-3.1-20.3-5-30.2
	c-2.9-15.2-5.7-30.5-8.7-45.8c-2.4-12.1-4.3-24.2-6.5-36.3c-0.5-2.9,0.3-4.2,3.3-4.7c24-4.2,48.1-8.6,72.1-12.9
	C414,173.4,415.3,173.4,416.7,173.3z M376.2,352.5L376.2,352.5c-0.1,0.9-0.4,2-1.2,2c-6.2,0-4.6,4.5-4.8,8
	c-0.3,4.4,0.4,8.6,2.1,12.7c1.4,3.4,2.1,6.9,2,10.7c-0.1,2.9,0.6,6.3,4.3,6.1c7.1-0.3,14.8,0.5,21-2.2c9.4-4.1,19.3-4.2,28.8-5.7
	c13.9-2.2,27.6-5.2,41.6-7.1c8.1-1.1,16.6-1.9,24.6-4.3c5.8-1.7,12-2.4,17.9-3.6c5.4-1,10.6-2.7,16.1-2.6c6.7,0.2,7.7-0.5,7.5-7.2
	c-0.4-12-3.2-23.7-6.6-35.2c-1.2-4.1-5.2-5.3-8.4-2.1c-1.1,1.1-2.1,1.5-3.4,1.4c-4.5-0.5-8.9,0.8-13.4,1.1c-1.7,0.1-4.1,0.2-4.7,2
	c-0.6,1.6,1.5,2.3,2.6,3.2c0.9,0.7,0.7,1.8,0.8,2.8l0,0c-0.5,0.4-1.3,1.2-1.5,1.1c-6.2-3.2-10.2-0.7-13.2,4.8
	c-0.6,1.1-2,1.1-3.1,1.1c-1.3,0.1-2.6-0.3-3.8,0.7c-1.9,1.5-2,1.5-3.7-1.1c6.8-1.2,1.9-7.3,5-10.2c-2.6-0.4-4.5-0.9-6,1.2
	c-1.1,1.6-2.8,1.1-4.5,1.1c-4.3,0-8.5,0.5-12.7,1.5c-10,2.4-20.1,4-30.4,3.8c-2.6,0-4-1-4.1-3.8c-0.2-3.5-0.6-6.9-1-10.4
	c-0.2-2.1-5.8-7-7.9-7c-1.2,0-2.5,0.4-2.8-1.2c-0.2-1.1,0.5-2,1.5-2.3c1.5-0.4,1.8-2.1,2.7-2.5c3.4-1.7,4.1-6.5,7.9-7.3
	c10.5-2.1,21.1-4.2,31.7-5.3c5.8-0.6,11.5-1.7,17-3c9.6-2.2,19.3-3.6,29-5.2c5.7-1,6.4-2.3,5.7-8c-0.4-3.1-3.5-5.1-3-7.9
	c0.7-3.8,0.2-7.3-0.7-10.8c-0.8-2.9,0.2-7.5-5.5-6.9c-0.9,0.1-1.6-1.3-1.3-2.4c1-2.6-1.2-3.4-2.7-4c-5.1-2.3-10.2-4.1-16.2-2.2
	c-6,1.9-11.8,4.8-18.6,4.4c-3.4-0.2-7.9,0.3-10.1,4.9c-1,2-6,2.1-6.2,1.2c-1.1-3.7-3.6-2.3-5.7-2.4c-7.5-0.4-14.7,2-22.1,2.4
	c-2.3,0.1-3.8-0.4-4.3-2.2c-2.4-9.5-4.5-19-4.3-28.9c0-1.4,0.6-3.1,2-3c3.3,0.3,5.6-1.9,8.6-2.4c11.9-1.9,23.8-3.9,35.7-5.9
	c2.7-0.4,5.2-0.7,1.7-3.9c-1.3-1.3-2-3.3-3.5-5.8c2.2,0.7,3.4,0.2,4.7-0.7c2.2-1.4,3.7,0.6,3.4,2c-1.6,6.4,2.7,5.3,6.3,5.4
	c3,0.1,5.9-0.8,8.8-1.2c4.5-0.7,7.2-1.3,7-7.2c-0.2-5.6,1.7-11.3,0.2-17.1c-0.8-3-0.8-6.2,2.4-8.2c-0.4,5-0.6,9.9-0.2,14.9
	c0.3,3.4,1.6,6.7,0.4,10.2c-0.5,1.4-2.7,3.5,0.3,4.4c2.3,0.7,4.1-0.1,4.6-3c1.6-8.4,0.8-16.6-1.9-24.7c-0.5-1.5-1.8-1.9-3.2-1.9
	c1.6-4.4,3.2-2,4.4,0.2c2.9,5.6,4.3,11.7,3.2,17.8c-0.7,3.8,4.4,4.5,3.2,8.1c-0.1,0.3,1,0.5,1.7,0.2c3.4-1.2,7.1-8.2,5.7-11.6
	c-3.5-8.4-1.7-17.4-3.4-26c-0.9-4.4-3.5-7-7.6-4.8c-4.6,2.5-9.3,3.1-14.3,2.9c-1,0-2,0.3-2.9,0.4c-9.8,1.3-19.5,3.2-29,5.8
	c-5.6,1.5-11.7-0.7-17.2,2.7c1,0,1.9,0,2.7,0.1c6.4,0.9,7.1,2.6,3.2,7.5c-2.7,3.5,0.7,2.9,2.1,3.4c4.3,1.5,4.9,2.9,2.4,7.2
	c-2.2-2-4-5.2-6.5-5.9c-4.3-1.2-5.3-4.3-6.5-7.6c2.9,0.9,5.7,1.3,8.4-0.6c0.6-0.4,0-1.3-0.6-1.5c-3.1-1.3-5.6-0.1-7.8,2.1
	c-2.2-2.7-5.4-3.2-8.5-3.2c-2.6,0-5.2,0.6-7.8,1.1c-11.7,2.2-23.4,4.4-35.1,6.5c-10.3,1.8-20.7,2.8-30.5,7c0.9,1.9,5.7,1.8,2.8,5.4
	c-3.6,4.6-4.3-1.7-6.6-2.1c-0.8,1.9,0.9,3,0.8,4.5c-0.4,10.3,2.9,20.1,3.9,30.2c0.6,6,2.1,11.8,3.8,17.5c1.9,6.3-0.4,13.8,5.4,19.1
	c0.2,0.2,0.1,1.1-0.2,1.4c-1.7,1.9-0.5,4-0.6,6c-0.4,5.7,2.8,10.4,3.9,15.7c0.3,1.3-1.7,3.6,1.1,4.1c1.9,0.4,3.7,0.1,4.4-2.2
	c0.2-0.8,0.9-1.3,1.3-0.5c1.7,2.8,4.5,1.5,6.8,2.1c2.2,0.6,3.8,2,4.6,4.2c0.8,2.4-1.5,2.6-2.3,3.8c-3,4.3-6.8,2-10.4,1.2
	c-2.7-0.7-4.2-0.4-3.7,3c1.8,13.9,5.5,27.5,6.9,41.5C367.1,351.2,369.2,352.4,376.2,352.5z M367.2,297.5c2.2,0,5.2,1,5.4-2
	c0.1-3-3-3.2-5.3-3c-1.8,0.2-5-2-5,2.4C362.3,299.1,365.8,296.5,367.2,297.5z"/>
<path class="st1" d="M556.4,420.1c-0.4-22.1,11.1-36.3,31.2-40.6c7.6-1.6,15.3-2.9,23.2-3.1c2.4-0.1,3.6,0.5,3.9,3.1
	c0.6,4.1,1.5,8.2,2.3,12.2c0.8,3.7-0.3,5.7-4.4,5.7c-5.8,0-11.6,1.1-17.3,2.3c-9.1,1.9-12.5,6.2-12.1,15.4
	c0.3,7.3,1.6,14.5,3.9,21.5c2.5,7.3,6.7,10,14.4,9.4c6.8-0.5,13.5-1.9,19.9-4.1c3.4-1.1,4.4-0.2,4.8,3.1c0.4,4.3,1.2,8.6,2.2,12.7
	c0.6,2.7,0,4.3-2.6,4.7c-3.3,0.5-6.1,3.6-10.2,1.6c-0.8-0.4-4.2,2.7-7,2.9c-8.3,0.8-16.6,1.5-24.7-1c-15.8-4.9-22.2-17.4-25.6-32.2
	C557.2,428.7,556.9,423.3,556.4,420.1z M582.2,442.4c-2.1-1.1-3.7-1.4-5.3-0.1c-0.5,0.4-0.4,1.3,0.3,1.7
	C579,444.8,580.5,443.9,582.2,442.4z"/>
<path class="st1" d="M656.2,454.4c-12.6-2.1-20.9-9.8-26.2-20.8c-3.8-8-5.3-16.7-5.7-25.6c-1-22.7,14.5-36.2,32.6-40.4
	c7.5-1.7,15.1-2.7,22.8-1.7c16.6,2.2,25.8,13.2,31.4,27.8c1,2.7,2.2,5.6,1.9,8.6c-3.7,4.7-8.8,5.9-14.4,5c-4.2-0.7-7.6,1.2-11.2,2.9
	c-1.1-4.3-2-8.7-3.2-13c-1.7-5.9-5.3-9.9-11.7-10.8c-2.1-0.3-4.3-0.4-6.4-1c-5.9-1.9-11,0.2-15.9,3c-5.4,3-9.3,11.4-8,17
	c1.5,6.5,4.5,12.1,10.9,15.2c2.5,5.5,3.6,12.1,10.9,13.9c0.2,7.1,2.4,14.7-3.9,20.6l-0.4,0.2c0,0-0.4-0.2-0.4-0.2
	C658.4,454.1,657.3,454.3,656.2,454.4z"/>
<path class="st0" d="M609.3,248.9c0.7-9.5-4-17.6-7.2-25.9c-3.5-9.2-7.2-18.3-9.9-27.8c-0.9-3.1-2.8-5.2-6.2-4.5
	c3.7-8.7-0.5-15.8-4.5-23.2c-1.9-3.6-3.7-7.7-3.8-11.6c-0.1-3.7-0.7-5.1-4.3-4.9c-0.7,0-1.3-0.9-2.1-1.4c-1.5,1.8-0.5,4.9-3.3,5.7
	c-2.6,0.7-3.8-1.5-5.5-2.8c-3.6-2.7-8.1-1.2-9.5,3c-0.2,0.6-0.6,1.7-0.8,1.7c-4.4-0.6-6.2,3.9-9.8,4.8c-0.8,0.2-1.4,0.5-1.2,1.2
	c2.1,5-3.5,6.8-4.3,10.6c-0.2,0.8-0.8,0.9-1.8,0.8c-5.4-0.3-7.4,2.1-6.4,7.2c0.3,1.6,0.4,3-0.4,4.3c-2.7,4.3-1.8,8.1,0.8,12.1
	c0.7,1,1,2.2,2.4,2.2c1.7,0,1.6-1.4,1.8-2.5c0.3-1.5,1.3-2.2,2.8-2.5c0.1,0.1,0.3,0.3,0.4,0.4c-0.3,1.6,0.1,2.6,1.9,2.6
	c2.1,0,4.1,0.2,4.5-2.6c0.1-0.1,0.3-0.3,0.4-0.4c2.6,0.7,2.3,2.8,1.5,4.4c-0.9,1.9-3.7,2.8-1.6,5.8c0.6,0.8-2.6,1.9-3.3,1.6
	c-3.5-1.7-3.5,1.3-3.5,2.8c0,3.9-0.3,8.6,2.5,11.2c4.6,4.3,4.7,9.9,6.2,15.1c0.8,3,1.5,5.1,5.3,3.4c1.9-0.9,4,1.4,6.3,0.3
	c1.4-0.7,2.9,0.5,3.9,1.6c0.5,0.6,0.3,1.3-0.3,1.7c-1.4,1-3,1.7-4.7,0.6c-1.2-0.8-1.9-2.8-3.8-0.6c-1.6,1.9-1.7,3.3-0.2,5.2
	c1.8,2.4,0.7,6.5,5,7.8c1.4,0.4,0.2,3.4,0.2,5c0,3.4,1.6,3.4,3.9,3.1c0.8-0.1,1.7-0.8,2.4-0.5c1.5,0.5,2.8,1.4,4.2,2.1
	c-3,0.6,0.2,4.7-2.6,5c-5.4,0.7-3.8,4.4-2.2,6.4c3.4,4.4,4,9.8,6.2,14.5c1.9,4.1,6.2,6.8,6.4,11.9c0.1,1.8,1.9,1.8,3.3,0.3
	c1-1.1,2.2-0.9,2.6,0.6c0.3,1,1.2,2.4-0.9,2.5c-4.7,0.2-3.2,3.6-1.9,5.2c3.3,4,3.4,9.2,5.7,13.5c4,7.3,6.9,15.1,8.8,23.2
	c0.3,1.4,1.4,2,2.9,2.3c6.9,1.4,13.8,0,20.7-0.3c8.4-0.4,16.1-4.2,24.5-5c2.9-0.3,7.2-0.7,4-6.2c-1.8-3.2,2.6-8.6,6.6-8.4
	c4.6,0.2,9.2-1.1,13.8-0.2c1.1,0.2,2.6,0.3,3.2-0.9c1.5-3,2.6-4.3,5.5-0.8c1.2,1.5,2.1-1,2.3-2.4c0.7-6.2-0.3-11.8-5.8-15.9
	c-1.4-1-3-2.4-2.6-4.4c0.2-1.1,1.4-1.5,2.4-1.3c0.8,0.1,2.8-0.9,1.8,1.5c1.5,0.4,2.7,2.3,4.3,1.5c1.5-0.8,1.4-2.9,0.8-4.1
	c-2-4.2,0.4-7.8,0.8-11.7c0.5-5,0.6-10.1,1.3-15.2c1.5-11.7,1.5-23.4,1-35.1c-0.1-2.5,0.1-5,0.1-7.5c0.3,0.8,0.8,1.5,0.8,2.3
	c1.1,16.4,1,32.8,0,49.3c-1.1,17.3-2.2,34.5-2.9,51.8c-0.2,3.8-1.8,5.2-4.9,5.2c-2.8,0-5.6,1.8-9.7,0.1c4.8-1.9,8.3-3.4,12.3-5
	c-3.9-1.8-7.4-3.2-11.4-1.5c-1.5,0.7-2.4-0.5-3.6-1c-3.7-1.5-7.3-2.1-11,0.3c-1.2,0.8-2.3,1.5-2.2,3c0.1,1.4,1.2,2,2.3,2.3
	c2.5,0.6,4.1,2.5,6.6,4.5c-9.9,1.8-19.2,3.5-28.5,5.2c-9.6,1.7-19.3,3.3-28.9,5c-3.3,0.6-5.3,0.3-6.9-3.4
	c-17.1-40.4-34.5-80.6-51.5-121c-4.9-11.6-10.2-23-15-34.5c-5.1-12.1-10.1-24.2-15.4-36.1c-1.6-3.6-1.2-4.7,2.9-5.2
	c8.1-1,16.1-2.6,24.1-4.1c2.5-0.5,4.4-0.8,6.7,1.3c1.8,1.7,5.1,3.3,5.6-1.8c0.1-1.5,1.8-1.6,2.8-1.8c7.3-1.6,14.7-2.9,22-4.5
	c3.5-0.8,3.3,1.9,3.9,3.7c7.3,20.5,14.4,41,21.7,61.5c3.9,10.8,7.8,21.5,11.4,32.4C612.7,246.3,612.7,247.8,609.3,248.9z
	 M542.3,157.2c-1.7-3.1-4.3-2.9-6.7-2.6c-5.9,0.9-11.5,3.2-17,5.3c-5.6,2.2-5.5,2.7-1.9,7.9c0.9,1.3,1.3,3,1.9,4.5
	c1,2.5,1.8,5,5.5,3.2c1-0.5,3.4,0.1,3.3-1.3c-0.1-2.8-1.8-0.2-2.7-0.4c-1.7-0.4-1.7-2.3-2.8-3.3c-0.9-0.9-0.5-1.9,0.5-2.5
	c1.2-0.6,2.2,0.2,2.2,1.1c0.1,3.3,2,2.9,3.4,1.5c2.1-2,4.6-3,7-4.4C538.8,164.2,538.3,159.1,542.3,157.2z"/>
<path class="st0" d="M680.4,233.5c-1.6-0.2-3.2-0.6-2.8-2.6c1.5-6.5,0-12.9-0.4-19.3c-0.1-1.3-0.1-2.7,0-4c0.3-2,0.7-4.2,2.9-4.8
	c2.2-0.6,3.1,1.5,4.3,2.8c0.5,0.6,1,1.4,1.2,2.2c2.4,8.4,4.2,17,7.1,25.4c1.1,3.1,2,6.5,2.7,9.9c0.8,3.5,2,7.1,7.3,4.6
	c-0.6,3.2-1,5.8-1.7,8.4c-1.3,5.3,2.3,9.4,3.7,13.9c1.9,6,5.1,11.8,7.9,17.6c1.4,2.8,2.6,6,7.4,3.5c2.3-1.2,6.1,0.4,9.2,0.8
	c-2.2,5.7,1.4,5.9,5.5,5.8c1.8,0,3.9,0.4,4.1-2.2c0.1-2.4-1.9-2.7-3.7-3c-1.9-0.3-3.9,0.2-5.8-0.7c2.7-4,6.1-1.6,8.8-0.4
	c3.2,1.4,2.6,5.3,2.1,7.6c-0.6,2.8-4.5,2.2-6,1.2c-3.9-2.5-8.1-0.1-12.1-1.5c-2-0.7-3.5,1.1-2.7,3.4c1.1,3.1,2.1,6.2,3.9,9.1
	c2.4,4,4.5,8.3,6.5,12.5c0.7,1.4-0.7,3.9,1.3,4.4c2.5,0.6,5,1.6,7.8,1.3c6.7-0.8,13.8-1.6,20-3.5c6.3-2,13.1-0.6,18.9-4.1
	c2-1.2,3.9-2.4,3.5-4.8c-0.6-4,2.7-5.6,4.5-8c2.3-3,4.6,0.4,6.9,0.8c0.1,0,0.2,1.4-0.1,1.8c-1.4,2.1-2.8-0.7-4.4-0.2
	c-0.5,2.7,2.3,2.4,3.3,3.7c0.5,0.8,1.4,1.6,0.5,2.6c-0.7,0.8-1.5,0.5-2.2,0c-0.8-0.5-1.5-1.6-2.5-0.3c-0.2,0.3-0.2,1-0.1,1.4
	c0.5,1.2,1.4,1.6,2.8,1.3c2.9-0.6,5.8-1.2,8.8-1.5c2.1-0.3,2.2-1.7,2.2-3.2c0-2.6,0-5.3,0-8.5c2.9,1.3,4,3,3.9,5.5
	c0,1.9,0.4,3.2,2.7,3.3c2.5,0.1,3.7-1,4.2-3.3c0.1-0.6,0.1-1.3,0.1-2c0-13.6,1.6-27.2,1.1-40.9c-0.1-3.7,0.4-7.5,0.5-11.2
	c0.1-3-2.2-3.5-3.9-2.1c-5.4,4.5-11,8.9-15.4,14.3c-5.7,7-13.2,11.7-19.2,18.2l-0.2-0.3c0.5-2.2,2.8-3.8,2.3-6.4
	c-0.1-0.3,0.2-0.9,0.3-0.9c5.7-0.1,7-5.5,10.1-8.7c4.4-4.6,8.9-9,13.7-13.3c1.4-1.3,2.4-2.3,4.3-3.1c3.6-1.5,5.7-4.5,4.3-8.8
	c-0.5-1.6-2-3.3,1.8-3.3c1.6,0,4.1-3.1,4.3-5.8c0.8-10.2,1.8-20.5,1.8-30.7c0-4.1,0.4-8.4-0.4-12.6c-0.5-2.8-1-5.1-3.8-6.5
	c-1.2-0.6-1.6-1.6-0.9-2.9c0.5-0.9,1-1.6,2.3-1.3c4,1.2,4.4-1.6,3.9-4.2c-1.6-8,2.1-15.5,1.7-23.3c-0.1-2.4,1.2-4.9-1.3-6.9
	c-0.9-0.7-0.7-1.5-0.3-2.2c2.9-4.4,2.1-9.4,1.8-14.1c-0.4-7.7,1-15.2,2.5-22.6c0.2-1.1,0.5-2.3,0.5-3.4c0-1,0.2-2.2-1.1-2.5
	c-1.8-0.4-1.7,1-1.9,2.1c-0.1,0.6-0.3,1.3-0.7,3.6c-1.4-8.6-5.9-5.8-9.5-4.3c-2.8,1.1-5.5,1.2-8.3,1.2c-4.1,0.1-8,1.3-12,2.4
	c-5.7,1.7-11.9,2.1-17.9,2.5c-4.2,0.3-7.5,2.2-11.1,3.9c-1.7,0.8-1.6,2.4-1.5,3.9c0.3,4,0.6,7.9,1.1,11.9c0.2,1.7,0.8,3.3,3,3.5
	c2.2,0.2,3.5,1.9,4.6,3.5c0.6,0.9,1.5,2,0.8,3.2c-0.8,1.4-2.3,1.5-3.5,1c-3.9-1.6-5-0.2-4.9,3.7c0.3,27.4-1.5,54.8-1,82.3
	c0.2,10.1,2.8,20.1,2,30.2c-0.1,1.7,0.8,3.7-1.3,5c-2-29.6-2.1-59.2-2.5-88.8c-0.2-19.5-0.2-38.9-0.4-58.4c0-3,0.8-4.3,4-4.9
	c19.6-3.4,39.3-6.9,58.9-10.5c3.2-0.6,4.9-0.4,4.6,3.7c-1.8,29.5-3.4,59.1-5,88.6c-1.8,31.7-3.5,63.5-5.2,95.2
	c-0.5,8.3-0.9,16.6-1.2,24.9c-0.1,3.5-1.5,4.8-4.9,5.3c-24.2,4-48.5,8.2-72.7,12.6c-4.4,0.8-6.7,0.3-8.6-4.4
	c-9.5-23-19.5-45.8-29.4-68.7c-1.2-2.7-2.6-5.4,1.8-7.2c-4,0.2-5.1-2.1-5.8-5c-3.2-13.7-9.5-26.4-12.2-40.2
	c-0.2-0.8-0.3-1.7-1.4-1.6c-1.3,0.1-1.7,0.9-1.6,2.1c0.2,3.5,0.4,7,0.5,10.5C680.1,222.9,680.2,228.2,680.4,233.5z M716.6,295.2
	c0,0.1-0.1,0.3-0.1,0.4c0,0,0.2,0.1,0.3,0.1c0-0.1,0.1-0.3,0.1-0.4C716.9,295.3,716.7,295.2,716.6,295.2z"/>
<path class="st0" d="M273.3,319.5c-3.1,0-5.7-0.7-7.9-3.2c-3.6-4-8.8-5.5-13.5-7.7c-1.5-0.7-2.8-1.1-2.5-2.9c0.6-4.6-2.1-7.9-5.5-10
	c-12.2-7.5-22-17.7-32.4-27.2c-13.5-12.3-28.7-22.6-41.7-35.4c-3.1-3.1-7-5.1-9.7-8.9c-1.2-1.7-3.5-3.5-6.9-1.6
	c-2.6,1.4-6.3,0.7-9.5,0.9c-8.2,0.4-16,2-22.6,7.3c-1.4,1.1-2.7,0.5-4.1-0.2c-4.5-2.1-7.5-0.5-6.4,4.1c2.2,9.7,2.3,19.7,5.4,29.2
	c1.6,4.9,2.3,10,2.6,15.1c0.2,3.6-0.9,7.9,5,9.2c1.8,0.4,4.3,4.7,4,6.8c-0.6,3.3-3.6,0.7-6.1,0.2c0.6,5.7,2.3,10.9,2.8,16
	c1.4,13.7,5.2,26.9,6.5,40.6c0.5,5.2,2.8,10.2,3.5,15.5c0.3,1.9,1.5,0.5,2.2,0.3c5.2-1.2,10.5-1.2,15.9-1.1c2.2,0,4.1,0.3,4,3.1
	c-3.6-0.5-7.2-1.3-10.9-1.6c-4.6-0.4-8.6,1.5-12.8,4.3c-3.5-19.6-6.9-38.7-10.3-57.8c-4.8-27.5-9.5-55-14.4-82.4
	c-0.6-3.4-0.1-4.5,3.5-5.1c13.6-2.2,27.1-4.9,40.7-7.4c2.9-0.5,5.5-0.7,8.3,1.7c28.4,24.4,56.9,48.6,85.4,72.8c2,1.7,4,3.5,5.9,5.4
	c0.7,0.7,2,1.5,1.4,2.4c-3.4,5.5,1.1,3.8,3.7,4.5c3.2,0.9,5.3,3.6,7.8,5.8c2.1,1.9,4.1,6,6.8,4.7c2.5-1.2,0.3-5-0.2-7.7
	c-5.5-31.9-11-63.7-16.5-95.6c-0.2-1.1-0.4-2.3-0.6-3.4c-1.1-8.6-1.1-8.5,7.8-9.9c13.4-2.2,26.8-4.7,40.2-7c6.3-1.1,7-0.9,6.9,5.4
	c0,3.4,1.3,6.2,1.8,9.3c2.1,11.8,4.3,23.5,6.3,35.3c1.9,11,3.7,21.9,5.8,32.9c0.7,3.5,0.1,5.6-3.7,6.5c-2.4,0.6-4.8,1.6-3.6,5.2
	c0.5,1.3,0.8,2.7,2.1,2.8c1.6,0.1,1.9-0.9,1.6-2.7c-0.3-1.9,1.7-1.5,2.9-1.6c2.1-0.3,2.5,1,2.7,2.7c1.3,7.4,2.6,14.7,3.9,22.1
	c1.3,7.4,2.7,14.7,4,22.1c0.3,2,0.6,4-0.5,5.8c-3.4-1.9-2.8-5.7-3.1-8.5c-0.5-5.1-1.8-10.1-1.3-15.3c0.3-3.1-4-4.8-2.6-8.3
	c-0.6-0.2-1.2-0.5-1.8-0.4c-1.1,0.1-1.1,0.8-1.1,1.7c-0.2,3.1-1.7,3.3-4.1,1.9c-3.6-2.1-7.1-3.2-9.2,2c-0.5,1.1-1.2,2.2-2.5,2
	c-2.2-0.3-1.3-2.7-2.4-3.9c-1.1-1.2,0.6-2.3,1.5-2.4c7.3-0.7,6.3-4.4,3.8-9.3c-0.9-1.9,0.3-3,2.7-2.6c2.7,0.5,3.3-1.2,2.4-3.3
	c-2.3-5.6-2.1-10,4-13.1c2.1-1.1,2.1-9.3,0.4-12.1c-0.5-0.8-1.6-1.7-1.5-2.5c0.7-8.6-3.1-16.4-4.3-24.7c-0.7-5,0-10.8-1.7-15.2
	c-2-5.3-1.2-10.5-2.4-15.6c-0.5-2.1-1.3-2.5-3.4-2.3c-2.4,0.2-4.9-0.5-7.3-0.9c-1.5-0.3-2.4-1.2-2.1-2.8c0.3-1.6,1.6-2.1,3-1.9
	c0.8,0.1,1.6,0.5,2.4,0.6c1.4,0.3,3.2,0.8,4-0.9c0.5-1.1,0.5-2.8,0-3.8c-0.8-1.6-2.8-1.4-4-0.9c-5.4,2.5-11.3,1.6-16.9,2.5
	c-8.2,1.3-16.4,2.9-24.7,4.3c-2,0.3-3.1,1.4-3,3.3c0.3,6.1,0.7,12.2,1.1,18.3c0.1,1.5,2,1.9,2.3,3.1c0.9,3.6,5.2,6.6,1.7,11.2
	c-0.9,1.2-0.4,4,0.3,5.8c2.7,7.9,2.8,16.1,4,24.2c0.2,1.5,0.5,2,1.8,2.2c2.1,0.3,3.6,1.1,3.8,3.7c0.3,3.1,2.6,1.1,3.7,0.7
	c2.8-1.1,5.5-2.8,8.2,0.1c0.7,0.8,1.4,2,0.5,2.6c-2.6,1.9-5.4,2-8.5,1c-1.8-0.6-4.1-1-5.2,1.4c-0.9,2-1.6,3.9,1,5.6
	c2.4,1.6,1.5,4.4,1,6.4c-1.2,5-1.3,9.8,0.3,14.6C274.6,311.7,274.5,315.6,273.3,319.5L273.3,319.5z M325.4,301
	c0.4-2.4-4.1-3-3.8-6.2c-0.5,0-1-0.2-1.4-0.1c-0.8,0.4-0.1,1.1-0.2,1.6c-0.5,1.9-0.2,5-3.8,3.4c-1-0.4-2.1-1.8-2.7,0
	c-0.5,1.4-0.9,3.3,0.9,4.4c0.9,0.6,2.3,0.4,3,1.5c0.7,1.2,1.7,2,3.2,2C320.4,304.4,325.3,305.2,325.4,301z"/>
<path class="st0" d="M233.2,356.6c6.3,2.6,12.3,5.5,16.4,11.3c2.7,3.8,7.1,5.8,10.5,8.9c5.2,4.7,10.7,9.2,15.7,14.1
	c3,2.9,5.9,3.4,8.4,0.4c4.2-4.8,9.3-7.9,14.9-10.6c0.7-0.3,1.9-1,1.9-1.4c-1-5.8,3.7-6.9,7-9.4c2.2-1.7,4.8-3.5,5.4-6.9
	c0.4-2.1,2.5-3.2,4.5-3.4c2.3-0.3,4.3-0.5,4.4-3.5c0.1-2.6-0.6-4.6-3.2-5.6c-0.8-0.3-1.6-0.4-1.7-1.8c0.9-0.5,2.9,0.9,2.9-1.8
	c-0.1-3.4,1.3-4.5,5.1-3.2c5.1,1.9,6.4,0.7,7.2-4.6c3.5,5.1,3.4,11.3,4.3,17c2.1,13.1,4.6,26.1,7,39.2c0.8,4.2,0.5,6.1-4.5,6.8
	c-13.9,2-27.8,4.7-41.7,7.2c-3.6,0.7-5.6-1.7-7.7-3.6c-14.3-12.2-28.5-24.5-42.7-36.9C242.7,364.8,237.3,361.4,233.2,356.6z
	 M341.3,395.5c-0.7-3.2-1.2-6.5-1.1-9.8c0-2.1-1.8-2.9-3-1.7c-2.7,2.5-4.8,0.8-7.3,0c-2.9-1-6.1-3.1-8.6,0.3
	c-2.6,3.6,1.6,4.7,3.1,6.7c1.9,2.6,0.4,8.2-2.1,7.5c-4.2-1.1-3.5,2.2-3.4,3.4c0.2,2.7,2.8,1.6,4.3,1.3c4.9-0.8,9.4-3.1,14.5-2.9
	C340.5,400.4,341.7,398.3,341.3,395.5z M322,346.6c1.7,2,1.4,4.4,3.8,4.7c0.7,0.1,1.4-0.5,1.3-1.2
	C326.8,347.9,325.6,346.6,322,346.6z"/>
<path class="st0" d="M75,188.9c1,1.9,3,2.3,4.2,1.2c1.5-1.3,2.7-3.7,2.1-5.6c-0.7-2.2-0.1-3,1.7-2.9c2.6,0.2,5.8-1.9,7.8,1.3
	c0.8,1.3-0.3,2.1-1.5,2.6c-1,0.4-2,0.6-1.6,2c0.4,1.2,1.6,1.1,2.5,1c3-0.3,6-0.4,8.8-1.2c7.7-2.1,15.8-2.4,23.4-5.3
	c5.9-2.3,12.7-2.5,19.1-3.3c3.6-0.4,6.1-4.3,10.2-2.8c0.2-4.3,5.2-6.3,5.1-11.1c0-2.7,2.2-5.4,3.4-8c3,3.1,5.9,6.2,8.2,10.4
	c-0.8,0.8-2.5-0.8-4,0.2c-1.2,0.8-2.3,1.1-2.2,2.8c0.1,1.6,0.4,3.1,1.6,4c1.5,1.1,2.5-0.4,3.2-1.3c2.5-2.9,4.7-3.1,8.5-1.5
	c4.3,1.8,9.6,2.5,13-2.7c0.5-0.8,1.4-1,2.2-0.8c7.5,1.4,15,0.4,22.1-1.3c8.1-1.9,16.7-1.7,24.1-4.4c7.9-2.9,16.1-0.5,23.5-3.5
	c9-3.6,19.2-1.5,27.8-6.5c1.2-0.7,2.9-0.4,4.4-0.4c5.4,0,9.8-1.8,12.9-6.3c1.2-1.8,6.8-1.5,7.6,0.5c0.8,1.9,2.1,1.9,3.6,1.8
	c5-0.3,10.1,0.1,14.8-1.2c8.3-2.4,17.1-2.2,25.3-4.8c7.3-2.4,15.1-1.4,22.3-3.8c1-0.3,2.7,0.2,2.7-1.5c0-1.1-1.9-1.3-2.1-1.7
	c-1.3-3.5-7.2-4.1-5.8-9.5c2.7,5,9.4,5.1,11.9,10.3c0.6,1.3,1.9,0.6,3.1,0.5c13-1.4,25.5-5.1,38.4-6.9c6-0.9,12-2.5,18.2-2.4
	c2.8,0.1,5.3-1.1,7.9-1.8c9.2-2.3,18.5-3.3,27.9-4.4c8.2-1,16.2-3.7,24.5-4.8c9.5-1.3,19-2.9,28.4-5.1c5.2-1.2,10.3-2.6,15.7-2.9
	c1-0.1,1.7-0.5,2.5-1.3c3-3.3,8.4-3.8,12.8-1.4c-2.5,0.5-5.9-0.8-6.6,3.6c-0.1,0.5-2,0.9-3.1,1.1c-37.3,6.4-74.7,12.7-112,19.2
	c-39,6.8-77.9,13.8-116.8,20.6c-36,6.2-72.1,12.2-108.1,18.4c-29.5,5.1-58.9,10.3-88.4,15.4c-24.2,4.2-48.5,8.4-72.7,12.6
	c3.1-3.2,8.3-1.2,11.5-4.5C71.6,192.2,72.9,189.6,75,188.9z"/>
<path class="st1" d="M250.2,479.5c-1.1-1.7-1-3.7-1-5.7c0.3-1.9,1.2-3.3,2.4-4.8c4-4.9,9.5-8.2,13.2-13.4c2.4-3.3,4.3-2.5,5.9,1.5
	c0.7,1.7,1.3,3.3,1.6,5.2c1.2,8,2.6,16,4.1,23.9c1.8,10.4,4.5,20.7,4.9,31.3c0.1,3.3-1,4.8-4.6,4.9c-4.4,0.1-9,0.5-13.3,1.5
	c-3.3,0.8-4.4-0.5-4.9-3.1c-1.8-10.4-3.4-20.9-5.4-31.2C252.6,486.2,253.3,482.2,250.2,479.5z"/>
<path class="st0" d="M485,407.2c4.4-7.2,11.9-9.8,19.2-12.3c11.3-3.7,23.2-3.8,34.9-3.7c1.9,0,3.1,0.3,3.4,2.5
	c0.7,4.9,1.7,9.8,2.6,14.7c0.5,2.4-0.5,3.1-2.9,3.1c-7.6-0.2-15.3-0.5-22.9,0.9c-2.6,0.5-5.2,1.1-7.6,2.2c-2.3,1.1-4,2.8-3.8,5.3
	c0.1,2.7,1.8,4.5,4.5,5.4c3.6,1.2,7.2,1.1,10.9,1.1c5.7,0.1,11.3,0.5,16.8,1.9c10.1,2.6,15.4,9.4,16.9,19.4
	c1.5,10-0.7,18.9-9.4,25.2c-8.2,5.9-17.8,7.8-27.5,9.4c-8.7,1.4-17.6,1.3-26.4,1.5c-2.7,0-3.8-1.1-4.2-3.6
	c-0.7-4.3-1.4-8.5-2.3-12.7c-0.6-3.1,0.1-4.4,3.7-4.3c9.8,0.4,19.6,0.3,29.3-1.7c4.7-1,8.9-2.3,11.3-7.4c1.2-2.6,0.2-2.1-1.2-2.8
	c-5.2-2.3-10.6-2.5-16.1-2.4c-7.4,0.1-14.6-0.5-21.3-4C480.4,438.4,476.2,418.3,485,407.2c0.5,4.1,0.2,7.9-1.9,11.6
	c-1.4,2.4-1.9,6.7-0.4,7.5c4.5,2.3,3.1,7.3,5.6,10.4c1.1,1.4,1.6,3.8,3.5,4.9c5.4,3.2,10.7,5.4,17.4,5.1c7.8-0.4,15.8,1,23.7,1.4
	c1.9,0.1,1.5,0.8,1.6,2.1c0.6,6.5-3.6,10.4-9,12c-9.5,2.7-19.4,3.4-29.4,2.4c-1.4-0.1-3.5,0-3.3,1.3c0.4,3.6-1.7,6.7-1.2,10.1
	c0.5,2.9,1.8,4.9,5.3,4.5c8.1-1,16.3,1.2,24.5-0.8c4.1-1,8.2-2.6,12.3-3.1c3.6-0.4,4.5-2.1,4.5-5.2l0,0c1.3-0.3,2.5-0.8,3.8-0.9
	c6-0.5,9.6-3.1,10.8-8.4c1.6-6.7,0.2-13.5,0.2-20.2c0-0.8-0.9-1.7-1.5-2.5c-5.7-7.7-14.1-10-23-10.9c-5.8-0.6-11.6,0.7-17.3-0.9
	c-5.7-1.6-8.5-7.3-5-11.8c1.4-1.8,1.4-5.4,5.2-5.3c5.5,0,10.8-2.1,16.5-1.1c3.2,0.6,6.6,0.2,10,0c2.4-0.1,4.6-1.4,4-3.9
	c-0.8-3.1-1.3-6-0.8-9.2c0.1-0.7-0.5-2-1-2.1c-4.5-1-9.1-2.2-13.7-0.5c-1.8,0.7-1.7,2.6-0.3,3.6c5.7,3.9,0.4,4.9-1.7,5.8
	c-4.5,2-6.9,0.1-7.4-4.8c-0.4-3.5-3.5-3.6-5.2-2.3c-6.5,5.1-15.5,3.1-21.8,8.6C488.7,405.7,487.5,407.8,485,407.2z"/>
<path class="st0" d="M425.1,442.3c-0.1-9.5-2.8-18.7-4.3-28c-0.5-3.1-0.1-4.2,2.8-4.6c6.4-1,12.8-2.1,19.2-3.3
	c2.3-0.4,3.6-0.1,3.9,2.7c0.5,4.3,2.6,8.7,2,12.7c-0.8,5,2.3,8.6,2.7,13.1c0.5,5.3,1.7,10.5,2.6,15.7c0.9,5.1,1.8,10.1,2.7,15.2
	c1.4,7.5,2.8,15,4.2,22.5c0.4,1.9,0.2,3-2.2,3.3c-6.4,1-12.7,2.3-19,3.8c-3.7,0.8-5-0.6-5.5-4.1c-1.3-8.4-2.9-16.7-4.2-25.1
	c-0.4-2.8-1.4-4-4.6-3.4c-7.7,1.5-15.4,2.8-23.1,3.9c-4.1,0.5-4.6,2.5-3.9,6c1.7,8.3,2.9,16.7,4.6,25c0.6,3.1-0.6,4.2-3.3,4.7
	c-6.1,1-12.1,2-18.1,3.2c-3.3,0.7-4.4-0.4-4.9-3.8c-4.4-25.9-8.9-51.7-13.6-77.5c-0.5-2.8,0-3.7,2.9-4.2c6.6-0.9,13.1-2.3,19.6-3.5
	c1.2-0.2,2.7-0.6,3.4,2.1c-6.9-1.4-11.3,1.9-14.5,7.4c-0.1,0.2-0.2,0.3-0.4,0.5c-0.5-0.4-1.1-0.8-1.5-1.3c-0.8-1.1-0.5-3.6-2.4-3.2
	c-1.7,0.4-3.8,1.7-4,3.9c-0.2,2.8-0.6,5.8,0.1,8.4c2.8,9.8,3.4,19.9,5.6,29.8c2.3,10.5,3.5,21.3,13.1,28.3l0,0
	c-2.2,0.1-3.4,1.9-5.3,2.7c-1.2,0.5-2.2,1.5-1.4,2.7c1.8,2.5,3.2,6.4,7.6,3.7c0.2,0.1,0.3,0.3,0.5,0.4c-0.1-0.1-0.3-0.3-0.4-0.4
	c0.1-1.9-2.4-4.1-0.1-5.5c2-1.2,3.4,1.2,5,2.4c0.3,0.2,0.4,0.6,0.6,0.8c2.5,2.1,5.1,0.2,7.5,0c2.5-0.2,0.9-2.7,1-4.1
	c0.3-4-0.8-7.7-2.2-11.6c-1.7-4.6-2.2-9.6-2.6-14.6c-0.3-3.1,2-4.7,5-4.1c1.1,0.2,1.9,0.1,2.8-0.2c7.3-2.6,15.4-1.1,22.7-4.3
	c2.6-1.2,6.5-0.8,6.6,3.4c0,3.2,0.5,6.3,0.9,9.3c0.9,6.3,1.2,12.9,3.8,18.9c0.5,1.2,1.4,3.2,2.6,1.8c2.7-3.3,6.2-1.6,9.3-2.2
	c3.4-0.6,8.6,0,8.7-4.6c0.1-5.4,0.7-11.3-2.9-16.2c-0.8-1.1-1.8-2.1-1.5-3.5c1.1-4.8-0.6-9.6-1.6-13.8c-1.9-8.4,0-17.9-6.2-25.3
	c-0.5-0.6-1.1-1.9-0.9-2.2c3.6-4.3-0.6-8.2-0.5-12.3c0.1-4-3.3-6-7-4.3c-1.2,0.5-2.5,1.8-3.5,1.6c-2.8-0.5-5.4,0.3-7.7,1.1
	c-3.7,1.4-0.1,4.6-0.9,7.1c-1,3.2-0.6,6.5,2,9c0.9,0.9,1.2,1.9,0.8,3.2c-1,2.8-0.9,5.5-0.1,8.3c0.6,2-0.8,2.6-2.3,3.2
	C425.3,442.5,425.2,442.4,425.1,442.3z"/>
<path class="st0" d="M834.2,391.5c-0.4,12.8,0.4,13.4,12.5,11.1c9.1-1.7,18.3-3.1,27.5-4.9c3.1-0.6,4.2,0.3,4.5,3.3
	c0.3,3.5,0.7,7,1.8,10.3c1.7,5-0.2,6.5-4.9,7.2c-18.5,3-37,6.4-55.5,9.6c-1,0.2-2.1,0.5-3,0.3c-1.3-0.3-3.1,1.8-3.8-0.6
	c-0.7-2.3,2.6-0.9,2.8-3c-3.6,1.1-3.9-1.3-4.4-3.9c-4.2-24.6-8.5-49.1-12.9-73.6c-0.6-3.3,0.4-3.7,3.3-4.2
	c19.3-3.4,38.6-6.9,57.8-10.6c4.4-0.8,6.4,0,6,5.1c-0.2,3.1,1.4,6.3,2.1,9.5c0.7,3,0.4,4.9-3.5,5.4c-11,1.7-21.9,4-32.9,5.7
	c-3.3,0.5-3.7,1.8-3.3,4.6c1.4,8.6,1.3,8.7,9.9,7.3c7.2-1.1,14.4-2.5,21.6-3.8c4.3-0.8,7.4-0.1,7.9,5.1c0.3,3.6,1.1,7.2,1.9,10.8
	c0.5,2,0.1,3.1-2.1,3.4C856.5,387.8,845.3,389.7,834.2,391.5c2-2.3,4.4-3.3,7.5-3.1c3.2,0.2,6.5-0.6,9.1-2.2c3.3-2.1,3-2.6,7-1.2
	c2.8,0.9,10.3-1.2,10.1-3.1c-0.4-4.4-0.8-9.4-3.6-12.7c-1.9-2.2-6.5-1.4-9.5-0.4c-7.1,2.3-14.5,2.9-21.7,4.4
	c-2.2,0.5-4.5-0.3-5.2-2.1c-1.5-3.6-2.6-7.5-2.2-11.5c0.3-3.2,2.2-4.4,5.5-4.2c10.9,0.7,21.1-3.2,31.6-4.7c4.1-0.6,3.7-2.8,2.7-5.7
	c-0.6-1.7-2-2.9-2.4-4.9c-0.3-1.8,2.5-4.2-0.1-5.2c-1.8-0.7-4.2,0.3-6.3,0.5c-2.1,0.2-3.5,3.1-6.1,1.2c-0.5-0.3-1,0.4-0.9,1.3
	c0.4,2.7-0.9,3.1-3.5,3.2c-2.6,0.1-5-1.7-7.1-1.3c-7.9,1.6-15.9,0.8-23.8,2.9c-4.2,1.1-7.8,4.2-12.5,3.8c-2-0.2-1.6,2.1-1.5,3.5
	c0.9,8.2,4.3,15.8,4.4,24.2c0.1,4.9,0.9,9.9,2.5,14.6c0.7,2.2,2.2,4.1,2,6.6c-0.6,8.1,3.2,15.6,3.2,23.6c0,2,6.6,7.1,8.1,6.5
	c7.3-3,15.3-1.6,22.8-4c7.2-2.3,14.9-2.7,22.5-3.3c10.1-0.9,11.1-2.1,10.4-11.9c0-0.3,0-0.7,0-1c0.4-3.9-1.3-5.7-5.2-5.1
	c-9.1,1.5-18.1,3.1-27.2,4.6c-2.4,0.4-3.9,1.4-4.8,3.7c-0.6,1.6-2.2,2-3.8,1.5c-1.6-0.5-2.1-1.5-1.4-3.1c0.8-1.7-0.9-2.7-1.1-4.1
	C833.1,399.2,829.8,395.2,834.2,391.5z"/>
<path class="st1" d="M713.5,407.4c4.7,25.7-11.2,42.5-33.6,46c-4.5,0.7-8.8,2.9-13.6,1.9c3.3-3.7,6.2-7.8,9.9-11.1
	C689.4,432.6,701.2,419.7,713.5,407.4z"/>
<path class="st0" d="M182.3,346.5c-0.1-10.6-2.4-20.8-5.4-30.9c-0.7-2.2-1.1-4.2,1.1-5.8c2.3-1.7,4.3-1,6.2,0.7
	c8,7.2,15.2,15.2,23.9,21.6c1.3,0.9,1.3,2.2,1.1,3.6c-9.1-6.3-16-14.8-24.3-22c-0.9-0.8-1.7-1.6-2.6-2.2c-1.2-0.8-2.2-0.3-3.1,0.7
	c-0.6,0.6-0.8,1.1-0.5,2.1c5.1,16.3,6.4,33.5,9.7,50.2c3.6,18.2,6.4,36.6,9.7,54.9c1.4,8,1.5,7.7-6.6,9c-14.6,2.4-29.1,4.9-43.6,7.7
	c-3.6,0.7-4.2-0.5-4.7-3.5c-2.1-12.9-4.5-25.8-6.7-38.7c-0.4-2.5-1.2-5.3,3.1-4.6c1.6,0.2,1.8-0.9,2.3-1.9c1.7-4,4.6-4.2,8.4-3.4
	c3.1,0.7,6.9,1.6,8.1-3.2c3,0.5,3.4,2.8,2.7,4.9c-0.7,2.1-2.7,1.8-4.6,1.3c-2.7-0.7-5.7,0.3-8.3-1.3c-1.2-0.8-1.7,0.2-2.3,1.1
	c-1.6,2.4-2.5,5.4-6.3,5.7c-1.4,0.1-1.7,2.4-0.9,3.4c3.5,5,2.8,10.9,3.3,16.3c0.6,5.4,2.6,10.6,2.4,16.2c-0.1,5.5,1.4,6.2,6.7,4.7
	c3.7-1.1,7.5-0.4,11.3-1.3c9-2.1,18.1-3.8,26.6-7.4c0.6-0.2,1.3-0.3,1.9-0.3c5.9,0.7,6.5,0.5,4.7-5.3c-3.2-10.4-4.2-21.2-6.2-31.8
	c-2.2-11.8-6.4-23.5-5.2-35.9C184.4,349.2,185.1,347,182.3,346.5L182.3,346.5z"/>
<path class="st0" d="M310.1,431.2c-0.3-2.6,1.9-2.4,3.3-2.8c11.4-3.5,23-4.8,34.9-4.9c2.9,0,4.1,0.9,4.3,3.9
	c0.4,4.4,1.2,8.9,2.2,13.2c0.7,3-0.1,3.9-3.1,3.8c-7.7-0.1-15.3,0.7-22.8,2.2c-5.2,1-10.3,2.2-14.7,5.6c-2.1,1.6-4.3,1.8-3.6,6.1
	c0.7,4,0.1,8.5,0.6,12.8c0.6,4.6,1.6,9.1,3.3,13.5c3,7.6,7.3,10.3,15.4,9.6c10.6-1,11-1.6,8.9-11.9c-2.8-14-2.8-14,11-16.1
	c10.6-1.5,10.5-1.5,12.3,9c1.5,8.8,3,17.7,4.7,26.5c0.4,2.1,0.3,3.2-1.9,4.2c-14.8,6.5-29.9,11.2-46.3,9.6
	c-10.7-1.1-19.9-5.1-25.4-15.1c0.1-0.1,0.3-0.2,0.4-0.4c0.9,0.4,2,0.7,2.5,1.4c3,4.4,6.2,7.6,12.3,5.7c1.4-0.4,4.7,0,3.7,3.5
	c-0.7,2.4,1.4,1.9,2.3,2.3c7.8,2.9,15.7,1.2,23.6,0.1c8-1.2,15.2-5.1,23-7.1c2.7-0.7,3.4-2.8,3.2-5.4c-0.5-9.9-2.4-19.5-5-29.1
	c-1.2-4.5-3.3-4.3-6.3-4c-4.1,0.5-8,2-12.2,2.4c-2.6,0.2-3.1,2.3-1.6,4.4c1.1,1.5,2.5,2.7,1.6,4.8c-1.4,3.2,0.2,6.3,0.8,9.2
	c0.9,4.4-0.2,6.8-4.7,7c-4.2,0.2-8.3,0-12.5,0.1c-2.3,0.1-4-0.7-5.9-2c-5.8-4.2-6.6-10.9-8.1-16.9c-1.9-7.7-2.2-15.9-3.3-23.8
	c-0.2-1.4-0.2-3.6,1.2-2.9c4.2,1.9,6.7-1.5,10.1-2.3c10.3-2.5,20.6-4.9,31.3-5.1c1.6,0,3.4-0.3,3.1-2.3c-0.7-4.2-0.5-8.6-2.9-12.5
	c-0.9-1.4-1.9-2.6-3.5-2.1c-5,1.6-10.1,0.2-15.2,1.3c-6.9,1.5-14.1,1.8-20.7,4.9C310.3,431.5,310.2,431.4,310.1,431.2z"/>
<path class="st0" d="M713.5,407.4c-12.4,12.3-24.1,25.2-37.2,36.8c-3.7,3.3-6.6,7.4-9.9,11.1c-2.1-0.1-4.2-0.1-6.3-0.2
	c6.3-5.9,4.1-13.5,3.9-20.6c2.1,0,4.3,0.2,6.4-0.1c5.7-0.8,12-0.9,15.4-6.4c2.1-3.4,3.9-6.6,9-8.4c-5.9-1.5-7.6-4.9-7.4-9.4
	c3.5-1.7,7-3.6,11.2-2.9c5.7,0.9,10.7-0.3,14.4-5C713.1,404,713.3,405.7,713.5,407.4z"/>
<path class="st0" d="M250.2,479.5c3.1,2.7,2.4,6.7,3,10.1c1.9,10.4,3.5,20.8,5.4,31.2c0.5,2.6,1.6,3.9,4.9,3.1
	c4.3-1,8.8-1.4,13.3-1.5c3.5-0.1,4.7-1.5,4.6-4.9c-0.4-10.6-3-20.9-4.9-31.3c-1.4-8-2.8-15.9-4.1-23.9c-0.3-1.9-1-3.5-1.6-5.2
	c-1.6-4-3.5-4.8-5.9-1.5c-3.7,5.2-9.2,8.5-13.2,13.4c-1.2,1.5-2.1,2.9-2.4,4.8c-2.2-3.5-0.5-7-0.1-10.4c4.6-4.6,7.8-10.8,15.7-11.2
	c3.3-0.2,4.1-3.5,2.3-6.4c-3.4-5.4-8.7-5.8-14.3-5.6c3.1-0.6,6.1-1.3,9.2-1.9c7.2-1.3,7.1-1.3,8.4,6.1c4.1,23.2,8.3,46.4,12.6,69.6
	c1.5,8.1,1.7,8.1-6.8,9.6c-4.9,0.9-9.8,1.8-14.7,2.8c-2,0.4-3.5,0.3-3.9-2.3C255.2,509.3,251.9,494.5,250.2,479.5z"/>
<path class="st1" d="M252.8,440.2c5.5-0.1,10.9,0.2,14.3,5.6c1.8,2.8,1,6.2-2.3,6.4c-7.8,0.4-11.1,6.6-15.7,11.2
	c-3.8-0.5-2.4-3.5-2.8-5.7c4.2,0.7,7-1.3,8.5-4.9c1.4-3.4-0.1-6-3.4-7.6c-2.2-1.1-2.7-2.6-1.2-4.7
	C251.2,440.4,252,440.3,252.8,440.2z"/>
<path class="st0" d="M293.2,500.4c-13.4-17.3-12.1-48.7,2.4-62.4c4.1-3.9,8.8-6.4,14.5-6.8c0.1,0.1,0.3,0.3,0.4,0.4
	c-0.5,1.2,0,2.9-2.3,3.2c-10.7,0.9-16,8.4-19.9,17.2c-1.5,3.5-1,5.4,3.5,4.7c2.3-0.4,4.7-0.1,5.6,2.7c-1.9,0.1-3.7-1.2-5.8-0.4
	c-2.1,0.7-4.9,0.5-4.1,4c-2.5,0.6-2.3,2.6-2.1,4.4c0.4,4.1,0.9,8.2,1.6,12.2c1.2,7.1,4.2,13.6,6.7,20.3
	C293.5,500.2,293.4,500.3,293.2,500.4z"/>
<path class="st0" d="M374.6,426c4.2-1.5,9-0.9,13-3.3c2-1.2,2.4,0.4,2.7,2c1,6.2,2.1,12.4,3.1,18.6c0.4,2.8,1.1,4.2,4.8,3.5
	c8.9-1.9,18-3.1,27-4.6c0.1,0.1,0.2,0.2,0.4,0.4c-0.2,2-1.2,2.8-3.3,2.8c-2,0-4.4-0.4-5.8,0.6c-6.1,3.9-12.6,2.5-19.1,2.4
	c-2.8,0-4.1-0.8-5.3-3.7c-1.6-3.9-2-7.9-3.2-11.8c-1.4-4.6-3.7-6.3-8.3-5.6c-2,0.3-4.3,0.9-6.2-0.8
	C374.3,426.3,374.4,426.2,374.6,426z"/>
<path class="st0" d="M250.4,440.5c-1.6,2-1.1,3.6,1.2,4.7c3.2,1.6,4.8,4.2,3.4,7.6c-1.5,3.6-4.3,5.6-8.5,4.9
	c-1.2-4.3-1.8-8.7-2.7-13C242.5,439.4,247.8,441.5,250.4,440.5z"/>
<path class="st0" d="M158.1,372.3c1.4,0.4,3,1.7,1.4,2.5c-3.4,1.6-1.4,3.7-1.3,5.7c-2.3-0.1-4.6-1.9-6.9-0.1c-1-2.5,2.2-2.8,1.9-4.8
	c-2.6-1.1-4.2,2.9-6.6,1.4c1.9-2.4,3.9-4.7,7.8-2.4C155.5,375.4,157.3,373.9,158.1,372.3z"/>
<path class="st0" d="M218.1,343.6c3.3-0.5,5.6,0.6,7.6,3.5c2.3,3.3,6.4,5.2,7.5,9.5C227.7,352.8,222.8,348.4,218.1,343.6z"/>
<path class="st0" d="M209.1,335.6c5.5-0.1,7.2,4,9,8C214.5,341.7,211.7,338.8,209.1,335.6z"/>
<path class="st0" d="M53.4,199.6c-0.3-3.1,1.6-3.8,4.1-4C57.7,198.6,54.9,198.5,53.4,199.6z"/>
<path class="st0" d="M156.1,369.6c1.6-0.1,2.1,0.8,2.1,2.3C157.2,371.4,154.9,372.1,156.1,369.6z"/>
<path class="st0" d="M656.2,454.4c1.1-0.1,2.2-0.3,3,0.7C658.1,455.5,657.1,455.2,656.2,454.4z"/>
<path class="st0" d="M894.6,454.2c2.6,3.6,6.5,2.1,10,2.6c1.5,0.2,2.7,1.3,2.4,3.2c-0.3,1.8-1.6,2.6-3.2,2.3
	c-4.1-0.8-7.9-2.8-12.5-1.6c-1.4,0.4-1.7-2.9-1.5-4.1C890.1,454.6,892.6,455.1,894.6,454.2z"/>
<path class="st0" d="M566.1,524.2c-0.1,4-3.9,3.7-5.8,4.2c-1.8,0.4-0.7-3-1.7-4.6c-0.9-1.7,1.9-2.8,3.6-3.1
	C564.7,520.4,565.7,522.2,566.1,524.2z"/>
<path class="st0" d="M554,532.3c2.3-0.3,4.4-3.2,6.8-1c0.3,0.3,0.2,1.5-0.1,1.8C558.3,535.4,556.3,532.5,554,532.3z"/>
<path class="st0" d="M854.8,51.5c0,1-0.6,1.5-1.4,1.7c-0.9,0.2-1.7-0.4-1.8-1.3c-0.2-1.1,0.4-1.9,1.6-2
	C854.1,49.9,854.6,50.6,854.8,51.5z"/>
<path class="st0" d="M535.1,552.4c-1.8,1.2-3,1.2-4.8,0C532.1,551.2,533.3,551.2,535.1,552.4z"/>
<path class="st0" d="M694.2,40.9c-1.2,1-2.4,0.6-3.7,0.1C692.1,38.8,693,41.4,694.2,40.9z"/>
<path class="st0" d="M189.6,137.6c0.6,5.2-4.4,6.4-6.5,9.5c-1.4,2.1-1.3,2.3,0.3,3.5c3.3,2.4,2.4,4.1-1,5.5c-3.9,1.6-7-0.6-10-2.4
	c-1.5-0.9-0.2-2,0.6-2.8c2.3-2.3,4.8-4.6,6.9-7.1c1.3-1.6,4-2.6,2.8-5.7c-0.2-0.5,0.9-3.5,2.3-1.6
	C186.5,138.7,189.2,133.9,189.6,137.6z M183.1,153.4c-1.9-1.7-3.7-2.8-6.1-1.6c-0.3,0.1-0.4,1.1-0.3,1.3
	C178.6,154.5,180.6,155.1,183.1,153.4z"/>
<path class="st0" d="M51.7,359c-1.2,0.2-1.7-1.7-3.1-1.2c-2,0.8-3.3,0.5-3.3-2c0-1.9-0.5-4.5,2.4-4.6c3.6-0.1,6.5-2.1,9.8-2.8
	c6.6-1.6,6.6-1.5,8,5.1c0.3,1.4,1.3,2.8-0.3,4c-2.4-1.7-0.2-7.1-5.4-6.7c1.8,4.1-0.3,5.4-4,6.2C54.5,357.4,51.7,355.8,51.7,359z"/>
<path class="st0" d="M533.9,90.5c0,3.2-5,9-7.3,9c-2,0-3.7-0.9-4-3c-0.5-3.6,3.4-8.9,6.5-8.8C531.2,87.7,533.4,88.3,533.9,90.5z"/>
<path class="st0" d="M55.3,432.4c-2.1-0.6-5.2-0.7-2.3-4.5c0.4-0.5,0.3-1.3,0.6-1.9c0.8-1.6-1.2-5.4,2.2-4.6c1.8,0.4,6,1.7,5.2,5
	C60.4,428.8,59.7,432.5,55.3,432.4z"/>
<path class="st0" d="M80.7,542.9c2-3.1,5.1-3.3,8.5-0.5c2.6,2.1,2.2,4.2-0.2,6.2c-1.5,1.2-3,2.6-4.7,3.5c-1,0.6-2.4,0.3-3.2-0.7
	c-0.9-1.1-0.1-1.8,0.8-2.4c2.4-1.8-0.3-2.7-0.7-4c1.5-1.2,3.9,0.7,5.1-1.5C84.5,542,82.6,542.4,80.7,542.9z"/>
<path class="st0" d="M85.4,423.2c-3,0-6.1,0.3-9.1-0.1c-2.2-0.3-3.9-1.3-3-4.3c1-3.5,2.8-1,4.1-0.7
	C80.5,418.7,82.8,420.9,85.4,423.2z"/>
<path class="st0" d="M109.9,622.5c-0.6,3.6-3.3,4.2-5.9,4.6c-1.8,0.3-3.7-1.2-3.2-2.8c0.4-1.6,0.7-4.7,3.4-4.3
	C106.2,620.3,109,619.9,109.9,622.5z"/>
<path class="st0" d="M89.3,595.5c0-1.9,0.1-4.2,2.6-3.8c2.7,0.4,3.6,3.6,4.6,5.6c0.5,1.1-2.8,1.5-4.4,1.7
	C89.7,599.5,89.3,597.4,89.3,595.5z"/>
<path class="st0" d="M581.7,79.9c1.6-0.3,3.4-0.2,2.5,2c-0.8,1.9-2.3,4.1-4.7,3.4c-1.9-0.5-4.4-1.8-5.1-3.4c-1.4-3,1.6-2,3-2.2
	c-0.3,0.9-2.1,2.2,0.1,2.5C579.1,82.5,581.9,83.4,581.7,79.9z"/>
<path class="st0" d="M104.3,558.6c-3.5-0.6-7.1-1.8-10.6,0.2c0.8-3.1,3.6-4.1,6-4.7C103.1,553.2,104.1,555.8,104.3,558.6z"/>
<path class="st0" d="M51.7,359.1c2.1,0.9,4.2,1.5,6.5,1.3c-0.1,1.2,0.5,3.2-1.6,2.5C54.6,362.3,50.9,363.3,51.7,359.1z"/>
<path class="st0" d="M57.5,187.7c-1.6,3.3-4.2,1.9-6.4,1.1c-2.3-0.8-2.2-2.6-1-4.4c0.2,0.2,0.5,0.4,0.7,0.7c0.6,4.9,3.6,2.4,6,2
	C57,187.3,57.2,187.5,57.5,187.7z"/>
<path class="st0" d="M58.2,360.4c2-1.7,4.7-1.3,7-2.2C63.9,362.3,60.6,359.8,58.2,360.4z"/>
<path class="st0" d="M50.1,184.3c2-2.4,4.2-3.7,7.3-1.9c-0.1,0.1-0.2,0.3-0.4,0.4c-2.4-0.2-4.1,1.6-6.2,2.2
	C50.6,184.8,50.3,184.6,50.1,184.3z"/>
<path class="st0" d="M57.4,182.4c3,1.7,2.9,3.5,0.1,5.3c-0.2-0.2-0.4-0.4-0.6-0.6c0.4-1.4,1.9-2.7,0.2-4.2
	C57.1,182.7,57.3,182.6,57.4,182.4z"/>
<path class="st0" d="M93.6,559c-0.9,3-3.6,1-5.2,1.8C89.7,558.8,91.5,558.4,93.6,559z"/>
<path class="st0" d="M63.6,491.6c0.1-0.8,0.4-1.5,1.2-1.4c0.2,0,0.5,0.8,0.5,1.2c0,0.5,0.2,1.5-0.9,1.2
	C64,492.5,63.8,491.9,63.6,491.6z"/>
<path class="st0" d="M76,187.8c-0.9-0.1-1.9-0.3-2.8-0.4c0.9-0.9,1.8-2.1,3.2-1.1C77.2,186.9,76.6,187.5,76,187.8z"/>
<path class="st0" d="M51.2,162.2c-0.2-0.2-0.5-0.5-0.4-0.7c0-0.5,0.5-0.7,0.9-0.4c0.2,0.1,0.4,0.6,0.3,0.8
	C51.8,162,51.4,162.1,51.2,162.2z"/>
<path class="st0" d="M88,537.8c0.3,0.1,0.6,0.2,0.8,0.4c-0.1,0.3-0.2,0.7-0.4,0.8c-0.2,0.1-0.5-0.2-0.8-0.3
	C87.8,538.4,87.9,538.1,88,537.8z"/>
<path class="st0" d="M120.2,584.5c-0.3,0.3-0.6,0.6-0.9,0.9C119.6,585,119.9,584.7,120.2,584.5z"/>
<path class="st0" d="M502.6,549c0.5,0.3,0.9,0.7,1.4,1C503.1,550.1,502.6,549.8,502.6,549z"/>
<path class="st0" d="M775.3,288.6c-2.6,5.2-5.9,9.6-11.4,12.4c-1.7,0.8-3.4,2.6-3.1,5.9c0.4,4.6-3.2,9.2-0.1,14.2
	c0.8,1.3-1.1,2.5-2.4,2.2c-1.5-0.3-3.3,1.8-4.4-0.4c-2.4-4.8-7.6-5.3-10.6-1c-0.5-2.7,2.6-8.4,5.1-10c2.4-1.6,7.1-1.5,5.3-6.6
	c-0.3-0.9,1.1-1.5,2.1-1.7c1.2-0.3,2.8-1.2,2.1-2.2c-4.7-6.8,3.3-7.3,5.2-7.8c4.3-1.1,0.9-2.8,1.1-4c3.7-0.4,7.3-0.8,11-1.1
	C775,288.3,775.3,288.6,775.3,288.6z M753.7,312.7c0.9,0.7-1,2.5,1,2.7c1.6,0.1,1.5-1.5,1.7-2.5c0.4-1.6-1-1.9-2.1-2
	C753.1,310.8,753.5,311.8,753.7,312.7z"/>
<path class="st0" d="M621.1,315.4c-3.7,1.5-7.1-1.1-10.7-0.4c-1.1,0.2-1.2-1.6-0.7-1.7c5.3-1.7,4.9-7.1,7-10.8
	c1.2-2.1,2.5-3.7,5-2.6c2.5,1.1,6.4-0.1,7.4,3.7c0.8,3-1.2,4.9-3.3,6.7c-0.8,0.7-1.6,1.3-2.6,0.5c-1.6-1.3-3.8-2-5-0.3
	C615.5,313.9,621.1,312.8,621.1,315.4z M622.7,306.4c1.2-0.4,3.7,1.3,3.5-1.6c-0.1-2.1-2.1-2.9-4-2.6c-1.5,0.2-3.8,0-3.7,2.3
	C618.6,307.2,620.9,306.4,622.7,306.4z"/>
<path class="st0" d="M584.5,236.6c2.3-0.9,2.8,0.1,2.6,1.7c-0.4,2.4,0.2,5.7-3.7,5.5c-1.6-0.1-4.1-1-3.4-2.6
	C580.9,239.3,579.9,234.4,584.5,236.6z"/>
<path class="st0" d="M768.5,311.6c1.5-0.1,2.7,0.3,2.6,2.1c-0.2,1.9-0.7,3.6-3,3.7c-1.8,0.1-2.8-0.5-2.8-2.5
	C765.2,312.7,766.2,311.6,768.5,311.6z"/>
<path class="st0" d="M809.6,208.3c0.7-0.9,1.5-0.1,2.3-0.1c1.8-0.1,3.9-1.7,5,1.1c0.3,0.8-0.2,2.1-1,1.7
	C813.8,210,809.8,213.4,809.6,208.3z"/>
<path class="st0" d="M594.4,238c-1.7-1.7-4.1-3.1-2.6-5.8c0.6-1,1.8-0.5,2.6,0C597.6,234.1,594.4,236,594.4,238z"/>
<path class="st0" d="M638.7,180.6c-1.2,0-2.6,0-2.8-1.4c-0.2-1.5,1.3-1.7,2.4-1.7c1.1,0,2.6-0.2,2.8,1.3
	C641.2,180.5,639.8,180.5,638.7,180.6z"/>
<path class="st0" d="M536.1,195.4c3.2-3.8,4.3-3.8,7.2,0c-0.1,0.1-0.3,0.3-0.4,0.4c-2.1-0.8-4.3-0.8-6.4,0
	C536.4,195.7,536.2,195.6,536.1,195.4z"/>
<path class="st0" d="M811,183.6c0,0.7,0,1.5-1,1.2c-1-0.3-1.8-0.8-1.7-2.1c0.1-0.7,0.4-1.5,1.1-1.4
	C810.5,181.5,810.7,182.7,811,183.6z"/>
<path class="st0" d="M807.7,263.1c-0.1-0.7-0.4-1.2-0.3-1.5c0.1-0.3,0.7-0.4,1-0.6c0.1,0.3,0.4,0.6,0.3,0.8
	C808.6,262.2,808.2,262.5,807.7,263.1z"/>
<path class="st0" d="M776.9,293.7c-0.3,0.3-0.5,0.9-0.9,1c-0.6,0.2-0.8-0.4-0.7-0.9c0.1-0.4,0.6-0.6,0.9-0.9
	C776.5,293.1,776.6,293.3,776.9,293.7z"/>
<path class="st0" d="M778.5,314.3c-0.7-0.2-1.1-0.6-1.1-1.3c0-0.5,0.4-0.8,0.8-0.3c0.4,0.4,0.8,1,1.2,1.4
	C779,314.2,778.7,314.3,778.5,314.3z"/>
<path class="st0" d="M792.9,277.7c-0.3,0.3-0.5,0.9-0.9,1c-0.6,0.2-0.8-0.4-0.7-0.9c0.1-0.4,0.6-0.6,0.9-0.9
	C792.4,277.1,792.6,277.3,792.9,277.7z"/>
<path class="st0" d="M312.7,338.7c-4.4,3.7-10.2,4.2-14.5,8.3c-3.2,3.2-8.9,1.7-12.3-1.7c-0.9-0.9-2.1-1.6-3.3-2.1
	c-4.2-1.5-5-3.3-2.2-7.2c3.3-4.6,10.1-7,14.4-3.4c3.2,2.6,4.5,1.4,6-1.2c1.1-2,2.4-3.3,4.7-2.7c2.1,0.6,1.7,2.7,1.5,4.1
	C306.6,337,312.1,335.2,312.7,338.7z M309.3,338.3c-3.6-0.8-5.9-2.8-8.8-1.7c-2.7,0.9-4.9,0.4-7.4-0.8c-3.5-1.6-7.1-1.3-10.3,1
	c-1.9,1.4-2.4,3.2-0.2,4.3c2.8,1.4,5.2,3.4,7.9,4.8c2.4,1.3,6.2,0.8,6.8-0.9c1.1-3.1,3.6-2.7,5.6-3.6
	C304.7,340.4,306.6,339.6,309.3,338.3z"/>
<path class="st0" d="M194.1,291.1c-3.1-1.2-6.1-2.8-9.6-2.3c2.3-1.3,2.2-5.4,5.9-5.2C196,283.8,193.4,288.2,194.1,291.1z"/>
<path class="st0" d="M285.9,203.2c0.9,1.8,3.9,1,3.9,3.3c0,1.7-1.5,2-2.9,1.9c-1.8-0.2-3.8-0.9-3.8-3
	C283.1,204.7,284.9,203.9,285.9,203.2z"/>
<path class="st0" d="M182.2,293.5c1.5-1.8,3.2-0.4,4.3,0.3c1.9,1.2,3.3,0.7,4.9-0.2c-0.5,4.3-3.3,3.7-5.9,2.6
	C184.2,295.7,183.3,294.5,182.2,293.5z"/>
<path class="st0" d="M273.3,319.5c0.8,0,1.6,0,2.4,0.2c1.2,0.2,1.5,1,1.4,2.1c0,0.3-0.1,0.7-0.3,0.9c-1.2,0.6-1.7-0.6-2.3-1.1
	C273.9,321,273.6,320.2,273.3,319.5C273.3,319.5,273.3,319.5,273.3,319.5z"/>
<path class="st0" d="M201.3,320.2c0.8,0.2,1.7,0.5,1.8,1.5c0.1,0.7-0.1,1.4-1,1.1c-0.8-0.2-1.5-0.7-1.6-1.7
	C200.4,320.5,200.6,320.1,201.3,320.2z"/>
<path class="st0" d="M182.3,346.5c0.1,1.9-0.3,3.5-2.6,4.4C179,348.4,181.4,347.8,182.3,346.5L182.3,346.5z"/>
<path class="st0" d="M184.4,288.7c-1,1.2-2.1,2.1-3.7,2.1C180.7,287.9,182.7,288.6,184.4,288.7z"/>
<path class="st0" d="M252,310.8c-0.8,0.5-1.3,0.9-1.8,1c-0.6,0.2-0.9-0.4-0.6-0.8c0.2-0.4,0.6-0.8,1-0.9
	C250.8,310,251.3,310.4,252,310.8z"/>
<path class="st2" d="M180.2,516.3c-1.5-0.2-3.2-0.5-3.6-2.4c-0.1-0.6,1.1-1.4,1.9-1.1c1.5,0.7,4.1,0,4.3,2.4
	C182.9,516.4,181.2,515.9,180.2,516.3z"/>
<path class="st1" d="M426.6,178.2c1.2,3.4,2.2,6.4,6.5,7.6c2.5,0.7,4.4,3.8,6.5,5.9c2.4-4.2,1.9-5.7-2.4-7.2
	c-1.4-0.5-4.9,0.1-2.1-3.4c3.9-5,3.2-6.6-3.2-7.5c-0.8-0.1-1.6-0.1-2.7-0.1c5.5-3.4,11.6-1.2,17.2-2.7c9.5-2.6,19.2-4.5,29-5.8
	c1-0.1,2-0.5,2.9-0.4c5,0.2,9.7-0.3,14.3-2.9c4.1-2.2,6.7,0.3,7.6,4.8c1.7,8.6-0.1,17.6,3.4,26c1.4,3.4-2.3,10.3-5.7,11.6
	c-0.7,0.3-1.8,0.1-1.7-0.2c1.2-3.6-3.9-4.2-3.2-8.1c1.1-6.1-0.3-12.2-3.2-17.8c-1.1-2.2-2.7-4.6-4.4-0.2l-0.1,0.1
	c-3.2,2-3.2,5.2-2.4,8.2c1.5,5.8-0.4,11.5-0.2,17.1c0.2,5.9-2.4,6.6-7,7.2c-2.9,0.4-5.8,1.3-8.8,1.2c-3.6-0.1-7.9,1-6.3-5.4
	c0.3-1.4-1.2-3.4-3.4-2c-1.3,0.8-2.5,1.3-4.7,0.7c1.5,2.5,2.1,4.5,3.5,5.8c3.5,3.3,1,3.5-1.7,3.9c-11.9,2-23.8,4-35.7,5.9
	c-2.9,0.5-5.3,2.7-8.6,2.4c-1.4-0.1-2,1.5-2,3c-0.2,9.9,1.9,19.4,4.3,28.9c0.5,1.9,2,2.4,4.3,2.2c7.4-0.4,14.6-2.8,22.1-2.4
	c2,0.1,4.6-1.2,5.7,2.4c0.2,0.9,5.3,0.7,6.2-1.2c2.2-4.6,6.7-5.1,10.1-4.9c6.8,0.3,12.6-2.5,18.6-4.4c6-1.9,11.1-0.1,16.2,2.2
	c1.4,0.6,3.6,1.4,2.7,4c-0.4,1,0.3,2.5,1.3,2.4c5.6-0.7,4.7,4,5.5,6.9c1,3.5,1.4,7,0.7,10.8c-0.5,2.8,2.6,4.8,3,7.9
	c0.7,5.7-0.1,7.1-5.7,8c-9.7,1.6-19.4,3-29,5.2c-5.5,1.3-11.2,2.4-17,3c-10.6,1.1-21.2,3.3-31.7,5.3c-3.8,0.7-4.5,5.5-7.9,7.3
	c-0.8,0.4-1.2,2.1-2.7,2.5c-1,0.3-1.7,1.2-1.5,2.3c0.3,1.6,1.7,1.2,2.8,1.2c2.1,0,7.7,4.9,7.9,7c0.4,3.5,0.8,6.9,1,10.4
	c0.1,2.8,1.5,3.8,4.1,3.8c10.3,0.2,20.4-1.4,30.4-3.8c4.2-1,8.4-1.5,12.7-1.5c1.7,0,3.3,0.5,4.5-1.1c1.5-2.1,3.4-1.6,6-1.2
	c-3.1,3,1.8,9.1-5,10.2c1.8,2.5,1.8,2.6,3.7,1.1c1.2-1,2.5-0.6,3.8-0.7c1.2-0.1,2.5,0,3.1-1.1c3-5.5,7-8,13.2-4.8
	c0.3,0.1,1-0.7,1.5-1.1c1.2,2.1,3,3.1,5.4,3c1.5-0.1,2.6-0.5,2.4-2.3c-0.2-1.5-1.4-1.7-2.6-1.6c-1.8,0.2-3.5,0.6-5.3,0.9
	c-0.1-1,0.1-2-0.8-2.8c-1.1-0.9-3.2-1.7-2.6-3.2c0.7-1.8,3-1.9,4.7-2c4.5-0.3,8.8-1.6,13.4-1.1c1.3,0.1,2.3-0.3,3.4-1.4
	c3.2-3.2,7.1-2,8.4,2.1c3.4,11.5,6.2,23.1,6.6,35.2c0.2,6.7-0.8,7.4-7.5,7.2c-5.6-0.1-10.8,1.5-16.1,2.6c-6,1.1-12.1,1.9-17.9,3.6
	c-8.1,2.4-16.5,3.1-24.6,4.3c-13.9,1.9-27.7,5-41.6,7.1c-9.5,1.5-19.4,1.6-28.8,5.7c-6.2,2.7-14,2-21,2.2c-3.6,0.1-4.3-3.3-4.3-6.1
	c0.1-3.8-0.7-7.3-2-10.7c-1.6-4.1-2.3-8.3-2.1-12.7c0.2-3.6-1.4-8,4.8-8c0.9,0,1.1-1.1,1.3-2c0.1-0.1,0.1-0.3,0.2-0.4
	c-0.1,0.1-0.2,0.3-0.2,0.4c-7-0.1-9.2-1.3-9.9-8.1c-1.4-14-5.1-27.6-6.9-41.5c-0.4-3.4,1-3.6,3.7-3c3.5,0.9,7.3,3.1,10.4-1.2
	c0.9-1.2,3.2-1.5,2.3-3.8c-0.8-2.2-2.4-3.6-4.6-4.2c-2.3-0.6-5.1,0.8-6.8-2.1c-0.4-0.7-1.1-0.2-1.3,0.5c-0.7,2.3-2.4,2.6-4.4,2.2
	c-2.8-0.6-0.8-2.8-1.1-4.1c-1-5.3-4.2-10-3.9-15.7c0.1-2-1.1-4.1,0.6-6c0.3-0.3,0.4-1.2,0.2-1.4c-5.7-5.3-3.5-12.8-5.4-19.1
	c-1.7-5.7-3.2-11.5-3.8-17.5c-1-10.1-4.3-19.9-3.9-30.2c0.1-1.5-1.6-2.6-0.8-4.5c2.3,0.4,3,6.7,6.6,2.1c2.9-3.7-1.9-3.5-2.8-5.4
	c9.7-4.2,20.2-5.1,30.5-7c11.7-2.1,23.4-4.4,35.1-6.5c2.6-0.5,5.2-1.1,7.8-1.1C421.2,175,424.3,175.5,426.6,178.2L426.6,178.2z
	 M384.3,222.1c0.9-1.5-0.1-1.2-0.6-1.6c-2.6-1.8-5.4-2.6-8.3-1.6c-4.2,1.4-8.1,4.3-10.1,7.8c-1.6,2.9,3.5,2.5,5.3,3.7
	c2.5,1.7,6.5,2.6,9.8,0.7C384,229,385.9,226,384.3,222.1z M476.4,340.7c-2.2-1.8-4.8-0.7-5.8-3.4c-0.4-1.3-2.3,0.4-3.4,0.8
	c-0.8,0.3-1.6,0.8-1.1,1.8c0.3,0.5,1.2,1.2,1.3,1.1C470.2,339.3,472.9,342.1,476.4,340.7z M524.2,329.5c-1.1,0.1-2.5-0.3-2.1,1.7
	c0.3,1.9,0.7,3.6,3.2,3.2c1.2-0.2,3,0.2,2.7-1.8C527.6,330.7,526.1,329.7,524.2,329.5z M501.2,337.5c-0.1-0.8-0.1-1.8-1.2-1.6
	c-0.5,0-1.1,0.7-1.3,1.2c-0.3,1,0.6,1.4,1.4,1.6C500.9,338.9,501.1,338.2,501.2,337.5z"/>
<path class="st0" d="M672.5,386.5c-3.9,0.7-7.9,0.4-11.8,1.6c-6.6,2.2-9.3,5.7-9.8,12.7c-0.4,6.7,1.2,13.2,2.2,19.7
	c-6.4-3.1-9.4-8.7-10.9-15.2c-1.3-5.6,2.7-14,8-17c4.9-2.7,10-4.9,15.9-3C668.1,386.1,670.3,386.2,672.5,386.5z"/>
<path class="st1" d="M542.3,157.2c-4,1.9-3.5,7-7.1,9.1c-2.4,1.4-4.9,2.4-7,4.4c-1.4,1.4-3.4,1.7-3.4-1.5c0-1-1.1-1.7-2.2-1.1
	c-1,0.6-1.4,1.6-0.5,2.5c1,1,1.1,2.9,2.8,3.3c0.9,0.2,2.6-2.3,2.7,0.4c0,1.4-2.3,0.8-3.3,1.3c-3.7,1.9-4.5-0.7-5.5-3.2
	c-0.6-1.5-1-3.2-1.9-4.5c-3.6-5.2-3.7-5.7,1.9-7.9c5.5-2.2,11-4.5,17-5.3C538,154.3,540.5,154.1,542.3,157.2z M533,161
	c-0.1,0.3-0.2,0.5-0.3,0.8c0.3,0.1,0.6,0.4,0.8,0.3c0.2-0.1,0.2-0.5,0.4-0.7C533.5,161.2,533.2,161.1,533,161z M528.6,161.8
	c0.3,0.1,0.6,0.4,0.8,0.3c0.2-0.1,0.2-0.5,0.4-0.7c-0.3-0.1-0.6-0.4-0.8-0.3C528.8,161.1,528.7,161.5,528.6,161.8z"/>
<path class="st1" d="M716.6,295.2c0.1,0,0.3,0.1,0.3,0.1c0,0.1-0.1,0.3-0.1,0.4c-0.1,0-0.3-0.1-0.3-0.1
	C716.4,295.5,716.5,295.3,716.6,295.2z"/>
<path class="st1" d="M325.4,301c0,4.1-4.9,3.4-4.8,6.7c-1.5,0-2.5-0.8-3.2-2c-0.7-1.2-2-1-3-1.5c-1.8-1.1-1.4-3-0.9-4.4
	c0.6-1.8,1.7-0.4,2.7,0c3.6,1.6,3.3-1.5,3.8-3.4c0.1-0.4-0.6-1.2,0.2-1.6c0.4-0.2,0.9,0,1.4,0.1C321.2,298,325.8,298.6,325.4,301z"
	/>
<path class="st1" d="M341.3,395.5c0.4,2.8-0.8,4.9-3.6,4.8c-5.1-0.2-9.7,2.1-14.5,2.9c-1.5,0.3-4,1.4-4.3-1.3
	c-0.1-1.2-0.8-4.5,3.4-3.4c2.5,0.7,4-4.9,2.1-7.5c-1.4-2-5.7-3.2-3.1-6.7c2.5-3.4,5.8-1.3,8.6-0.3c2.5,0.8,4.6,2.6,7.3,0
	c1.2-1.1,3.1-0.4,3,1.7C340.1,389,340.7,392.2,341.3,395.5z"/>
<path class="st1" d="M322,346.6c3.6,0,4.8,1.3,5.1,3.5c0.1,0.7-0.6,1.3-1.3,1.2C323.5,350.9,323.8,348.6,322,346.6z"/>
<path class="st1" d="M485,407.2c2.4,0.5,3.7-1.6,5-2.7c6.3-5.5,15.4-3.5,21.8-8.6c1.7-1.3,4.8-1.2,5.2,2.3c0.5,4.9,2.9,6.8,7.4,4.8
	c2.1-0.9,7.4-1.9,1.7-5.8c-1.5-1-1.6-2.9,0.3-3.6c4.6-1.7,9.2-0.5,13.7,0.5c0.5,0.1,1.1,1.4,1,2.1c-0.5,3.2,0,6.1,0.8,9.2
	c0.7,2.5-1.6,3.8-4,3.9c-3.3,0.1-6.7,0.6-10,0c-5.7-1.1-11,1.1-16.5,1.1c-3.7,0-3.8,3.5-5.2,5.3c-3.6,4.6-0.8,10.3,5,11.8
	c5.7,1.6,11.6,0.3,17.3,0.9c8.9,0.9,17.3,3.1,23,10.9c0.6,0.8,1.5,1.7,1.5,2.5c0,6.7,1.3,13.5-0.2,20.2c-1.2,5.3-4.8,7.9-10.8,8.4
	c-1.3,0.1-2.5,0.6-3.8,0.9c-0.1-0.1-0.3-0.1-0.4-0.2c0.1,0.1,0.3,0.1,0.4,0.2c0,3-0.9,4.7-4.5,5.2c-4.2,0.5-8.2,2.2-12.3,3.1
	c-8.2,1.9-16.4-0.3-24.5,0.8c-3.5,0.4-4.9-1.6-5.3-4.5c-0.5-3.4,1.6-6.6,1.2-10.1c-0.2-1.3,1.9-1.4,3.3-1.3c9.9,1,19.9,0.3,29.4-2.4
	c5.4-1.6,9.7-5.5,9-12c-0.1-1.3,0.3-2-1.6-2.1c-7.9-0.4-15.8-1.7-23.7-1.4c-6.7,0.3-12-1.9-17.4-5.1c-1.9-1.1-2.3-3.5-3.5-4.9
	c-2.5-3.1-1.1-8.1-5.6-10.4c-1.5-0.8-1.1-5.1,0.4-7.5C485.3,415.2,485.5,411.3,485,407.2c0,0,0.2,0.2,0.2,0.2L485,407.2z
	 M495.8,405.2c-0.3-0.1-0.6-0.4-0.8-0.3c-0.2,0.1-0.2,0.5-0.4,0.8c0.3,0.1,0.6,0.4,0.8,0.3C495.6,405.9,495.7,405.5,495.8,405.2z"/>
<path class="st1" d="M374.2,426.5c1.9,1.7,4.2,1.1,6.2,0.8c4.6-0.6,7,1,8.3,5.6c1.2,3.9,1.5,8,3.2,11.8c1.2,2.9,2.5,3.7,5.3,3.7
	c6.5,0,13,1.5,19.1-2.4c1.5-0.9,3.9-0.6,5.8-0.6c2.1,0,3.1-0.8,3.3-2.8c1.4-0.6,2.9-1.1,2.3-3.2c-0.8-2.8-0.8-5.6,0.1-8.3
	c0.4-1.2,0.2-2.2-0.8-3.2c-2.6-2.5-3.1-5.8-2-9c0.8-2.4-2.8-5.7,0.9-7.1c2.3-0.9,4.9-1.7,7.7-1.1c1,0.2,2.3-1.1,3.5-1.6
	c3.7-1.7,7.1,0.3,7,4.3c-0.1,4.1,4,8,0.5,12.3c-0.2,0.3,0.4,1.6,0.9,2.2c6.1,7.4,4.3,16.9,6.2,25.3c1,4.2,2.7,9,1.6,13.8
	c-0.3,1.4,0.7,2.4,1.5,3.5c3.6,4.9,3,10.8,2.9,16.2c-0.1,4.6-5.3,4-8.7,4.6c-3.1,0.6-6.5-1.1-9.3,2.2c-1.2,1.4-2-0.6-2.6-1.8
	c-2.6-6-2.8-12.5-3.8-18.9c-0.4-3-0.9-6.1-0.9-9.3c-0.1-4.1-3.9-4.5-6.6-3.4c-7.3,3.2-15.4,1.7-22.7,4.3c-0.9,0.3-1.7,0.4-2.8,0.2
	c-3-0.5-5.3,1-5,4.1c0.4,4.9,1,10,2.6,14.6c1.4,3.8,2.5,7.5,2.2,11.6c-0.1,1.5,1.5,3.9-1,4.1c-2.4,0.2-5.1,2-7.5,0
	c-0.2-0.2-0.4-0.6-0.6-0.8c-1.5-1.2-3-3.6-5-2.4c-2.3,1.4,0.2,3.6,0.1,5.5l-0.1,0.1c-4.4,2.8-5.8-1.2-7.6-3.7
	c-0.9-1.2,0.2-2.2,1.4-2.7c1.8-0.7,3.1-2.6,5.3-2.7c0.3,0.3-0.4,1.4,0.7,1c-0.2-0.3-0.5-0.7-0.7-1c-9.6-7-10.8-17.8-13.1-28.3
	c-2.2-9.9-2.8-20-5.6-29.8c-0.8-2.6-0.4-5.6-0.1-8.4c0.2-2.2,2.2-3.5,4-3.9c1.9-0.5,1.6,2.1,2.4,3.2
	C373.1,425.7,373.7,426.1,374.2,426.5z"/>
<path class="st1" d="M386.3,501.4c0.1,0.1,0.3,0.3,0.4,0.4C386.5,501.7,386.4,501.6,386.3,501.4
	C386.2,501.4,386.3,501.4,386.3,501.4z"/>
<path class="st1" d="M834.2,391.5c-4.4,3.6-1,7.7-0.5,11.6c0.2,1.3,1.9,2.4,1.1,4.1c-0.7,1.6-0.2,2.6,1.4,3.1
	c1.6,0.5,3.2,0.1,3.8-1.5c0.9-2.3,2.4-3.3,4.8-3.7c9.1-1.5,18.1-3.1,27.2-4.6c3.9-0.6,5.6,1.1,5.2,5.1c0,0.3,0,0.7,0,1
	c0.7,9.8-0.3,11-10.4,11.9c-7.6,0.6-15.3,1-22.5,3.3c-7.5,2.4-15.5,1.1-22.8,4c-1.5,0.6-8.1-4.5-8.1-6.5c0.1-8-3.7-15.6-3.2-23.6
	c0.2-2.5-1.3-4.4-2-6.6c-1.5-4.8-2.4-9.7-2.5-14.6c-0.1-8.3-3.6-16-4.4-24.2c-0.2-1.4-0.5-3.7,1.5-3.5c4.7,0.4,8.3-2.7,12.5-3.8
	c7.9-2.1,16-1.3,23.8-2.9c2.1-0.4,4.4,1.4,7.1,1.3c2.6-0.1,3.8-0.6,3.5-3.2c-0.1-0.9,0.4-1.6,0.9-1.3c2.6,1.9,4-1,6.1-1.2
	c2.1-0.2,4.6-1.2,6.3-0.5c2.7,1-0.2,3.4,0.1,5.2c0.3,2,1.8,3.2,2.4,4.9c1.1,2.8,1.4,5.1-2.7,5.7c-10.6,1.5-20.8,5.4-31.6,4.7
	c-3.3-0.2-5.2,1-5.5,4.2c-0.3,4,0.7,7.9,2.2,11.5c0.7,1.8,3.1,2.5,5.2,2.1c7.2-1.5,14.6-2.1,21.7-4.4c3.1-1,7.6-1.8,9.5,0.4
	c2.8,3.3,3.2,8.2,3.6,12.7c0.2,1.9-7.4,4-10.1,3.1c-4-1.4-3.7-0.9-7,1.2c-2.5,1.6-5.9,2.3-9.1,2.2
	C838.6,388.3,836.2,389.3,834.2,391.5C834.2,391.5,834.2,391.5,834.2,391.5z"/>
<path class="st1" d="M293.6,500.1c-2.5-6.7-5.5-13.2-6.7-20.3c-0.7-4.1-1.2-8.1-1.6-12.2c-0.2-1.8-0.4-3.8,2.1-4.4c0,0,0,0,0,0
	c0.8,1.5,2.4,2.1,3.4,3.1c3.7,3.6,5.2,1.6,6.4-2c0.3-0.2,0.6-0.5,0.9-0.7c1.3-0.2,2.1-0.9,1.9-2.3c-0.2-1.6-1.2-1.7-2.5-1.6
	l-0.3-0.1c-0.9-2.9-3.3-3.1-5.6-2.7c-4.5,0.7-5.1-1.3-3.5-4.7c3.9-8.8,9.2-16.3,19.9-17.2c2.3-0.2,1.8-1.9,2.3-3.2
	c6.6-3.1,13.8-3.3,20.7-4.9c5.1-1.1,10.2,0.3,15.2-1.3c1.6-0.5,2.6,0.7,3.5,2.1c2.4,3.9,2.3,8.3,2.9,12.5c0.3,2-1.5,2.3-3.1,2.3
	c-10.7,0.2-21,2.6-31.3,5.1c-3.3,0.8-5.8,4.3-10.1,2.3c-1.4-0.7-1.4,1.5-1.2,2.9c1.1,7.9,1.4,16.1,3.3,23.8c1.5,6,2.3,12.7,8.1,16.9
	c1.9,1.4,3.6,2.1,5.9,2c4.2-0.1,8.3,0.1,12.5-0.1c4.5-0.2,5.6-2.6,4.7-7c-0.6-3-2.1-6.1-0.8-9.2c0.9-2.1-0.5-3.4-1.6-4.8
	c-1.6-2.1-1-4.2,1.6-4.4c4.2-0.3,8.1-1.9,12.2-2.4c2.9-0.3,5.1-0.5,6.3,4c2.6,9.6,4.5,19.2,5,29.1c0.1,2.6-0.5,4.7-3.2,5.4
	c-7.8,2-15,5.9-23,7.1c-7.9,1.1-15.7,2.8-23.6-0.1c-0.9-0.3-3,0.1-2.3-2.3c1.1-3.5-2.3-3.9-3.7-3.5c-6.1,1.9-9.3-1.3-12.3-5.7
	C295.7,500.7,294.5,500.5,293.6,500.1z"/>
<path class="st2" d="M297.3,459.5c0,0,0.3,0.1,0.3,0.1c0.2,1.3,0.4,2.6,0.6,3.9c-0.3,0.2-0.6,0.5-0.9,0.7c-3.3-0.4-6.6-0.7-9.9-1.1
	c0,0,0,0,0,0c-0.8-3.6,2.1-3.3,4.1-4C293.6,458.4,295.4,459.6,297.3,459.5z"/>
<path class="st1" d="M753.7,312.7c-0.2-0.8-0.6-1.8,0.7-1.8c1,0,2.4,0.4,2.1,2c-0.2,1-0.1,2.6-1.7,2.5
	C752.7,315.2,754.6,313.3,753.7,312.7z"/>
<path class="st0" d="M476.4,340.7c-3.5,1.4-6.2-1.4-8.9,0.3c-0.2,0.1-1.1-0.6-1.3-1.1c-0.6-1,0.3-1.5,1.1-1.8c1.1-0.4,3-2.1,3.4-0.8
	C471.6,340,474.3,339,476.4,340.7z"/>
<path class="st0" d="M524.2,329.5c1.9,0.2,3.5,1.1,3.8,3.1c0.3,2-1.5,1.6-2.7,1.8c-2.5,0.3-2.9-1.3-3.2-3.2
	C521.7,329.2,523.1,329.6,524.2,329.5z"/>
<path class="st0" d="M503.2,332.5c1.8-0.3,3.5-0.7,5.3-0.9c1.2-0.1,2.4,0.1,2.6,1.6c0.2,1.8-0.9,2.2-2.4,2.3
	C506.2,335.5,504.4,334.6,503.2,332.5L503.2,332.5z"/>
<path class="st0" d="M501.2,337.5c-0.1,0.7-0.2,1.4-1.1,1.1c-0.8-0.2-1.7-0.6-1.4-1.6c0.1-0.5,0.8-1.2,1.3-1.2
	C501,335.8,501.1,336.7,501.2,337.5z"/>
<path class="st0" d="M376.2,352.5c0.1-0.1,0.2-0.3,0.2-0.4C376.4,352.2,376.3,352.3,376.2,352.5L376.2,352.5z"/>
<path class="st0" d="M533,161c0.3,0.1,0.5,0.2,0.8,0.3c-0.1,0.3-0.2,0.7-0.4,0.7c-0.2,0.1-0.5-0.2-0.8-0.3
	C532.7,161.5,532.8,161.2,533,161z"/>
<path class="st0" d="M528.6,161.8c0.1-0.3,0.2-0.7,0.4-0.7c0.2-0.1,0.5,0.2,0.8,0.3c-0.1,0.3-0.2,0.7-0.4,0.7
	C529.2,162.2,528.9,161.9,528.6,161.8z"/>
<path class="st0" d="M495.8,405.2c-0.1,0.3-0.2,0.7-0.4,0.7c-0.2,0.1-0.5-0.2-0.8-0.3c0.1-0.3,0.2-0.7,0.4-0.8
	C495.2,404.8,495.5,405.1,495.8,405.2z"/>
<path class="st0" d="M538.2,471.4c-0.1-0.1-0.3-0.1-0.4-0.2C537.9,471.3,538.1,471.4,538.2,471.4L538.2,471.4z"/>
<path class="st0" d="M385.2,492.4c0.2,0.3,0.5,0.7,0.7,1C384.8,493.8,385.5,492.8,385.2,492.4C385.2,492.4,385.2,492.4,385.2,492.4z
	"/>
<path class="st0" d="M287.4,463.1c3.3,0.4,6.6,0.7,9.9,1.1c-1.2,3.7-2.7,5.7-6.4,2C289.8,465.2,288.2,464.6,287.4,463.1z"/>
<path class="st0" d="M298.2,463.5c-0.2-1.3-0.4-2.6-0.6-3.9c1.2-0.1,2.3,0,2.5,1.6C300.3,462.6,299.5,463.3,298.2,463.5z"/>
</svg>
