<?xml version="1.0" encoding="utf-8"?>
<!-- Generator: Adobe Illustrator 25.2.0, SVG Export Plug-In . SVG Version: 6.00 Build 0)  -->
<svg version="1.1" id="Layer_1" xmlns="http://www.w3.org/2000/svg" xmlns:xlink="http://www.w3.org/1999/xlink" x="0px" y="0px"
	 viewBox="0 0 480 480" style="enable-background:new 0 0 480 480;" xml:space="preserve">
<style type="text/css">
	.st0{fill:#DB3F3D;}
	.st1{fill:#FF4F19;}
	.st2{fill:#A03939;}
</style>
<circle class="st0" cx="240" cy="240" r="240"/>
<path class="st1" d="M440.1,107.5c-19.6,9-43.2,16.8-70.3,23c-0.6,0.1-1.2,0.2-1.8,0.2c-3.6,0-6.9-2.5-7.8-6.2c-1-4.3,1.7-8.6,6-9.6
	c24.8-5.7,46.3-12.7,64.4-20.7c-7.8-10.1-16.3-19.6-25.6-28.4c0,0-19.2-1.8-29-1.8c-124.3,0-226.5,94.4-238.8,215.5c0,0,0,0.1,0,0.1
	c0,0,0,0,0,0c31.7,5.5,67,8.4,102.8,8.4c41.9,0,82.8-3.9,118.4-11.3c14-2.9,27.2-6.4,39.1-10.3c4.2-1.4,8.7,0.9,10.1,5.1
	c1.4,4.2-0.9,8.7-5.1,10.1c-7.8,2.6-16.1,4.9-24.7,7.1c-0.1,0.1-0.1,0.2-0.3,0.3l-15.7,11.7l16.3,4.5c3.5,1,5.9,4.2,5.9,7.8
	c0,3.6-2.5,6.8-6.1,7.7C337.6,330.7,289.9,336,240,336c-3.5,0-6.6-2.3-7.7-5.7s0.3-7,3.2-9c2.6-1.7,2.5-4.2,2.3-5.3
	c-0.2-1-0.8-3.5-3.8-4.3l-43.8-9.7c-0.1,0-0.1-0.1-0.2-0.1c-18.6-1.4-36.8-3.5-53.9-6.4c-0.1,2.8-0.2,5.6-0.2,8.3
	c0,54.2,18,104.2,48.3,144.3c18.6-8.5,37.7-17,56-16.3c28.8,1.3,43.5-6.9,43.7-7c3.8-2.1,8.7-0.8,10.9,3c2.2,3.8,0.9,8.7-2.9,10.9
	c-0.7,0.4-18.3,10.5-52.4,9.1c-13.4-0.7-29.3,6.1-44.9,13.2c0,0,0,0,0,0c0,0,0,0,0,0c5,5.8,16.3,17,16.3,17.1
	c9.5,1.1,19.1,1.8,28.9,1.8c132.5,0,240-107.5,240-240C480,191,465.3,145.5,440.1,107.5z M272,232c-0.3,0-0.7,0-1,0
	c-11.4,0-18.5,3.6-26.6,7.7c-8.6,4.4-18.2,9.3-32.9,9.3c-3.9,0-8.1-0.3-12.8-1.1c-4.4-0.7-7.3-4.9-6.6-9.2c0.7-4.4,4.8-7.4,9.2-6.6
	c17.2,2.9,25.8-1.5,35.8-6.6c8.9-4.6,18.7-9.9,35-9.5c4.4,0.1,7.9,3.7,7.9,8.1C279.9,228.5,276.4,232,272,232z M334.3,220.9
	c-7.2,9.1-24.7,10.8-29.9,11c-0.1,0-0.3,0-0.4,0c-4.2,0-7.7-3.3-8-7.6c-0.2-4.4,3.1-8.2,7.5-8.4c7.7-0.4,16.5-2.8,18.2-5
	c2.7-3.5,7.8-4.1,11.2-1.3C336.4,212.4,337,217.5,334.3,220.9z M373.7,197.5c-1.5,1.5-3.6,2.4-5.7,2.4s-4.2-0.9-5.7-2.3
	c-1.4-1.5-2.3-3.6-2.3-5.7c0-2.1,0.9-4.2,2.3-5.7c3-3,8.3-3,11.4,0c1.5,1.5,2.3,3.6,2.3,5.7C376,194,375.2,196.1,373.7,197.5z
	 M405.7,229.6c-1.5,1.5-3.6,2.4-5.7,2.4s-4.2-0.9-5.7-2.3c-1.4-1.5-2.3-3.6-2.3-5.7c0-2.1,0.9-4.2,2.3-5.7c3-3,8.3-3,11.4,0
	c1.5,1.5,2.3,3.6,2.3,5.7C408,226.1,407.2,228.2,405.7,229.6z M205.7,333.6c-1.5,1.5-3.6,2.4-5.7,2.4s-4.2-0.9-5.7-2.3
	c-1.4-1.5-2.3-3.6-2.3-5.7s0.9-4.2,2.3-5.7c3-3,8.3-3,11.4,0c1.5,1.5,2.3,3.6,2.3,5.7S207.2,332.2,205.7,333.6z M309.7,373.6
	c-1.5,1.5-3.6,2.4-5.7,2.4s-4.2-0.9-5.7-2.3c-1.4-1.5-2.3-3.6-2.3-5.7s0.9-4.2,2.3-5.7c3-3,8.3-3,11.4,0c1.5,1.5,2.3,3.6,2.3,5.7
	S311.2,372.2,309.7,373.6z"/>
<ellipse transform="matrix(0.5369 -0.8437 0.8437 0.5369 -41.9002 152.9106)" class="st2" cx="118.3" cy="114.6" rx="20.9" ry="16"/>
<ellipse transform="matrix(0.9774 -0.2113 0.2113 0.9774 -55.9444 20.5857)" class="st2" cx="68.3" cy="272.1" rx="13" ry="17"/>
<path class="st2" d="M176,88c2.1,0,4.2-0.9,5.7-2.4c1.5-1.4,2.3-3.5,2.3-5.6s-0.8-4.2-2.3-5.7c-3-3-8.4-3-11.4,0
	c-1.4,1.5-2.3,3.6-2.3,5.7s0.9,4.2,2.3,5.7C171.8,87.1,173.9,88,176,88z"/>
<path class="st2" d="M120.1,284.6c-0.8,4.3,2,8.5,6.4,9.4c3.2,0.6,6.5,1.1,9.7,1.7c0.2-5.4,0.5-10.7,1-16c0,0,0-0.1,0-0.1l0,0
	c-2.6-0.4-5.2-0.8-7.7-1.3C125.1,277.4,121,280.2,120.1,284.6z"/>
<path class="st2" d="M77.5,209.5c0.8,0.3,1.7,0.4,2.5,0.4c3.4,0,6.5-2.1,7.6-5.5c1.4-4.2-0.9-8.7-5.1-10.1
	c-31.3-10.3-54.5-22.9-67.3-36.6c-0.2-0.2-0.4-0.2-0.6-0.4c-0.5,1.3-1,2.7-1.4,4c0,0,0,0.1,0,0.1c-1.4,4.2-2.7,8.4-3.9,12.7
	C24.4,187.6,47.8,199.8,77.5,209.5z"/>
<path class="st2" d="M184.4,448.3c-0.2,0.1-0.4,0.2-0.7,0.3c-13.8,6.3-27.9,12.6-37.2,12.4c2,0.8,4,1.6,6,2.4
	c1.8,0.7,3.7,1.5,5.5,2.1c1.7,0.6,3.4,1.2,5.1,1.7c2.7,0.9,5.3,1.8,8,2.6c0.8,0.2,1.5,0.4,2.3,0.7c5.5-2.2,11.1-4.8,16.8-7.4
	c1.5-0.7,2.9-1.3,4.4-2c0,0,0,0,0,0c0,0,0,0,0,0C191.1,457,187.7,452.7,184.4,448.3z"/>
</svg>
